<?xml version="1.0" standalone="no"?>
<!DOCTYPE svg PUBLIC "-//W3C//DTD SVG 1.1//EN" "http://www.w3.org/Graphics/SVG/1.1/DTD/svg11.dtd" >
<svg xmlns="http://www.w3.org/2000/svg" xmlns:xlink="http://www.w3.org/1999/xlink" version="1.1">
<metadata>
Created by FontForge 20230101 at Mon Jun  6 17:39:30 2011
 By Unknown
Copyright 2006 - 2007 Linotype GmbH, www.linotype.com. All rights reserved. Copyright 1989, 1990, 1991, 1994, 2001 Adobe Systems Incorporated. All Rights Reserved.
</metadata>
<defs>
<font id="ArnoldBoecklinW01" horiz-adv-x="278" >
  <font-face 
    font-family="ArnoldBoecklinW01"
    font-weight="400"
    font-stretch="normal"
    units-per-em="1000"
    panose-1="2 9 7 3 7 1 1 2 2 4"
    ascent="716"
    descent="-284"
    x-height="522"
    cap-height="716"
    bbox="-93 -250 1006.03 920"
    underline-thickness="50"
    underline-position="-150"
    unicode-range="U+000D-E308"
  />
<missing-glyph horiz-adv-x="296" 
 />
    <glyph glyph-name=".notdef" horiz-adv-x="296" 
 />
    <glyph glyph-name="glyph1" horiz-adv-x="296" 
 />
    <glyph glyph-name="uni000D" unicode="&#xd;" horiz-adv-x="296" 
 />
    <glyph glyph-name="space" unicode=" " horiz-adv-x="296" 
 />
    <glyph glyph-name="exclam" unicode="!" 
d="M94 155q-14 0 -22.5 4.5t-8.5 18.5v457q0 16 -9 22.5t-20 10.5t-20 7.5t-9 13.5q0 9 7.5 14t18.5 8t23.5 4t21.5 1h98q11 0 24 -1t24 -4t18.5 -8t7.5 -14t-9 -13.5t-19.5 -8.5t-19.5 -10.5t-9 -21.5v-404q0 -14 8 -20.5t17 -11t17 -9.5t8 -15q0 -20 -23 -20h-124zM60 52
q0 25 19 41.5t48 16.5t48 -16.5t19 -41.5t-19 -41.5t-48 -16.5t-48 16.5t-19 41.5z" />
    <glyph glyph-name="quotedbl" unicode="&#x22;" 
d="M7 619q-1 6 -1.5 12t-0.5 12q0 15 1.5 29t6.5 25.5t15 18t27 6.5t27 -6.5t15 -18t6.5 -25.5t1.5 -29q0 -6 -0.5 -12t-1.5 -12l-16 -156q-2 -14 -7.5 -28t-24.5 -14t-24.5 14t-7.5 28zM175 619q-1 6 -1.5 12t-0.5 12q0 15 1.5 29t6.5 25.5t15 18t27 6.5t27 -6.5t15 -18
t6.5 -25.5t1.5 -29q0 -6 -0.5 -12t-1.5 -12l-16 -156q-2 -14 -7.5 -28t-24.5 -14t-24.5 14t-7.5 28z" />
    <glyph glyph-name="numbersign" unicode="#" horiz-adv-x="592" 
d="M255 400l-16 -120h98l16 120h-98zM398 46q0 -17 -15.5 -31.5t-38.5 -14.5q-21 0 -30.5 14.5t-9.5 31.5l19 138h-97l-19 -138q0 -17 -15.5 -31.5t-38.5 -14.5q-21 0 -30.5 14.5t-9.5 31.5l19 138h-54q-17 0 -31.5 12.5t-14.5 35.5q0 21 14.5 34.5t31.5 13.5h67l16 120h-88
q-17 0 -31.5 12.5t-14.5 35.5q0 21 14.5 34.5t31.5 13.5h101l20 140q0 17 15.5 31.5t38.5 14.5q21 0 30.5 -14.5t9.5 -31.5l-19 -140h97l19 140q0 17 15.5 31.5t38.5 14.5q21 0 30.5 -14.5t9.5 -31.5l-19 -140h62q17 0 31.5 -13.5t14.5 -34.5q0 -23 -14.5 -35.5t-31.5 -12.5
h-75l-16 -120h77q17 0 31.5 -13.5t14.5 -34.5q0 -23 -14.5 -35.5t-31.5 -12.5h-90z" />
    <glyph glyph-name="dollar" unicode="$" horiz-adv-x="592" 
d="M249 -6q-48 0 -88.5 10.5t-70 33.5t-46.5 60.5t-17 91.5q0 37 11.5 70t33 58t51.5 40t67 15q40 0 66.5 -13.5t44.5 -30t29.5 -30t20.5 -13.5q6 0 12 6q0 -29 -12.5 -52.5t-47.5 -23.5q-17 0 -28.5 5t-21.5 10q-11 5 -21 9.5t-24 4.5q-19 0 -30 -13t-11 -38
q0 -17 11 -28.5t29.5 -18.5t42 -10t49.5 -3q29 0 54 7t44 23t29.5 41.5t10.5 62.5q0 52 -29 87.5t-72 62t-93.5 47.5t-93.5 44.5t-72 53.5t-29 74q0 40 30.5 59.5t111.5 19.5h59v53q0 7 5.5 12t13.5 5t15 -1t15 -1t14.5 1t14.5 1q7 0 14.5 -5t7.5 -12v-53h67q23 0 45 -2
t39 -7.5t27.5 -15t10.5 -24.5q0 -24 -14 -36t-30.5 -20t-30.5 -17t-14 -25q0 -5 4.5 -11t7.5 -8q-5 -3 -10.5 -4.5t-16.5 -1.5q-14 0 -26.5 10t-12.5 30q0 18 7.5 32t7.5 21q0 9 -6 18t-26 9h-181q-14 0 -26.5 -7.5t-12.5 -19.5q0 -8 3.5 -16.5t14.5 -13.5l212 -107
q86 -43 131.5 -112t45.5 -154q0 -65 -23 -110.5t-56 -74.5t-70.5 -42.5t-66.5 -12.5v-64q0 -7 -7.5 -12t-14.5 -5q-8 0 -14.5 1t-14.5 1t-15 -1t-15 -1t-13.5 5t-5.5 12v64z" />
    <glyph glyph-name="percent" unicode="%" horiz-adv-x="778" 
d="M22 481q0 40 8.5 77.5t26.5 65.5t45 45t65 17q16 0 32 -2.5t28.5 -7t20 -11.5t7.5 -15q0 -6 -2.5 -12.5t-5.5 -11.5q9 -3 20 -10.5t21 -24t16.5 -43t6.5 -67.5q0 -30 -4.5 -60.5t-16 -56t-32 -41.5t-52.5 -16q-10 0 -19.5 3t-19.5 3q-11 0 -20.5 -3t-20.5 -3
q-34 0 -54.5 14.5t-31.5 39t-14.5 56t-3.5 64.5zM92 507q0 -20 2 -39.5t9 -36t20.5 -26.5t37.5 -10t39.5 9t24.5 23t12.5 31.5t3.5 34.5v31t-2 30t-7 24t-14 13q-5 -3 -9.5 -5.5t-12.5 -2.5t-12.5 6t-4.5 14q0 9 5 13.5t11 6.5q2 3 2 7q0 10 -11.5 13t-24.5 3
q-19 0 -32 -12.5t-21.5 -33t-12 -45t-3.5 -48.5zM467 168q0 40 8.5 77.5t26.5 65.5t45 45t65 17q16 0 32 -2.5t28.5 -7t20 -11.5t7.5 -15q0 -6 -2.5 -12.5t-5.5 -11.5q9 -3 20 -10.5t21 -24t16.5 -43t6.5 -67.5q0 -30 -4.5 -60.5t-16 -56t-32 -41.5t-52.5 -16q-10 0 -19.5 3
t-19.5 3q-11 0 -20.5 -3t-20.5 -3q-34 0 -54.5 14.5t-31.5 39t-14.5 56t-3.5 64.5zM537 194q0 -20 2 -39.5t9 -36t20.5 -26.5t37.5 -10t39.5 9t24.5 23t12.5 31.5t3.5 34.5v31t-2 30t-7 24t-14 13q-5 -3 -9.5 -5.5t-12.5 -2.5t-12.5 6t-4.5 14q0 9 5 13.5t11 6.5q2 3 2 7
q0 10 -11.5 13t-24.5 3q-19 0 -32 -12.5t-21.5 -33t-12 -45t-3.5 -48.5zM566 678q4 6 11 13t18 7t18.5 -7t7.5 -15q0 -13 -11 -32l-389 -643q-5 -8 -12 -13.5t-18 -5.5q-8 0 -15 4t-10 15q-1 10 2 18t8 17z" />
    <glyph glyph-name="ampersand" unicode="&#x26;" horiz-adv-x="741" 
d="M47 199q0 60 18.5 104.5t51 76t76 51t93.5 29.5q14 4 23.5 7t9.5 9q0 7 -31.5 12t-90.5 22q-18 5 -36.5 13t-34.5 19.5t-26 28t-10 38.5q0 32 18.5 53.5t52.5 35t81.5 19t106.5 5.5q38 0 84.5 -2.5t86.5 -11.5t67 -26.5t27 -47.5q0 -20 -9.5 -31.5t-23.5 -18.5t-31.5 -9
t-32.5 -2q-17 0 -34 2.5t-34 2.5q-8 0 -15 -5t-2 -14q-14 4 -22 15t-8 26q0 14 9.5 21t20.5 11t20.5 6.5t9.5 8.5q0 7 -10.5 12t-26 7t-33 3t-31.5 1q-20 0 -43 -1.5t-42.5 -8t-32.5 -19.5t-13 -35q0 -17 9 -29.5t24.5 -22.5t35.5 -17.5t41 -14.5q35 -12 56.5 -22.5
t21.5 -25.5q0 -8 -17.5 -17t-44 -22t-57 -29.5t-57 -40.5t-44 -55t-17.5 -72q0 -44 26 -71t70 -27q27 0 53.5 3t53.5 3q21 0 43.5 -3t51.5 -3q18 0 36 4.5t32 14.5t23 27t9 42q0 27 -11.5 46.5t-42.5 19.5q-16 0 -26 -8t-10 -25q0 -7 8.5 -14.5t15.5 -8.5q-8 -12 -24 -20
t-33 -8q-29 0 -48 14t-19 43q0 25 16.5 41t40.5 27.5t53 19t53 15.5t40.5 17t16.5 24q0 14 -13 19.5t-24 5.5q15 15 34 27.5t41 12.5q27 0 44.5 -16.5t17.5 -43.5q0 -21 -11.5 -37t-29 -27t-38 -18.5t-38.5 -11.5q32 -26 47.5 -63t15.5 -77q0 -43 -13.5 -78t-38 -59.5
t-58 -37.5t-73.5 -13q-16 0 -32 2l-32 4t-31.5 4t-32.5 2q-15 0 -30.5 -2t-30.5 -4q-16 -2 -31 -4t-31 -2q-42 0 -74.5 15.5t-54.5 43.5t-33.5 65t-11.5 81z" />
    <glyph glyph-name="quotesingle" unicode="'" horiz-adv-x="184" 
d="M44 619q-1 6 -1.5 12t-0.5 12q0 15 1.5 29t6.5 25.5t15 18t27 6.5t27 -6.5t15 -18t6.5 -25.5t1.5 -29q0 -6 -0.5 -12t-1.5 -12l-16 -156q-2 -14 -7.5 -28t-24.5 -14t-24.5 14t-7.5 28z" />
    <glyph glyph-name="parenleft" unicode="(" horiz-adv-x="444" 
d="M307 612q-8 0 -13.5 -11.5t-13.5 -30.5q-17 -38 -31.5 -91t-25 -110.5t-17 -114.5t-6.5 -103q0 -35 5 -74t19 -75t38.5 -64.5t64.5 -42.5q25 -9 39 -15t21 -11.5t8.5 -11t1.5 -12.5q0 -19 -14.5 -27t-30.5 -8q-15 0 -28 2t-25 2q-11 0 -25 -2t-28 -2q-31 0 -55 16t-42 42
t-30.5 58.5t-20 65.5t-11 64t-3.5 53q0 67 16.5 148t43 163.5t60.5 159t69 133.5q6 6 14.5 7.5t16.5 1.5q9 0 18 -2t18 -2q11 0 22.5 2t23.5 2q11 0 19 -1.5t8 -9.5q0 -5 -4 -18.5t-10 -28.5t-12.5 -28.5t-11.5 -18.5t-18 -5h-50z" />
    <glyph glyph-name="parenright" unicode=")" horiz-adv-x="444" 
d="M87 612q-13 0 -18 5t-11.5 18.5t-12.5 28.5t-10 28.5t-4 18.5q0 8 8 9.5t19 1.5q12 0 23.5 -2t22.5 -2q9 0 18 2t18 2q8 0 16.5 -1.5t14.5 -7.5q35 -57 69 -133.5t60.5 -159t43 -163.5t16.5 -148q0 -22 -3.5 -53t-11 -64t-20 -65.5t-30.5 -58.5t-42 -42t-55 -16
q-14 0 -28 2t-25 2q-12 0 -25 -2t-28 -2q-16 0 -30.5 8t-14.5 27q0 7 1.5 12.5t8.5 11t21 11.5t39 15q40 14 64.5 42.5t38.5 64.5t19 75t5 74q0 46 -6.5 103t-17 114.5t-25.5 110.5t-31 91q-8 19 -13.5 30.5t-13.5 11.5h-50z" />
    <glyph glyph-name="asterisk" unicode="*" horiz-adv-x="315" 
d="M158 722q10 -6 25 -18t15 -26q0 -17 -10 -34t-15 -33q-2 -9 -3 -20.5t-1 -19.5q14 7 22 16q14 10 21.5 21t14.5 20q8 9 16.5 15.5t25.5 6.5q10 0 20.5 -5.5t17.5 -9.5q0 -13 -0.5 -25t-5.5 -20q-5 -9 -14.5 -15t-23.5 -6q-12 0 -22 0.5t-20 0.5q-11 -5 -21.5 -9t-18.5 -9
q18 -11 37 -16.5t40 -5.5q14 0 24 -6.5t15 -16.5q5 -11 5.5 -23.5t2.5 -24.5q-11 -2 -21 -6.5t-21 -4.5q-23 0 -46 34q-6 12 -17 24.5t-31 23.5q0 -8 1 -19t3 -20q5 -17 15 -34.5t10 -32.5q0 -14 -15 -26t-25 -19q-10 7 -25 19t-15 26q0 15 10 32.5t15 34.5q2 9 3 20t1 19
q-20 -11 -31 -23.5t-17 -24.5q-23 -34 -46 -34q-11 0 -21 4.5t-21 6.5q2 12 2.5 24.5t5.5 23.5q5 10 15 16.5t24 6.5q21 0 40 5.5t37 16.5q-8 5 -18.5 9t-21.5 9q-10 0 -20 -0.5t-22 -0.5q-14 0 -23.5 6t-14.5 15q-5 8 -5.5 20t-1.5 25q8 4 18.5 9.5t20.5 5.5
q17 0 25.5 -6.5t16.5 -15.5q7 -9 14.5 -20t21.5 -21q5 -5 10.5 -9t11.5 -7q0 8 -1 19.5t-3 20.5q-5 16 -15 33t-10 34q0 14 15 26t25 18z" />
    <glyph glyph-name="plus" unicode="+" horiz-adv-x="600" 
d="M350 301h156q17 0 31.5 -14.5t14.5 -35.5q0 -23 -14.5 -35.5t-31.5 -12.5h-156v-157q0 -17 -14.5 -31.5t-35.5 -14.5q-23 0 -35.5 14.5t-12.5 31.5v157h-158q-17 0 -31.5 12.5t-14.5 35.5q0 21 14.5 35.5t31.5 14.5h158v157q0 17 12.5 31.5t35.5 14.5q21 0 35.5 -14.5
t14.5 -31.5v-157z" />
    <glyph glyph-name="comma" unicode="," horiz-adv-x="296" 
d="M157 116q27 0 44 -17.5t17 -49.5q0 -41 -17.5 -61t-49.5 -24q-10 -2 -20.5 -3t-20.5 -3t-18.5 -6t-13.5 -12q3 21 15.5 29t26.5 14q14 5 26.5 12t16.5 24q-9 -3 -17 -3q-19 0 -31.5 11.5t-12.5 35.5q0 26 15 39.5t40 13.5z" />
    <glyph glyph-name="hyphen" unicode="-" horiz-adv-x="389" 
d="M337 304q11 0 20 -9.5t9 -23.5q0 -15 -9 -23t-20 -8h-285q-11 0 -20 8t-9 23q0 14 9 23.5t20 9.5h285z" />
    <glyph glyph-name="period" unicode="." horiz-adv-x="296" 
d="M78 55q0 27 19.5 44.5t50.5 16.5q31 0 50.5 -16.5t19.5 -44.5t-19.5 -44.5t-50.5 -16.5t-50.5 16.5t-19.5 44.5z" />
    <glyph glyph-name="slash" unicode="/" horiz-adv-x="500" 
d="M416 704q12 18 39 18q16 0 29 -11.5t13 -27.5q0 -7 -2.5 -13t-5.5 -11l-406 -647q-12 -18 -38 -18q-17 0 -29.5 11.5t-12.5 27.5q0 12 7 24z" />
    <glyph glyph-name="zero" unicode="0" horiz-adv-x="592" 
d="M44 293q0 89 11.5 161.5t40 124t77.5 79.5t124 28q41 0 69.5 -7.5t46 -18t25.5 -23t8 -21.5q0 -8 -1.5 -17t-5.5 -18q23 -6 43 -22.5t34.5 -46t23 -73.5t8.5 -107q0 -73 -9.5 -135t-31 -107t-57.5 -70.5t-89 -25.5q-20 0 -38 3t-35 3q-18 0 -36 -3t-36 -3q-42 0 -74 21
t-53.5 60t-33 94t-11.5 124zM460 374q0 72 -15 109.5t-32 37.5q-14 0 -23.5 -6t-23.5 -6t-24 8.5t-10 21.5q0 11 5 17.5t11 11.5t11 11.5t5 17.5q0 12 -6.5 20t-17 13.5t-23.5 7.5t-26 2q-36 0 -63 -13.5t-46 -45t-28.5 -84t-9.5 -130.5q0 -42 5.5 -83t22 -73t47 -51.5
t79.5 -19.5q51 0 82.5 21t49 54.5t24 75t6.5 83.5z" />
    <glyph glyph-name="one" unicode="1" horiz-adv-x="407" 
d="M291 118q0 -21 10.5 -33t23 -21t23 -17.5t10.5 -21.5q0 -8 -17.5 -19.5t-45.5 -11.5q-16 0 -32 3t-34 3q-21 0 -37.5 -3t-32.5 -3q-27 0 -45 11.5t-18 19.5q0 13 10.5 21.5t23 17.5t23 21t10.5 33v434q-17 -8 -31 -18t-28 -19t-27.5 -15t-28.5 -6q-19 0 -33.5 8.5
t-14.5 22.5q0 16 18 21q28 7 47.5 13t36.5 13.5t34 17t40 24.5q12 8 27 20t29 23.5t25.5 20t16.5 8.5q17 0 17 -26v-542z" />
    <glyph glyph-name="two" unicode="2" horiz-adv-x="592" 
d="M51 509q0 88 56 132.5t179 44.5q48 0 91.5 -9t76.5 -30t52.5 -54t19.5 -81q0 -44 -16.5 -77t-43.5 -59.5t-61.5 -48.5t-70 -42.5t-70 -42.5t-60.5 -49q-9 -9 -14.5 -16.5t-5.5 -14.5q0 -22 38 -22q20 0 42 3t45 3t45.5 -3t45.5 -3q26 0 35 11.5t9 51.5q0 17 13.5 29
t28.5 12q12 0 18.5 -4t10.5 -12q-9 -3 -13 -14.5t-4 -21.5q0 -9 9.5 -25t21.5 -35.5t21.5 -41t9.5 -41.5q0 -14 -12 -24.5t-29.5 -17t-37 -10t-33.5 -3.5q-38 0 -78 3t-81 3q-38 0 -77 -3t-72 -3q-21 0 -40.5 2t-34.5 7.5t-24 14t-9 21.5q0 35 26 70.5t65.5 71t85.5 72
t85.5 75t65.5 78t26 81.5q0 70 -35.5 108.5t-98.5 38.5q-20 0 -40 -4.5t-36 -15t-26.5 -27t-10.5 -40.5q0 -25 17 -45t48 -20q16 0 27.5 9t21 19.5t19 19.5t21.5 9q20 0 28 -16q-5 -1 -9 -6t-4 -11t2.5 -17.5t2.5 -25.5q0 -43 -33.5 -70t-83.5 -27q-65 0 -105 39.5
t-40 103.5z" />
    <glyph glyph-name="three" unicode="3" horiz-adv-x="592" 
d="M567 192q0 -32 -11 -66.5t-34 -64t-60.5 -48.5t-89.5 -19q-20 0 -42 3t-46 3q-30 0 -54 -3t-50 -3t-53 8t-50 24t-37.5 41t-14.5 58q0 47 26.5 74t63.5 29q34 1 50 -16q-12 -10 -12 -35q0 -18 17.5 -27.5t37.5 -9.5q19 0 34.5 1.5t30.5 1.5t31 -1.5t38 -1.5q13 0 26 5.5
t23.5 16.5t17 27.5t6.5 38.5q0 63 -36 99t-90 49q-19 5 -42.5 8.5t-44.5 7t-35 10t-14 17.5q0 16 27 26t84 30q36 12 63.5 21.5t46 20t28 23t9.5 29.5q0 21 -10.5 34.5t-26.5 21.5t-35.5 11.5t-36.5 3.5t-34 -2t-31 -5.5t-22.5 -9.5t-8.5 -14t10 -12.5t22.5 -9t22.5 -11.5
t10 -22q0 -6 -1.5 -12.5t-6.5 -13.5q-5 6 -10.5 11t-13.5 5q-11 0 -29.5 -4.5t-43.5 -4.5q-12 0 -27 3.5t-28.5 11.5t-23 20.5t-9.5 30.5q1 24 17.5 40.5t44.5 26.5t66.5 14t83.5 4q47 0 92 -5.5t80 -19t56 -36t21 -57.5q0 -33 -19.5 -54.5t-47 -35t-58.5 -20t-54 -10.5
q-40 -7 -68.5 -10t-28.5 -9q0 -8 26.5 -12.5t70.5 -14.5q44 -11 82 -27t65.5 -41t43.5 -60t16 -82z" />
    <glyph glyph-name="four" unicode="4" horiz-adv-x="592" 
d="M303 595q0 12 -4.5 19.5t-14.5 7.5q-13 0 -18.5 -8t-7.5 -19q-17 -83 -35 -136t-33 -86t-24.5 -52t-9.5 -35q0 -11 9.5 -16.5t24.5 -5.5q39 0 77.5 4t63.5 4q47 0 73 -2.5t46 -2.5q26 0 35 11t9 27q0 8 -2.5 15t-7.5 18l42 -14q26 -8 41 -24.5t15 -51.5q0 -48 -25.5 -76
t-67.5 -28q-29 0 -54.5 5t-61.5 5q-60 0 -121.5 -4t-113.5 -4q-12 0 -33.5 2t-42.5 9.5t-36.5 21.5t-15.5 38q0 10 14.5 33.5t36 54t46.5 65t46.5 68t36 62t14.5 47.5q0 18 -4.5 30t-10 22t-10 19t-4.5 20q0 12 6 20t21.5 13t41.5 7t66 2q31 0 61.5 -0.5t55 -3t39.5 -7.5
t15 -13q0 -5 -8 -11t-17 -13t-17 -15.5t-8 -17.5v-318q-16 2 -32 3.5t-33 1.5q-16 0 -31.5 -1.5t-31.5 -1.5v312zM303 136q17 2 33 3t33 1q18 0 33 -3t29 -4v-31q0 -9 11 -17t24.5 -16.5t25 -17.5t11.5 -19q0 -8 -10.5 -15t-24 -12t-27 -8t-19.5 -3q-13 0 -26 3t-26 3
q-15 0 -29.5 -3t-29.5 -3q-6 0 -19.5 3t-28 8t-25 12t-10.5 15q0 13 11.5 21t26 14.5t26 15t11.5 22.5v31z" />
    <glyph glyph-name="five" unicode="5" horiz-adv-x="592" 
d="M33 128q0 21 5.5 40.5t16.5 34.5t26.5 24.5t36.5 9.5q23 0 44 -8.5t24 -31.5q-8 0 -19.5 -5.5t-11.5 -27.5q0 -14 14.5 -19t28.5 -5q15 0 29.5 3.5t32.5 3.5q23 0 40.5 -3.5t33.5 -3.5q13 0 28 7t28 20.5t21 31.5t8 41q0 43 -14 76.5t-38 56t-56 34t-69 11.5
q-15 0 -30.5 -2t-30.5 -5q0 -17 -3.5 -34.5t-12 -31t-22.5 -22t-35 -8.5q-26 0 -36.5 16t-10.5 37q0 31 22 48.5t55 28.5q-1 30 -12.5 58t-25 51t-25 42t-11.5 31q0 23 16 34t45 11q32 0 62.5 -6t73.5 -6q17 0 38.5 2t44 4t44 4t38.5 2q23 0 39.5 -5t16.5 -28
q0 -16 -9.5 -33t-26.5 -30.5t-41 -22.5t-54 -9q-21 0 -40 4t-36 9q-35 9 -62 9q-15 0 -25 -6t-10 -28q0 -19 2 -37t4 -35q23 3 52 6.5t58 3.5q59 0 108 -18t84 -52t54 -83t19 -112q0 -46 -15 -84.5t-39 -66.5t-53.5 -44t-58.5 -16q-18 0 -34 1t-31 2q-29 3 -56 3
q-26 0 -50 -3l-24 -2t-24 -1q-25 0 -50 9t-45.5 26t-33 42t-12.5 57zM101 377q0 -8 4.5 -12t10.5 -4q25 0 25 25q0 5 -1 9t-2 9q-4 -1 -10 -3t-12 -5.5t-10.5 -8t-4.5 -10.5z" />
    <glyph glyph-name="six" unicode="6" horiz-adv-x="592" 
d="M40 308q0 37 4 77t13.5 78t24.5 73t38 64q18 23 36.5 37.5t40 22t47 10t56.5 2.5q21 0 55 -0.5t67 -3t56.5 -8t23.5 -15.5q0 -17 -8 -34.5t-21.5 -32t-32 -24t-40.5 -9.5q-32 0 -52 16.5t-43 39.5q-8 8 -19 13.5t-33 5.5q-19 0 -34.5 -8.5t-27.5 -22t-21 -29.5t-15 -32
q-5 -11 -9.5 -26t-7.5 -31.5t-5 -32t-2 -27.5q0 -8 0.5 -16.5t0.5 -16.5h2q9 20 25 39t39 33.5t53 23.5t68 9q48 0 90 -16t74 -47t50.5 -76.5t18.5 -103.5q0 -41 -11.5 -84.5t-35 -79.5t-59 -59t-83.5 -23q-6 0 -17 3t-44 3q-18 0 -29 -1t-18 -2t-11.5 -2t-10.5 -1
q-53 0 -89.5 28.5t-59.5 73.5t-33.5 100.5t-10.5 111.5zM162 275q0 -65 38.5 -100t101.5 -35q33 0 58 11.5t42 31t25.5 46.5t8.5 57t-9 55t-26.5 44t-42 29.5t-54.5 10.5q-69 0 -105.5 -42t-36.5 -108z" />
    <glyph glyph-name="seven" unicode="7" horiz-adv-x="536" 
d="M134 37q0 6 6 13t15 14t18.5 14.5t15.5 13.5q6 5 9 19.5t7 37t10 52t18 65.5q10 31 22 64.5t30 73t43.5 86.5t61.5 104l-2 2q-24 -22 -55.5 -34t-65.5 -12q-35 0 -64 8.5t-64 26.5l-2 -4q15 -19 28.5 -43.5t13.5 -48.5q0 -38 -18.5 -58t-39.5 -20q-17 0 -27.5 12.5
t-11.5 29.5q4 -2 7.5 -2h6.5q5 0 9 5.5t4 10.5q0 15 -12 32t-29 33q-9 8 -21 19t-23 24t-19 27t-8 29q0 12 9 19t22.5 10.5t29 4.5t28.5 1q30 0 75 -3t98 -3q27 0 71 6t89 6q15 0 30.5 -3.5t27.5 -9.5t20 -14t8 -17t-8.5 -19t-21 -23t-28.5 -31t-31 -43q-18 -31 -31 -74.5
t-20.5 -89.5t-11 -90t-3.5 -77q0 -40 3 -62t16 -36q8 -9 16.5 -16t15.5 -13t11.5 -11.5t4.5 -12.5q0 -15 -21 -25.5t-48 -10.5q-21 0 -38 3t-33 3q-17 0 -34.5 -3t-34.5 -3q-12 0 -25 3.5t-24 9t-18 13.5t-7 17z" />
    <glyph glyph-name="eight" unicode="8" horiz-adv-x="592" 
d="M296 440q13 0 32 5t37 17t31 31.5t13 49.5q0 22 -10.5 36.5t-27 23.5t-37 13t-41.5 4q-43 0 -74.5 -18.5t-31.5 -59.5q0 -26 13 -45.5t30.5 -32t36 -18.5t29.5 -6zM295 0q-25 0 -50.5 -3t-46.5 -3q-37 0 -65.5 14.5t-48 38.5t-29.5 55.5t-10 66.5q0 42 11.5 81.5t33 72.5
t52 59t69.5 41q-23 8 -46.5 21t-43 29.5t-32 37t-12.5 43.5q0 33 17 55.5t46.5 36.5t69 20t83.5 6q63 0 106 -9.5t70 -25.5t38.5 -37t11.5 -43q0 -26 -13 -47t-33 -37.5t-44 -29t-46 -20.5q35 -15 65 -41t52 -59t34.5 -72.5t12.5 -81.5q0 -35 -9 -66.5t-27.5 -55.5
t-48 -38.5t-71.5 -14.5q-20 0 -45 3t-51 3zM298 388q-35 0 -63 -11.5t-48 -30.5t-30.5 -44.5t-11.5 -53.5q0 -19 6 -35.5t16 -28.5t23 -19t27 -7q15 0 35 3t43 3q17 0 34 -3t34 -3q40 0 62 26t22 64q0 28 -12.5 53.5t-33 44.5t-47.5 30.5t-56 11.5z" />
    <glyph glyph-name="nine" unicode="9" horiz-adv-x="592" 
d="M36 494q0 44 14 78.5t45 58.5t78.5 36.5t115.5 12.5q83 0 135 -26.5t81.5 -71.5t40 -105t10.5 -127q0 -66 -10.5 -129.5t-36 -114t-67 -81.5t-104.5 -31q-11 0 -25 3t-37 3q-30 0 -56.5 -3t-47.5 -3q-22 0 -44 10t-39.5 27.5t-28.5 41.5t-11 51q0 26 8.5 45t20.5 31.5
t25 18.5t22 6q5 0 10.5 -1.5t10.5 -1.5q6 0 12.5 0.5t11.5 0.5q-10 -11 -15.5 -19t-5.5 -22q0 -16 12.5 -30t35.5 -14q19 0 35.5 2t32.5 2q15 0 34.5 -3t33.5 -3q29 0 53.5 18.5t42.5 49.5t28.5 71t10.5 84q0 12 -0.5 24t-1.5 24h-2q-35 -53 -85.5 -72.5t-111.5 -19.5
q-40 0 -81 10t-74.5 32t-54.5 55.5t-21 81.5zM444 509q0 29 -12.5 51.5t-33 37.5t-46 22.5t-51.5 7.5q-61 0 -96 -32.5t-35 -94.5q0 -26 11 -48.5t29 -39t41 -25.5t48 -9q29 0 55.5 8.5t46.5 25t31.5 40.5t11.5 56z" />
    <glyph glyph-name="colon" unicode=":" horiz-adv-x="296" 
d="M78 55q0 27 19.5 44.5t50.5 16.5q31 0 50.5 -16.5t19.5 -44.5t-19.5 -44.5t-50.5 -16.5t-50.5 16.5t-19.5 44.5zM78 411q0 27 19.5 44.5t50.5 16.5q31 0 50.5 -16.5t19.5 -44.5t-19.5 -44.5t-50.5 -16.5t-50.5 16.5t-19.5 44.5z" />
    <glyph glyph-name="semicolon" unicode=";" horiz-adv-x="296" 
d="M157 116q27 0 44 -17.5t17 -49.5q0 -41 -17.5 -61t-49.5 -24q-10 -2 -20.5 -3t-20.5 -3t-18.5 -6t-13.5 -12q3 21 15.5 29t26.5 14q14 5 26.5 12t16.5 24q-9 -3 -17 -3q-19 0 -31.5 11.5t-12.5 35.5q0 26 15 39.5t40 13.5zM78 411q0 27 19.5 44.5t50.5 16.5
q31 0 50.5 -16.5t19.5 -44.5t-19.5 -44.5t-50.5 -16.5t-50.5 16.5t-19.5 44.5z" />
    <glyph glyph-name="less" unicode="&#x3c;" horiz-adv-x="600" 
d="M74 208q-13 5 -20.5 17t-7.5 26v5q0 14 8 26t20 17l415 175q7 3 14 3q14 0 27 -8.5t20 -23.5q4 -9 4 -20q0 -15 -8 -26t-21 -16l-315 -130l315 -129q13 -5 21 -16t8 -26q0 -11 -4 -20q-7 -15 -20 -23t-27 -8q-8 0 -15 3z" />
    <glyph glyph-name="equal" unicode="=" horiz-adv-x="600" 
d="M506 408q17 0 31.5 -14.5t14.5 -35.5q0 -23 -14.5 -35.5t-31.5 -12.5h-412q-17 0 -31.5 12.5t-14.5 35.5q0 21 14.5 35.5t31.5 14.5h412zM506 193q17 0 31.5 -14.5t14.5 -35.5q0 -23 -14.5 -35.5t-31.5 -12.5h-412q-17 0 -31.5 12.5t-14.5 35.5q0 21 14.5 35.5t31.5 14.5
h412z" />
    <glyph glyph-name="greater" unicode="&#x3e;" horiz-adv-x="600" 
d="M112 34q-8 -3 -15 -3q-14 0 -27 8t-20 23q-4 9 -4 20q0 15 8 26t21 16l315 129l-315 130q-13 5 -21 16t-8 26q0 11 4 20q7 15 20 23.5t27 8.5q6 0 14 -3l415 -175q12 -5 20 -17t8 -26v-5q0 -14 -7.5 -26t-20.5 -17z" />
    <glyph glyph-name="question" unicode="?" horiz-adv-x="463" 
d="M156 155q-25 0 -31.5 12.5t-6.5 25.5q0 34 13.5 64t33.5 58t43.5 55t43.5 56t33.5 61t13.5 70q0 53 -22.5 86t-77.5 33q-43 0 -63.5 -26.5t-20.5 -64.5q0 -21 8.5 -40.5t28.5 -19.5q11 0 18.5 6.5t13.5 14.5t13.5 14.5t18.5 6.5q9 0 16.5 -4.5t13.5 -11.5
q-5 -2 -9.5 -5.5t-4.5 -9.5q0 -8 3.5 -15.5t3.5 -14.5q0 -21 -8.5 -36t-23.5 -25t-34.5 -15t-41.5 -5q-28 0 -51.5 10.5t-40 28.5t-25.5 42.5t-9 53.5q0 44 17 74.5t46 50t66.5 28.5t79.5 9q45 0 84 -11.5t67.5 -34t45 -56.5t16.5 -79q0 -41 -14.5 -71.5t-38 -54t-52.5 -43
t-59 -38.5q-14 -8 -30.5 -21t-31.5 -29t-25 -34t-10 -36q0 -19 18 -19h37q14 0 14 11q0 6 -5.5 15.5t-5.5 24.5q0 11 7 16.5t17 5.5q5 0 11.5 -1t11.5 -3q-9 -4 -7 -15q0 -2 5 -10t10.5 -18t10.5 -20.5t5 -18.5q0 -18 -12 -22.5t-28 -4.5h-99zM135 52q0 25 19 41.5t48 16.5
t48 -16.5t19 -41.5t-19 -41.5t-48 -16.5t-48 16.5t-19 41.5z" />
    <glyph glyph-name="at" unicode="@" horiz-adv-x="800" 
d="M505 418q0 33 -8.5 52t-31.5 19q-17 0 -37.5 -14t-38 -38t-29.5 -57t-12 -71q0 -41 13.5 -63t30.5 -22q18 0 36 11t33.5 34.5t27 60t16.5 88.5zM618 531l-59 -248q-2 -8 -2 -15v-14q0 -12 6.5 -27.5t23.5 -15.5q18 0 36.5 16t32.5 43t23 62.5t9 75.5q0 54 -18.5 98.5
t-53.5 77t-85 50.5t-112 18q-46 0 -92.5 -17t-84 -55.5t-61 -100t-23.5 -150.5q0 -56 21.5 -104.5t58 -84t86 -56t105.5 -20.5q70 0 118.5 15.5t89.5 38.5l10 -59q-48 -27 -101.5 -46t-115.5 -19q-103 0 -177.5 32t-122.5 82t-71 111.5t-23 120.5q0 89 29 160t80.5 120.5
t121.5 75.5t152 26q76 0 139 -22.5t109 -64t71.5 -99t25.5 -127.5q0 -40 -13 -84t-37.5 -81t-61 -61t-83.5 -24q-26 0 -44.5 9.5t-29.5 22.5t-16 25.5t-5 18.5h-2q-3 -6 -13 -18.5t-26 -24.5t-36.5 -21.5t-44.5 -10.5q-15 0 -33 5.5t-34 20.5t-26.5 39.5t-10.5 62.5
q0 34 13 78.5t39 84.5t65.5 68t92.5 28q18 0 29.5 -4.5t19 -11.5t12.5 -16l10 -18l10 34h79z" />
    <glyph glyph-name="A" unicode="A" horiz-adv-x="685" 
d="M514 716q28 0 51 -1.5t38.5 -8.5t24 -20t8.5 -37q0 -32 -27 -58.5t-68 -51.5l-318 -191q-40 -24 -64.5 -59.5t-24.5 -74.5q0 -8 1 -18.5t4.5 -20t11 -16t20.5 -6.5q11 0 18 4t9 4q4 0 4 -3q0 -2 -2 -5.5t-2 -11.5q0 -15 2 -27t2 -26q0 -45 -20.5 -69.5t-64.5 -24.5
q-26 0 -42 10.5t-25 26.5t-12.5 35.5t-3.5 37.5q0 39 12.5 88.5t31.5 102.5t41.5 105t43.5 96t37.5 75.5t22.5 43.5q18 34 18 44q0 7 -11.5 9t-29.5 2q-16 0 -27 -3t-11 -14q0 -24 35 -49l-28 -52q-22 13 -41.5 28t-34 30t-23 30t-8.5 30t8 24.5t21 14t30 6t35 1.5h358z
M174 378l2 -2l278 168q42 25 57 45.5t15 36.5q0 14 -6.5 26t-20.5 12q-13 0 -19 -8t-6 -20q0 -11 2.5 -23t5.5 -23q-26 -20 -53.5 -36.5t-55.5 -32.5l-17 66q-7 26 -15 39.5t-25 13.5q-11 0 -22 -12t-22.5 -31t-21.5 -41.5t-19 -43.5zM502 490l63 -291q7 -34 12.5 -54
t10 -31.5t8.5 -16t8 -6.5q4 -3 17.5 -11t27 -17.5t24.5 -20t11 -18.5t-7 -14t-17.5 -9.5t-22 -5t-20.5 -1.5q-19 0 -40 3t-42 3q-26 0 -48.5 -3t-44.5 -3q-8 0 -18.5 2t-19.5 5.5t-15.5 8.5t-6.5 12q0 14 12 24t26.5 18.5t26.5 16t12 15.5q0 5 -2.5 19.5t-5.5 32t-6.5 36
t-6.5 30.5l-43 212z" />
    <glyph glyph-name="B" unicode="B" horiz-adv-x="667" 
d="M133 517l128 -61v-263q0 -20 5 -31.5t12.5 -17.5t16 -8t15.5 -2q10 0 19 1t19 1q8 0 17 -1t17 -1q19 0 36.5 6t30.5 20.5t20.5 39t7.5 61.5t-11 65.5t-28.5 50t-39.5 36.5t-43 24l-204 91q-50 22 -83 40t-52.5 33t-27 29t-7.5 30q0 17 10 28t25.5 17t35.5 8.5t41 2.5h345
q74 0 112 -21t38 -69q0 -26 -12 -49.5t-31 -44t-41 -38t-41 -29.5q86 -35 126 -106t40 -162q0 -54 -16.5 -93.5t-44 -65t-62.5 -38t-72 -12.5q-14 0 -28 2t-31 4t-39.5 4t-52.5 2q-35 0 -75 -3t-82 -3q-8 0 -25 2t-34.5 6.5t-31 11t-13.5 15.5q0 17 25.5 32t85.5 44v412z
M261 553q-35 16 -71 30.5t-57 30.5q0 14 -2.5 26t-19.5 12q-20 0 -20 -27q0 -11 21.5 -25.5t54 -30t72.5 -30t77 -27t66.5 -21t41.5 -11.5q23 23 35.5 45.5t12.5 57.5q0 26 -9 42t-25.5 24.5t-40 11.5t-52.5 3q-43 0 -63.5 -8t-20.5 -34v-69z" />
    <glyph glyph-name="C" unicode="C" horiz-adv-x="648" 
d="M373 -6q-75 0 -135.5 26t-103 72t-65 109t-22.5 136q0 89 26 160.5t69 121.5t99 76.5t116 26.5q48 0 90 -11t73.5 -32t49.5 -52t18 -70q0 -32 -11 -56t-30 -40t-44.5 -24.5t-54.5 -8.5q-34 0 -57.5 11.5t-37.5 27.5t-20.5 34t-6.5 32q0 18 -7 27t-15 9q-14 0 -14 -13
q0 -5 4 -13q-3 -4 -10 -7t-15 -3q-21 0 -29 11t-8 28q0 23 17.5 36t37.5 13q24 0 38 -10t25.5 -22.5t23 -22.5t31.5 -10q24 0 36.5 15.5t12.5 33.5q0 20 -9 33.5t-24 22t-34.5 12t-39.5 3.5q-49 0 -87 -22t-64.5 -58.5t-40.5 -85t-14 -100.5q0 -66 24 -117.5t61.5 -86.5
t84.5 -53.5t93 -18.5q27 0 55.5 4.5t53.5 16t44 30.5t27 48q21 -3 34.5 -25.5t13.5 -61.5q0 -36 -20.5 -64.5t-56 -48t-82.5 -29.5t-100 -10z" />
    <glyph glyph-name="D" unicode="D" horiz-adv-x="667" 
d="M260 267q0 -11 4.5 -18t9.5 -11t9.5 -7.5t4.5 -9.5q0 -7 -7.5 -11.5t-20.5 -11t-31 -17.5t-38 -30q20 -7 44 -9t52 -2q54 0 95.5 14t70 44.5t43 79t14.5 118.5q0 61 -14.5 111.5t-41.5 86.5t-64 56t-82 20q-13 0 -24.5 -3t-23.5 -6v-106l-128 61q0 6 -0.5 14t-2.5 15.5
t-6.5 13t-12.5 5.5q-14 0 -19 -7.5t-5 -16.5q0 -19 21 -34.5t52.5 -30.5t68 -30t68 -33t52.5 -39t21 -48q0 -21 -7 -33.5t-20.5 -20t-34 -11t-47.5 -5.5v-88zM132 520l64 -32t64 -36v-63q12 3 16.5 15.5t4.5 29.5q0 23 -22 41.5t-54.5 35.5t-71 33.5t-71 35t-54.5 40
t-22 49.5q0 18 8 27.5t22 14t32.5 5t39.5 0.5q26 0 53 -1t53 -1q29 0 57.5 1t57.5 1q84 0 143.5 -33t96.5 -88.5t54 -127.5t17 -150q0 -69 -20.5 -128t-58 -102.5t-89.5 -68t-116 -24.5q-27 0 -58.5 3t-57.5 3q-32 0 -59.5 -3t-55.5 -3q-9 0 -27 1.5t-36.5 6t-32 13.5
t-13.5 23q0 12 10 25t25 26t33 26.5t33 26t25 24.5t10 24v330z" />
    <glyph glyph-name="E" unicode="E" horiz-adv-x="611" 
d="M108 562q0 18 -3.5 29t-11 19t-19.5 15t-28 17q-17 11 -27 17.5t-10 16.5q0 20 36 30t103 10h291q65 0 99 -9.5t34 -33.5q0 -18 -22 -38.5t-54.5 -41t-70.5 -41t-70.5 -37.5t-54.5 -30.5t-22 -20.5q0 -8 9 -8q7 0 17.5 4t23.5 9t29 9t35 4q15 0 31.5 -4t31 -12.5t24 -21
t9.5 -30.5q0 -20 -10 -37.5t-32 -20.5q2 6 2 10q0 6 -5 11t-18 5q-14 0 -31 -4t-35 -9t-36.5 -9t-36.5 -4q-30 0 -51.5 20t-21.5 49q0 20 15 40.5t37 39t48.5 36.5t48.5 33.5t37 29t15 24.5q0 23 -24.5 29.5t-66.5 6.5q-45 0 -66 -9.5t-21 -48.5v-101q-20 -16 -33.5 -37.5
t-13.5 -48.5q0 -25 16.5 -44t30.5 -30v-138q0 -26 12.5 -42t36.5 -24t58.5 -10.5t77.5 -2.5q20 0 40 1t36.5 6.5t28.5 16t16 29.5q28 -11 42 -35t14 -53q0 -49 -35.5 -74t-95.5 -25q-39 0 -80 3t-89 3q-26 0 -54 -1t-54.5 -2t-49.5 -2t-38 -1q-17 0 -34 4t-31.5 10
t-23.5 13.5t-9 15.5q0 12 16 22.5t35.5 21.5t36 23.5t16.5 27.5v430z" />
    <glyph glyph-name="F" unicode="F" horiz-adv-x="556" 
d="M228 114q0 -16 15.5 -26.5t34.5 -19.5t34.5 -18.5t15.5 -23.5q0 -9 -8.5 -15t-19.5 -9.5t-22 -5.5t-16 -2q-24 0 -53.5 3t-46.5 3q-23 0 -49.5 -3t-39.5 -3q-10 0 -21 1.5t-20.5 4.5t-15.5 8t-6 11q0 16 14 26t31 20.5t31 25.5t14 42v429q0 18 -3.5 29t-11 19t-19.5 15
t-28 17q-17 11 -27 17.5t-10 16.5q0 20 36 30t103 10h291q65 0 99 -9.5t34 -33.5q0 -18 -22 -38.5t-54.5 -41t-70.5 -41t-70.5 -37.5t-54.5 -30.5t-22 -20.5q0 -8 9 -8q7 0 17.5 4t23.5 9t29 9t35 4q15 0 31.5 -4t31 -12.5t24 -21t9.5 -30.5q0 -20 -10 -37.5t-32 -20.5
q2 6 2 10q0 6 -5 11t-18 5q-14 0 -31 -4t-35 -9t-36.5 -9t-36.5 -4q-30 0 -51.5 20t-21.5 49q0 20 15 40.5t37 39t48.5 36.5t48.5 33.5t37 29t15 24.5q0 23 -24.5 29.5t-66.5 6.5q-45 0 -66 -9.5t-21 -48.5v-101q-20 -16 -33.5 -37.5t-13.5 -48.5q0 -25 16.5 -44t30.5 -30
v-231z" />
    <glyph glyph-name="G" unicode="G" horiz-adv-x="685" 
d="M597 113q0 -16 8 -26t17 -18.5t17 -17t8 -21.5q0 -8 -14.5 -14.5t-33.5 -11t-36.5 -7.5t-23.5 -3q-32 0 -56.5 3t-48.5 3q-39 0 -67.5 -3t-48.5 -3q-62 0 -112.5 29t-85.5 76.5t-54 109t-19 126.5q0 68 15 137t52 124.5t100 90.5t160 35q64 0 108 -2t70 -8.5t37.5 -19
t11.5 -32.5q-2 -15 -8 -25.5t-24 -22.5t-51 -28.5t-88 -43.5q-57 -29 -88 -50t-31 -35q0 -7 4 -16t4 -24q0 -25 -15.5 -36t-35.5 -11t-34.5 15t-14.5 39q0 18 10.5 33t28.5 29t42.5 29t53.5 33q14 8 32 18t33.5 21t26.5 22t11 22q0 10 -7.5 17t-18.5 11t-24 5.5t-24 1.5
q-116 0 -171 -66.5t-55 -183.5q0 -49 9.5 -96.5t31.5 -85.5t56.5 -61.5t84.5 -23.5q35 0 59 2.5t38.5 8t20.5 15t6 23.5v141q0 12 -9.5 22.5t-21 20.5t-21 19t-9.5 17q0 14 14 17.5t29 3.5q18 0 41 -2.5t50 -2.5q21 0 39 2.5t35 2.5q4 0 13 -0.5t18 -3t16 -6t7 -9.5
q0 -10 -10.5 -18t-23 -17t-23 -21.5t-10.5 -31.5v-217z" />
    <glyph glyph-name="H" unicode="H" horiz-adv-x="648" 
d="M248 104q0 -8 14 -17.5t31 -19.5t31 -20.5t14 -19.5t-8 -15t-19 -10t-23 -6t-21 -2q-15 0 -36 3t-49 3q-26 0 -47.5 -3t-33.5 -3q-9 0 -22 2t-25 6t-21 10t-9 15t15 20t33 21.5t33 20t15 15.5v416q32 -10 68 -19.5t60 -20.5v-376zM464 716q17 0 33 -1t28 -5.5t19 -14
t7 -26.5q0 -11 -4 -18.5t-8.5 -13t-8.5 -10.5t-4 -11q0 -10 4.5 -14.5t4.5 -5.5q-5 -3 -11 -5.5t-14 -2.5q-26 0 -40 15t-28 34q-11 14 -35 17.5t-53 3.5h-74q-20 0 -26 -9t-6 -20v-46q-32 6 -64.5 13.5t-63.5 20.5q0 4 -0.5 10.5t-2 13.5t-6 12t-11.5 5q-9 0 -14 -8t-5 -19
q0 -10 13.5 -22t48.5 -24t94.5 -24t151.5 -23q41 -5 79 -21.5t67.5 -43.5t47.5 -64.5t18 -83.5q0 -70 -20.5 -129.5t-45.5 -107.5q-25 -49 -45.5 -86t-20.5 -62q0 -13 6 -23.5t16 -10.5q11 0 19.5 3t22.5 3q17 0 29.5 -13.5t12.5 -30.5q0 -12 -7 -23t-21 -18q-1 6 -6 9
t-11 3q-16 0 -27 -4.5t-22 -4.5q-39 0 -60.5 25t-21.5 63q0 31 10.5 64.5t23.5 71.5t23.5 82t10.5 98q0 71 -17 118.5t-53 80t-92 54.5t-133 43q-28 7 -61 18.5t-62 27.5t-48.5 37t-19.5 48q2 35 18 45t51 10h414z" />
    <glyph glyph-name="I" unicode="I" horiz-adv-x="500" 
d="M264 513q0 15 -6.5 24.5t-14.5 16t-14.5 11t-6.5 10.5q0 11 8.5 16t22.5 9l84 22q17 5 26 10t9 14q0 11 -36 14.5t-96 3.5q-33 0 -53 -2t-30.5 -5t-13.5 -7.5t-3 -8.5q0 -7 8 -15.5t17.5 -18.5t17.5 -21.5t8 -25.5q0 -27 -20 -40.5t-52 -13.5q-41 0 -52 40q8 0 16 2.5
t8 12.5t-12.5 21t-27 23.5t-27 27t-12.5 32.5q0 19 21 29t54 15t74 6t80 1q16 0 40.5 -0.5t53 -2.5t57 -5.5t51 -8.5t37 -13t14.5 -18q0 -20 -15 -30t-33 -18t-33 -20t-15 -37v-377q0 -23 6 -30t13.5 -11.5t13.5 -13.5t6 -35q0 -27 -16 -46.5t-45 -31.5t-69 -18t-87 -6
q-35 0 -72.5 2.5t-69 13.5t-52 32t-20.5 59q0 32 13.5 52t29.5 33.5t29.5 23t13.5 19.5q0 11 -4 18q4 1 8 1.5t11 0.5q10 0 20.5 -5t10.5 -20q0 -11 -3 -21t-3 -33t16 -32.5t46 -9.5q25 0 39 8.5t21 22t8.5 30t1.5 33.5v291z" />
    <glyph glyph-name="J" unicode="J" horiz-adv-x="500" 
d="M264 513q0 15 -6.5 24.5t-14.5 16t-14.5 11t-6.5 10.5q0 11 8.5 16t22.5 9l84 22q17 5 26 10t9 14q0 11 -36 14.5t-96 3.5q-33 0 -53 -2t-30.5 -5t-13.5 -7.5t-3 -8.5q0 -7 8 -15.5t17.5 -18.5t17.5 -21.5t8 -25.5q0 -27 -20 -40.5t-52 -13.5q-41 0 -52 40q8 0 16 2.5
t8 12.5t-12.5 21t-27 23.5t-27 27t-12.5 32.5q0 19 21 29t54 15t74 6t80 1q16 0 40.5 -0.5t53 -2.5t57 -5.5t51 -8.5t37 -13t14.5 -18q0 -20 -15 -30t-33 -18t-33 -20t-15 -37v-507q0 -23 6 -30t13.5 -11.5t13.5 -13.5t6 -35q0 -27 -16 -46.5t-45 -31.5t-69 -18t-87 -6
q-35 0 -72.5 2.5t-69 13.5t-52 32t-20.5 59q0 32 13.5 52t29.5 33.5t29.5 23t13.5 19.5q0 11 -4 18q4 1 8 1.5t11 0.5q10 0 20.5 -5t10.5 -20q0 -11 -3 -21t-3 -33t16 -32.5t46 -9.5q25 0 39 8.5t21 22t8.5 30t1.5 33.5v421z" />
    <glyph glyph-name="K" unicode="K" horiz-adv-x="685" 
d="M242 716q17 0 35.5 -1.5t34 -5.5t25.5 -11t10 -17q0 -12 -15 -21.5t-33.5 -21.5t-33.5 -28.5t-15 -43.5v-35q-41 17 -77 37t-53 33q0 17 -2 31t-16 14q-8 0 -13.5 -5.5t-5.5 -17.5q0 -21 28 -43.5t66 -41.5t76.5 -31.5t59.5 -15.5q18 6 40.5 20t43 33t34 40.5t13.5 43.5
q0 17 -4 34t-4 32q0 8 5 15t16 7h150q12 0 20 -5.5t8 -15.5q0 -11 -14 -18t-37 -21q-26 -15 -49 -40t-47 -51.5t-51.5 -50t-60.5 -36.5v-2q49 -5 79 -32.5t47.5 -67t27 -85t18 -87t19.5 -73.5t33 -43q14 -7 29.5 -15t29 -16.5t22.5 -17t9 -16.5q0 -16 -19 -22.5t-43 -6.5
q-23 0 -42.5 3t-42.5 3q-29 0 -46.5 -3t-28.5 -3q-23 0 -29.5 17t-11.5 52q-15 114 -32.5 185t-38.5 113t-45.5 62.5t-53.5 32.5q-87 37 -139 69t-79.5 58.5t-35.5 47t-8 35.5q0 21 21.5 35.5t75.5 14.5h150zM120 495q23 -14 58 -28.5t70 -27.5v-325q0 -16 15.5 -26.5
t34.5 -19.5t34.5 -18.5t15.5 -23.5q0 -9 -8.5 -15t-19.5 -9.5t-22 -5.5t-16 -2q-15 0 -26.5 1t-22 2t-22.5 2t-29 1q-38 0 -56.5 -3t-32.5 -3q-10 0 -21 1.5t-20.5 4.5t-15.5 8t-6 11q0 16 14 26t31 20.5t31 25.5t14 42v362z" />
    <glyph glyph-name="L" unicode="L" horiz-adv-x="574" 
d="M120 617q0 21 -11 30.5t-24.5 15.5t-24.5 12.5t-11 21.5q0 14 12.5 16.5t27.5 2.5h156q29 0 47 -2.5t18 -14.5q0 -10 -9.5 -17t-21.5 -14.5t-21.5 -17.5t-9.5 -25v-390q0 -7 6 -11t13.5 -8.5t14 -10t6.5 -14.5t-15 -17t-38 -16q-20 -6 -51 -19t-60.5 -28t-51 -29.5
t-21.5 -24.5q0 -8 13 -9.5t24 -1.5q35 0 78.5 16.5t89.5 36.5q47 20 91.5 36.5t82.5 16.5q12 0 23.5 -2.5t16.5 -2.5q10 0 10 7q0 8 -14 28t-30.5 43t-30 46t-13.5 37q0 19 5 29t11 16.5t11 13.5t6 21q6 -7 16.5 -11.5t20.5 -10.5t17 -15t7 -24q0 -9 -1.5 -14.5t-4 -10.5
t-4 -10.5t-1.5 -13.5q0 -11 7.5 -29.5t18.5 -40.5t23.5 -45t23.5 -43.5t18.5 -37t7.5 -23.5q0 -16 -16.5 -28t-38.5 -20.5t-45 -12.5t-36 -4q-15 0 -35 3t-44 6q-23 3 -48.5 6t-51.5 3q-10 0 -27.5 -3t-39.5 -6t-46 -6t-48 -3q-19 0 -39.5 2.5t-38 8.5t-28.5 16.5t-11 26.5
q0 17 21.5 35.5t48 39t48 43t21.5 46.5v405z" />
    <glyph glyph-name="M" unicode="M" horiz-adv-x="981" 
d="M153 547q-53 26 -86 50.5t-33 59.5q0 15 7 26t18 18.5t24.5 11t27.5 3.5h799q36 0 57.5 -12t21.5 -47q0 -22 -13.5 -41.5t-33 -35.5t-42.5 -28t-41 -18l-15 50q14 4 29.5 14.5t15.5 27.5q0 19 -10 24.5t-27 5.5q-20 0 -31.5 -4t-11.5 -12q0 -4 6.5 -27t16.5 -61t22 -87.5
t22 -105.5t16.5 -116.5t6.5 -118.5q0 -40 -2.5 -65t-7.5 -39.5t-14 -20t-21 -5.5q-17 0 -34.5 3t-34.5 3q-15 0 -31 -3t-34 -3q-11 0 -23 0.5t-22.5 3t-17.5 7t-7 12.5q0 6 9.5 15t23 19t28 20t25.5 18q9 7 15 14t9 19t4 31t1 49q0 22 -3 63.5t-10.5 91.5t-19.5 102
t-30 94.5t-42.5 69.5t-55.5 27q-21 0 -32.5 -10t-17 -26t-6.5 -36t-1 -39q-32 0 -65 0.5t-63 4.5q0 21 -2.5 41.5t-9.5 36t-20.5 25t-36.5 9.5q-25 0 -48.5 -21.5t-44 -56t-37 -77.5t-28 -86.5t-18 -83t-6.5 -66.5q0 -65 8.5 -108.5t40.5 -60.5q38 -21 64 -40.5t26 -28.5
q0 -10 -6.5 -15.5t-15.5 -8t-19 -3t-17 -0.5q-15 0 -31.5 3t-37.5 3q-22 0 -34.5 -3t-29.5 -3q-10 0 -17 4.5t-11 19.5t-6 43t-2 75q0 109 22 199t48 155t48 102.5t22 43.5q0 8 -12 10t-23 2q-20 0 -30.5 -6.5t-10.5 -14.5q0 -14 12.5 -23.5t19.5 -11.5zM268 557
q24 -9 52 -16t56.5 -11t56 -6t50.5 -2q60 0 112 3.5t94 9.5l15 -40q-55 -6 -109 -9.5t-108 -3.5q-83 0 -139 11t-97 24zM419 468q14 -2 30.5 -3t33.5 -1t34 0.5t30 1.5v-362q0 -11 12 -21t27 -21t27 -22.5t12 -23.5q0 -8 -9.5 -12t-21.5 -6.5t-24.5 -3t-18.5 -0.5
q-15 0 -34.5 3t-45.5 3q-17 0 -37 -3t-37 -3q-6 0 -17 0.5t-21 3.5t-17.5 9t-7.5 16q0 11 13.5 20.5t29 20t29 22t13.5 27.5v355z" />
    <glyph glyph-name="N" unicode="N" horiz-adv-x="759" 
d="M129 573v26q0 17 -3 29t-19 12q-14 -2 -19 -12.5t-5 -21.5q0 -31 26 -47l252 -155q25 -16 41.5 -28t25.5 -22.5t12.5 -20.5t3.5 -23q0 -26 -19.5 -41.5t-45.5 -15.5q-23 0 -41.5 16t-27.5 36q11 2 22.5 6t11.5 15q0 8 -8.5 16.5t-37.5 25.5l-246 151q-25 15 -41 41.5
t-16 57.5t12.5 51t32.5 32t45 16.5t50 4.5q37 0 73 -1.5t73 -1.5t73 1.5t73 1.5q58 0 105.5 -12t81.5 -37.5t52.5 -66t18.5 -96.5q0 -59 -22 -106.5t-48 -86.5t-48 -70.5t-22 -57.5q0 -14 9 -25t25 -11q20 0 39.5 7t45.5 7q16 0 30 -6.5t24 -17t15.5 -24t5.5 -27.5
q0 -33 -7.5 -56.5t-27.5 -41.5q-5 8 -17 13q-10 5 -17 5q-11 0 -22 -2.5t-23 -6.5q-11 -4 -24.5 -6.5t-29.5 -2.5q-21 0 -40 9t-32.5 25t-21.5 37.5t-8 47.5q0 57 9 99t20 84q10 42 19.5 88.5t9.5 108.5q0 37 -13 67t-35 50t-49.5 31t-57.5 11h-74q-16 0 -28.5 -5t-12.5 -20
v-131zM257 366v-252q0 -14 15.5 -25.5t34.5 -21.5t34.5 -19.5t15.5 -20.5q0 -9 -8.5 -15.5t-20.5 -10t-25 -5.5t-21 -2q-23 0 -43 3t-46 3t-46 -3t-43 -3q-8 0 -21 2t-25 5.5t-20.5 10t-8.5 15.5q0 11 15.5 20.5t34.5 19.5t34.5 21.5t15.5 25.5v330z" />
    <glyph glyph-name="O" unicode="O" horiz-adv-x="666" 
d="M47 344q0 69 16 136.5t51 121.5t90.5 87t134.5 33q73 0 126 -29t87.5 -79.5t50.5 -119.5t16 -149q0 -48 -12 -108.5t-36 -114.5t-60.5 -91t-85.5 -37q-17 0 -30 1t-24 2q-11 2 -20.5 2.5t-21.5 0.5q-18 0 -37 -3q-10 -1 -21 -2t-25 -1q-39 0 -75 29.5t-63.5 78t-44 111.5
t-16.5 131zM341 670q-59 0 -96.5 -27t-59 -66.5t-30 -84.5t-8.5 -82q0 -13 1 -31t3 -36.5t6 -37t10 -33.5h1q7 56 30.5 91.5t54.5 59t64.5 39.5t61.5 32.5t46.5 38.5t18.5 58q0 21 -8.5 36t-23 24.5t-33 14t-38.5 4.5zM213 252q0 -58 35.5 -81.5t97.5 -23.5q49 0 82 23
t53 58.5t29 78.5t9 82q0 45 -4.5 89.5t-27.5 84.5h-1h-2q-3 -40 -24.5 -65.5t-51.5 -44.5t-64.5 -35t-63.5 -37.5t-48 -51.5t-19 -77z" />
    <glyph glyph-name="P" unicode="P" horiz-adv-x="648" 
d="M107 588q0 21 -13 35t-29 23.5t-29 17.5t-13 19q0 20 65.5 26.5t199.5 6.5q64 0 123.5 -14t105.5 -45t73 -81t27 -121q0 -46 -15 -84t-43 -65.5t-69 -42.5t-92 -15q-42 0 -74 11.5t-53 30t-32 42t-11 46.5t6 34.5t14 19.5l14 14t6 17q0 5 -2 7.5t-4 4.5q7 3 15.5 4.5
t14.5 1.5q26 0 42 -15.5t16 -34.5q0 -23 9 -36t35 -13q25 0 41 10t25.5 26.5t13 38t3.5 43.5q0 38 -14.5 68.5t-38.5 51.5t-55 32.5t-65 11.5q-32 0 -50.5 -6.5t-18.5 -28.5v-176q-14 -16 -23.5 -33t-9.5 -40q0 -29 8 -48.5t25 -36.5v-176q0 -13 15 -24.5t32.5 -22
t32.5 -21.5t15 -23q0 -8 -7 -14.5t-17.5 -11t-22 -6.5t-21.5 -2q-20 0 -38.5 3t-41.5 3q-29 0 -51 -3t-43 -3q-7 0 -19 2t-23.5 6t-20 10.5t-8.5 15.5q0 11 14 21.5t31 20.5t31 21t14 24v473z" />
    <glyph glyph-name="Q" unicode="Q" horiz-adv-x="666" 
d="M47 344q0 69 16 136.5t51 121.5t90.5 87t134.5 33q73 0 126 -29t87.5 -79.5t50.5 -119.5t16 -149q0 -48 -12 -108.5t-36 -114.5t-60.5 -91t-85.5 -37q-17 0 -30 1t-24 2q-11 2 -20.5 2.5t-21.5 0.5q-18 0 -37 -3q-10 -1 -21 -2t-25 -1q-39 0 -75 29.5t-63.5 78t-44 111.5
t-16.5 131zM341 670q-59 0 -96.5 -27t-59 -66.5t-30 -84.5t-8.5 -82q0 -13 1 -31t3 -36.5t6 -37t10 -33.5h1q7 56 30.5 91.5t54.5 59t64.5 39.5t61.5 32.5t46.5 38.5t18.5 58q0 21 -8.5 36t-23 24.5t-33 14t-38.5 4.5zM213 252q0 -58 35.5 -81.5t97.5 -23.5q49 0 82 23
t53 58.5t29 78.5t9 82q0 45 -4.5 89.5t-27.5 84.5h-1h-2q-3 -40 -24.5 -65.5t-51.5 -44.5t-64.5 -35t-63.5 -37.5t-48 -51.5t-19 -77zM473 -96q0 -21 -5.5 -33.5t-16.5 -20.5q0 8 -8 11t-19 3q-17 0 -39 -8.5t-49 -8.5q-23 0 -41 12.5t-18 41.5q0 19 10.5 39t15.5 40
q17 5 31 5q7 0 13.5 -1t11.5 -3q0 -11 3.5 -18.5t16.5 -7.5q8 0 17.5 1.5t20.5 1.5q20 0 38 -14t18 -40z" />
    <glyph glyph-name="R" unicode="R" horiz-adv-x="704" 
d="M252 115q0 -12 13.5 -23.5t29.5 -22.5t29.5 -22.5t13.5 -23.5q0 -8 -8.5 -13.5t-20 -9t-22.5 -5t-17 -1.5q-17 0 -34.5 3t-40.5 3q-26 0 -50 -3t-44 -3q-6 0 -17.5 1.5t-23.5 4.5t-21.5 8.5t-11.5 13.5q0 15 15 26.5t33.5 22t33.5 23t15 30.5v402l128 -64v-347zM324 664
q-43 0 -57.5 -12.5t-14.5 -37.5v-58q-35 16 -66 33t-61 36q1 12 -3 22.5t-18 10.5q-25 0 -25 -17q0 -7 14.5 -19t38 -26.5t52.5 -30t58 -28t54.5 -20.5t42.5 -8q28 0 53 10t44 25.5t30.5 35.5t11.5 40q0 13 -8.5 21.5t-21 13.5t-26.5 7t-26 2h-72zM479 716q49 0 82 -16
t33 -59q0 -25 -18 -49t-44.5 -44.5t-55 -36.5t-49.5 -24l85 -39q17 -8 27 -13.5t16 -13.5t9.5 -20.5t7.5 -34.5l44 -239q4 -20 20.5 -33t35 -23t33 -19.5t14.5 -22.5q0 -5 -6.5 -11.5t-16.5 -11.5t-21 -8.5t-21 -3.5q-17 0 -33.5 3t-35.5 3q-17 0 -32.5 -3t-32.5 -3
q-20 0 -26.5 16.5t-8.5 38.5q-7 72 -14.5 125t-17 93t-23 68.5t-33.5 51t-47.5 41.5t-65.5 39l-169 89q-57 30 -90.5 56t-33.5 56q0 24 20 36t57 12h411z" />
    <glyph glyph-name="S" unicode="S" horiz-adv-x="593" 
d="M398 716q74 0 105 -8.5t31 -40.5q0 -20 -14 -32.5t-30.5 -22t-30.5 -17.5t-14 -18q0 -9 3.5 -14.5t11.5 -13.5q-4 -1 -9 -1.5t-14 -0.5q-20 0 -36 13t-16 30q0 9 3.5 16t7 12.5l7 11t3.5 12.5q0 12 -15.5 17t-40.5 5h-157q-16 0 -26.5 -7.5t-10.5 -20.5q0 -21 30 -38.5
t75 -37.5t97 -46t97 -64t75 -91.5t30 -128.5q0 -59 -16 -103.5t-43.5 -74t-65.5 -44t-81 -14.5q-18 0 -34.5 3t-39.5 3q-24 0 -40 -3t-32 -3q-40 0 -73.5 16.5t-58 44.5t-38 64t-13.5 75q0 37 12.5 70t34 57.5t51 38.5t63.5 14q45 0 70.5 -13t41 -28t25.5 -28t25 -13
q7 0 11 2q1 -5 1.5 -9t0.5 -8q0 -25 -14.5 -43t-43.5 -18q-21 0 -33.5 4.5t-22 10.5t-18.5 10.5t-23 4.5q-20 0 -30.5 -12.5t-10.5 -25.5q0 -19 10.5 -33t27 -23t37.5 -13.5t42 -4.5q30 0 57 7.5t47.5 23.5t33 40.5t12.5 57.5q0 54 -28.5 90.5t-71.5 63.5t-93 48.5t-93 45
t-71.5 53.5t-28.5 74t27 61t68 17h257z" />
    <glyph glyph-name="T" unicode="T" horiz-adv-x="630" 
d="M251 635q0 17 -9 20t-21 3h-58q-15 0 -25.5 -3t-10.5 -11q0 -7 8 -23t17.5 -36.5t17.5 -42.5t8 -40q0 -22 -12 -36.5t-35 -14.5q-17 0 -26.5 10t-9.5 23q0 11 4.5 17.5t10 11t10 8.5t4.5 10q0 11 -23 29.5t-50.5 38.5t-50.5 40.5t-23 36.5q0 23 18.5 31.5t36.5 8.5h566
q18 0 36.5 -8.5t18.5 -31.5q0 -16 -23 -36.5t-50.5 -40.5t-50.5 -38.5t-23 -29.5q0 -6 4.5 -10t10 -8.5t10 -11t4.5 -17.5q0 -13 -9.5 -23t-26.5 -10q-23 0 -35 14.5t-12 36.5q0 18 8 40t17.5 42.5t17.5 36.5t8 23q0 8 -10.5 11t-25.5 3h-58q-12 0 -21 -3t-9 -20v-522
q0 -11 15 -21.5t33 -21.5t33 -22t15 -22q0 -8 -9 -13.5t-21 -10t-24 -6.5t-18 -2q-17 0 -36.5 3t-53.5 3q-31 0 -50 -3t-36 -3q-6 0 -18 2t-24 6.5t-21 10t-9 13.5q0 11 15 22t33 22t33 21.5t15 21.5v522z" />
    <glyph glyph-name="U" unicode="U" horiz-adv-x="685" 
d="M159 557q-24 13 -47.5 29.5t-41.5 33.5t-29.5 34t-11.5 31t13 22.5t44 8.5h193q34 0 43 -10t9 -27q0 -16 -12 -35.5t-29.5 -42t-38 -49t-38 -58t-29.5 -67.5t-12 -78q0 -43 10.5 -82t33 -68.5t57.5 -47t85 -17.5q56 0 79 22.5t23 65.5q0 26 -17.5 66.5t-47.5 82.5
t-69 79.5t-82 57.5l24 38q57 -30 108 -78.5t82 -113.5h2v242q1 18 -12 29t-29 20.5t-29 19.5t-13 25q0 4 8.5 8.5t20 8.5t23.5 6.5t20 2.5q11 0 28.5 -3t38.5 -3q22 0 40 3t30 3q13 0 27.5 -1.5t27 -5.5t20.5 -9.5t8 -13.5q0 -9 -13.5 -18t-30 -18.5t-30 -21.5t-13.5 -28
v-478q0 -15 14.5 -26t32.5 -21.5t32.5 -21t14.5 -24.5q0 -9 -10.5 -16t-25.5 -11t-33 -6t-33 -2q-13 0 -25.5 2t-25.5 4l-26 4t-27 2q-24 0 -71 -6t-103 -6q-42 0 -83.5 15.5t-75 47t-54.5 80t-21 113.5q0 58 12.5 105.5t31.5 86.5t40.5 69t40.5 53t31.5 39.5t12.5 27.5
q0 13 -9.5 17t-32.5 4q-27 0 -35.5 -2t-8.5 -11q0 -8 15 -20.5t30 -22.5z" />
    <glyph glyph-name="V" unicode="V" horiz-adv-x="666" 
d="M336 241q16 -35 27.5 -51t23.5 -16q13 0 28.5 17.5t30.5 46t29.5 64.5t25.5 73t17.5 71t6.5 59q0 19 -3.5 39.5t-12.5 37.5t-23.5 28.5t-35.5 11.5q-6 0 -24 -4.5t-41 -11t-49 -14.5t-48.5 -14.5t-38.5 -11t-20 -4.5q-16 0 -16 15q0 3 1 5t5.5 4.5t12.5 6t22 8.5
q15 5 41.5 16.5t58.5 25t67 27.5t66 25.5t55.5 19t35.5 7.5q20 0 34 -7.5t23 -20t13.5 -28.5t4.5 -33q0 -21 -9.5 -57t-26 -80.5t-38.5 -95t-47.5 -102t-52.5 -101t-54 -90.5q-26 -40 -42 -64t-26.5 -37t-17 -17.5t-13.5 -4.5q-6 0 -11 1.5t-9.5 7t-10 15.5t-12.5 27
l-223 497q-4 9 -11.5 12.5t-15 6.5t-13.5 7t-6 14q0 7 13 14t29.5 12.5t31.5 9t19 4.5q7 1 28.5 9t44 17t40 17.5t17.5 12.5q0 5 -22.5 6.5t-70.5 1.5q-30 0 -51.5 -6t-21.5 -21q0 -5 2 -9t4.5 -7.5t4.5 -8.5t2 -12q-18 0 -37 1.5t-34.5 8t-25.5 18.5t-10 33q0 18 16 28
t44 14.5t65.5 5.5t81.5 1q86 0 127.5 -5.5t41.5 -24.5q0 -9 -12 -20t-32.5 -23t-46.5 -24t-53 -23q-8 -3 -15 -8t-7 -11q0 -2 0.5 -4.5t3 -9t7.5 -18t13 -29.5z" />
    <glyph glyph-name="W" unicode="W" horiz-adv-x="907" 
d="M291 716q33 0 53.5 -8.5t20.5 -33.5q0 -5 -3 -11.5t-3 -11.5q0 -8 5 -16h-9q-7 0 -14 -2t-15 -2q-12 0 -18.5 6t-11 12.5t-9 12.5t-11.5 6h-34q-7 0 -12 -6.5t-5 -23.5q0 -6 2 -34.5t6.5 -70.5t11.5 -92t17 -98.5t22 -91t28 -67.5q17 22 35.5 58.5t34 80.5t25.5 91t9 89
q-17 2 -39.5 4.5t-45 6t-42.5 7t-33 8.5l-3 45q56 -14 113.5 -19.5t111.5 -5.5q59 0 125 7.5t132 25.5l-6 -48q-46 -11 -91 -20t-82 -11q3 -39 9 -81.5t17 -83.5t27.5 -79t39.5 -69q27 44 47 100t34 116t21 118.5t7 108.5q0 14 -2 25.5t-10 11.5h-78q-10 0 -13 -6.5
t-5.5 -14t-7.5 -14t-18 -6.5q-5 0 -8.5 2t-8.5 2t-9 -1t-8 0q8 5 8 12t-9 14.5t-9 24.5q0 16 16.5 24.5t45.5 8.5h164q36 0 58 -4t34 -11t16 -17t4 -22q0 -27 -23 -47.5t-53 -31.5l4 48q4 4 14 10t10 14t-11.5 11t-19.5 3q-6 0 -8 -4.5t-3 -18.5q-5 -66 -18 -139.5t-31 -146
t-39 -139t-41 -117t-37 -80.5t-27 -30q-8 0 -12 3t-9 3t-8 -3t-13 -3q-9 0 -22.5 23t-28.5 58.5t-30.5 77.5t-28 80t-21.5 65.5t-10 34.5h-2q-3 -11 -14 -40.5t-26.5 -67t-33.5 -78.5t-35.5 -75t-33 -56t-24.5 -22q-5 0 -10.5 3t-8.5 3t-8 -3t-12 -3q-9 0 -22 26t-27.5 71
t-30 107.5t-29.5 134.5t-25.5 152t-18.5 161q-1 8 -5 14.5t-14 6.5q-11 0 -18.5 -3t-7.5 -11q0 -9 9.5 -12t21.5 -10v-49q-16 8 -31.5 17t-28 20t-20.5 25t-8 33t19 29t51 10h232z" />
    <glyph glyph-name="X" unicode="X" horiz-adv-x="685" 
d="M579 139q17 -24 39 -40t42 -27.5t34 -21t14 -20.5q0 -10 -10 -16.5t-23.5 -11t-27 -6.5t-20.5 -2q-17 0 -36 3t-39 3q-23 0 -45 -3t-45 -3q-8 0 -22.5 2t-29.5 7t-26 13t-11 20q0 8 10 14.5t21.5 13.5t21.5 16t10 22q0 4 -8 20t-21.5 38.5t-31 49.5t-36.5 54l-24 34
l-29 -28q-58 -57 -86.5 -94t-28.5 -52q0 -12 19 -23.5t42.5 -23.5t42.5 -24t19 -23q0 -10 -11 -16.5t-26 -11t-29.5 -6.5t-21.5 -2q-15 0 -31.5 3t-36.5 3q-21 0 -34.5 -3t-24.5 -3q-25 0 -39.5 15t-14.5 39t32 65t99 101l136 120l-143 205q-9 13 -19 21t-18 13t-13.5 8
t-5.5 8q0 9 11 12.5t31 5.5q19 1 45 5t49 9t39 11.5t16 14.5q0 4 -6 7.5t-15.5 5.5t-20 3t-19.5 1h-57q-14 0 -29.5 -4t-15.5 -22q0 -5 0.5 -8.5t1.5 -8.5q-9 3 -23 6.5t-27.5 8.5t-23.5 13.5t-10 22.5q0 22 16 33t45 11t56.5 -1.5t56.5 -1.5t56.5 1.5t56.5 1.5
q33 0 56.5 -4.5t23.5 -24.5q0 -18 -21.5 -34t-47 -29t-47 -22t-21.5 -13q0 -5 8.5 -18.5t23.5 -35.5l85 -120l58 51q17 15 35.5 32t33.5 33.5t25 32t10 28.5q0 36 -42 36q-18 0 -47.5 -9t-58.5 -20t-53 -20t-31 -9q-18 0 -18 13q0 5 5 10t28 14q51 19 93.5 39.5t78.5 37.5
t66 27.5t55 10.5q22 0 34 -9.5t12 -32.5t-20 -53t-50 -63t-65 -65.5t-65 -59.5l-62 -56z" />
    <glyph glyph-name="Y" unicode="Y" horiz-adv-x="667" 
d="M103 539q-7 12 -17 18t-19 9.5t-15.5 7t-6.5 10.5q0 5 4 10t15 9l141 49q9 3 16 6t7 6t-12 4.5t-33 1.5h-57q-26 0 -48.5 -7t-22.5 -24q0 -8 10 -20q-23 1 -42 3.5t-32.5 9t-21.5 17t-8 27.5q0 26 21 33t47 7h260q10 0 21.5 -0.5t21.5 -3t16.5 -8.5t6.5 -16
q0 -11 -21 -21t-46 -20t-46 -19t-21 -18q0 -5 7 -17t25 -35l133 -175q19 16 45 40.5t49.5 53.5t39.5 60.5t16 61.5q0 20 -9.5 27.5t-27.5 7.5q-23 0 -55 -7t-65 -16t-64 -16t-52 -7q-17 0 -17 13q0 6 6 10t29 12q33 11 80.5 27t93 30.5t81.5 25t47 10.5q24 0 46.5 -13
t22.5 -44q0 -19 -13.5 -46.5t-35 -58t-48.5 -62t-53.5 -59t-50.5 -49.5t-39 -33v-242q0 -9 15 -19t33 -20.5t33 -21.5t15 -22q0 -8 -9 -13.5t-21 -10t-24 -6.5t-18 -2q-17 0 -36.5 3t-51.5 3t-51.5 -3t-36.5 -3q-6 0 -18 2t-24 6.5t-21 10t-9 13.5q0 11 15 22t33 21.5
t33 20.5t15 19v184z" />
    <glyph glyph-name="Z" unicode="Z" horiz-adv-x="685" 
d="M429 610q7 9 14 20.5t7 19.5q0 13 -11.5 16t-25.5 4h-203q-17 -2 -30 -10t-13 -28q0 -18 17.5 -34.5t38 -32.5t38 -32.5t17.5 -35.5q0 -11 -12 -24t-26.5 -27t-27 -30.5t-13.5 -35.5q-25 2 -36.5 13.5t-11.5 29.5q0 27 8.5 51t8.5 36q0 15 -12 28t-29.5 25.5t-38 24.5
t-38 24.5t-29.5 25.5t-12 28q0 17 12.5 27t46.5 15t94.5 6.5t156.5 1.5q95 0 153 -2.5t89.5 -7.5t42 -14t10.5 -21q0 -11 -10.5 -28.5t-28.5 -41.5l-310 -404q-8 -10 -14.5 -20t-6.5 -21q0 -22 30 -22h245q23 0 37 4t14 12q0 19 -24.5 36.5t-54 35t-54 35.5t-24.5 39
t11.5 33.5t25 23.5t25 22.5t11.5 31.5q0 8 -1 14t-1 10q8 -4 19 -10t20.5 -14t16 -20t6.5 -28q0 -17 -5.5 -32.5t-5.5 -31.5q0 -17 23.5 -40t52 -51.5t52 -61.5t23.5 -69q0 -26 -11.5 -41.5t-30.5 -24t-43.5 -11t-50.5 -2.5q-39 0 -83 3t-87 3q-24 0 -52.5 -1l-57 -2
t-55.5 -2t-47 -1q-15 0 -39 3t-47.5 10t-40 18.5t-16.5 28.5q0 11 9 28.5t33 49.5z" />
    <glyph glyph-name="bracketleft" unicode="[" horiz-adv-x="332" 
d="M96 695q0 17 7 22t16 5q14 0 28.5 -1.5t28.5 -1.5q13 0 25 1.5t22 1.5q31 0 42 -1.5t11 -11.5q0 -16 -10 -21t-22 -10.5t-22 -15.5t-10 -37v-718q0 -27 10 -37t22 -15.5t22 -10.5t10 -21q0 -10 -11 -11.5t-42 -1.5q-10 0 -22 1.5t-25 1.5q-14 0 -28.5 -1.5t-28.5 -1.5
q-9 0 -16 5t-7 22v858z" />
    <glyph glyph-name="backslash" unicode="\" horiz-adv-x="500" 
d="M490 57q7 -12 7 -24q0 -16 -12.5 -27.5t-29.5 -11.5q-26 0 -38 18l-406 647q-3 5 -5.5 11t-2.5 13q0 16 13 27.5t29 11.5q27 0 39 -18z" />
    <glyph glyph-name="bracketright" unicode="]" horiz-adv-x="332" 
d="M236 -163q0 -17 -7 -22t-16 -5q-14 0 -28.5 1.5t-28.5 1.5q-13 0 -25 -1.5t-22 -1.5q-31 0 -42 1.5t-11 11.5q0 16 10 21t22 10.5t22 15.5t10 37v718q0 27 -10 37t-22 15.5t-22 10.5t-10 21q0 10 11 11.5t42 1.5q10 0 22 -1.5t25 -1.5q14 0 28.5 1.5t28.5 1.5q9 0 16 -5
t7 -22v-858z" />
    <glyph glyph-name="asciicircum" unicode="^" horiz-adv-x="600" 
d="M497 380q4 -10 4 -17q0 -14 -8 -26.5t-22 -19.5q-12 -5 -22 -5q-14 0 -24.5 8t-16.5 19l-108 205l-108 -205q-6 -11 -16.5 -19t-24.5 -8q-10 0 -22 5q-14 7 -22 19.5t-8 26.5q0 7 4 17l153 276q5 11 17 18t30 7q29 -2 41 -25z" />
    <glyph glyph-name="underscore" unicode="_" horiz-adv-x="500" 
d="M0 -125v50h500v-50h-500z" />
    <glyph glyph-name="grave" unicode="`" 
d="M14 694q0 6 4.5 10.5t12.5 4.5t15 -1t15 -1q7 0 13.5 1t14.5 1q9 0 15.5 -4t14.5 -15q8 -12 17 -27t22 -30q14 -18 26 -28t12 -19q0 -6 -5 -8.5t-13 -2.5q-24 0 -52.5 13t-53 32t-41.5 39.5t-17 34.5z" />
    <glyph glyph-name="a" unicode="a" horiz-adv-x="593" 
d="M399 382q0 28 -9 46.5t-24 29t-35 14.5t-42 4q-42 0 -74 -8t-32 -29q0 -16 15 -19t31 -3q25 0 56 4.5t48 4.5t30.5 -5.5t13.5 -26.5q0 -16 -14 -27.5t-35 -22.5t-45.5 -22.5t-45.5 -26.5t-35 -35t-14 -48q0 -45 25 -61.5t69 -16.5q18 0 33.5 3.5t29 7l27 7t27.5 3.5v227z
M533 79q4 -3 11 -8t14 -11t12.5 -12.5t5.5 -12.5q0 -11 -11 -18.5t-28 -12.5t-37.5 -7.5t-40.5 -2.5q-30 0 -60 6t-60 6q-33 0 -66 -6t-68 -6t-65.5 10.5t-53.5 30t-36.5 48.5t-13.5 65q0 37 17 67t46 54t68 44.5t84 38.5q14 5 26 10t12 12q0 5 -4.5 7t-9.5 2q-26 0 -54 -7
t-57 -7q-17 0 -35.5 4.5t-33.5 14.5t-24.5 24.5t-9.5 34.5q0 19 11 33t29 23.5t40 14t44 4.5q24 0 41 -2t36 -2q33 0 67.5 2t69.5 2q46 0 72.5 -13.5t40 -39t17.5 -62t4 -82.5v-246z" />
    <glyph glyph-name="b" unicode="b" horiz-adv-x="593" 
d="M70 612q0 16 -10.5 25.5t-23 17t-23 16t-10.5 22.5q0 13 12 18t27 5h127q14 0 21.5 -5.5t7.5 -19.5v-194q17 0 32.5 5t32 10.5t34 10.5t37.5 5q52 0 94.5 -22.5t72.5 -61t46.5 -89t16.5 -105.5q0 -51 -13 -97.5t-38.5 -82t-62.5 -56t-86 -20.5q-28 0 -51.5 3t-43.5 3
q-19 0 -42 -3t-48 -3q-32 0 -53 11t-33.5 30.5t-17.5 47t-5 60.5v469zM198 235q0 -25 1.5 -43t7.5 -29.5t18 -17t33 -5.5q14 0 25.5 1t21.5 1t21.5 -1t28.5 -1q27 0 45 12.5t28.5 32.5t15 46t4.5 52q0 82 -33.5 131.5t-92.5 49.5q-17 0 -32 -5.5t-30 -12.5t-30 -13t-32 -6
v-192z" />
    <glyph glyph-name="c" unicode="c" horiz-adv-x="519" 
d="M296 528q83 0 128.5 -28.5t45.5 -84.5q0 -18 -8 -33.5t-21.5 -26.5t-30.5 -17.5t-36 -6.5q-18 0 -30.5 6t-21.5 13.5t-15 13.5t-11 6q-12 0 -15 -11q-8 4 -12 11.5t-4 15.5q0 15 10.5 25.5t28.5 10.5q13 0 21.5 -1.5t16.5 -1.5q11 0 14.5 5.5t3.5 9.5q0 9 -8.5 16.5
t-20.5 13t-25.5 9t-23.5 3.5q-38 0 -65 -13.5t-44.5 -36.5t-25.5 -54.5t-8 -67.5q0 -43 8 -75t29 -53t58 -31.5t96 -10.5q19 0 40 3.5t39 12t32.5 22.5t20.5 35q12 -3 23 -11t19 -19.5t12.5 -24.5t4.5 -25q0 -30 -11.5 -55t-29.5 -42t-40.5 -26.5t-44.5 -9.5q-40 0 -61.5 3
t-41.5 3q-21 0 -43 -3t-49 -3q-31 0 -61.5 18t-55 50t-39.5 76t-15 95q0 66 17 120.5t51 93.5t84 60t115 21z" />
    <glyph glyph-name="d" unicode="d" horiz-adv-x="593" 
d="M398 426q-15 4 -27 11t-25 14.5t-29.5 13t-40.5 5.5q-36 0 -60 -17.5t-38.5 -44.5t-20.5 -58.5t-6 -59.5q0 -36 9 -63t22.5 -45t28.5 -27t27 -9q15 0 30 1.5t29 1.5t26.5 -1.5t22.5 -1.5q26 0 39 13t13 29v238zM398 623q0 13 -11.5 20.5t-25.5 14.5t-25.5 14.5
t-11.5 20.5t8.5 18t19.5 5h137q17 0 27 -8t10 -31v-589q4 -3 15 -9t22 -13.5t20 -15.5t9 -14q0 -12 -20.5 -24t-65.5 -12t-80 3t-58 3q-29 0 -59 -6t-57 -6q-58 0 -100 21.5t-69.5 58.5t-40.5 86t-13 103q0 45 14.5 93t42 87.5t68 65t92.5 25.5q27 0 48 -5t38.5 -12.5
t33 -15t32.5 -13.5v135z" />
    <glyph glyph-name="e" unicode="e" horiz-adv-x="537" 
d="M402 522q16 0 36 -2.5t36.5 -10t28 -21.5t11.5 -37q0 -35 -21.5 -60t-54 -45t-71 -37.5t-72.5 -37.5t-58.5 -46t-28.5 -62q28 -17 59 -23t63 -6q19 0 40 3.5t39 12t32.5 22.5t20.5 35q12 -3 23 -11t19 -19.5t12.5 -24.5t4.5 -25q0 -30 -11.5 -55t-29.5 -42t-40.5 -26.5
t-44.5 -9.5q-40 0 -61.5 3t-41.5 3q-21 0 -43 -3t-49 -3q-31 0 -61.5 18t-55 50t-39.5 76t-15 95t12.5 103t40 93t70 67t102.5 26h148zM386 418q0 30 -28.5 41t-72.5 11q-26 0 -52 -5.5t-47 -23t-34 -50t-13 -85.5q0 -32 4 -59.5t18 -46.5q13 36 34.5 61t46.5 42.5t50.5 30
t46.5 24.5t34 26t13 34z" />
    <glyph glyph-name="f" unicode="f" horiz-adv-x="333" 
d="M226 85q0 -7 9 -12.5t20 -11.5t20 -13t9 -16q0 -7 -8 -13t-19.5 -11t-23.5 -8t-20 -3q-12 0 -24.5 1.5t-26.5 1.5q-11 0 -23 -1.5t-24 -1.5q-11 0 -24 3t-24 8.5t-19 11.5t-8 12q0 9 9 16t20 13t20 11.5t9 12.5v361q0 13 -14 22.5t-31 18.5t-31 18t-14 21q0 20 24 20h45
q-11 10 -22.5 20t-20.5 22t-14.5 26.5t-5.5 33.5q0 24 9.5 40t25.5 25.5t36 14t40 4.5q32 0 62.5 -8t62.5 -8q11 0 28 2.5t31 13.5q8 -11 15 -27t7 -30q0 -18 -10.5 -34t-27 -28t-36 -18.5t-38.5 -6.5q-12 0 -21.5 2.5t-17 5.5t-13.5 5.5t-13 2.5q-12 0 -19.5 -2t-7.5 -10
q0 -10 9 -24t19 -22h36q63 0 91 -7.5t28 -23.5q0 -11 -13 -21t-29 -19t-29 -16t-13 -10v-364z" />
    <glyph glyph-name="g" unicode="g" horiz-adv-x="574" 
d="M506 145q0 -21 4 -39.5t9 -36.5t8.5 -35t3.5 -36q0 -41 -15 -73.5t-40 -55t-57 -34t-66 -11.5q-33 0 -53 1.5t-39 1.5q-35 0 -53 -1.5t-33 -1.5q-68 0 -104.5 15t-36.5 66q0 18 6 29t6 17q0 13 -5 18q3 2 7.5 3t9.5 1q27 0 44 -6.5t29.5 -16.5t23.5 -21t25 -21t35 -16.5
t53 -6.5q72 0 103.5 25t31.5 72q0 8 -0.5 19t-1.5 20h-2q-11 -14 -28.5 -20.5t-37.5 -6.5q-16 0 -30.5 3t-32.5 3q-17 0 -33 -3t-33 -3q-47 2 -79.5 26.5t-52.5 60t-29 76t-9 75.5q0 67 17 121.5t51.5 93.5t86.5 60t121 21q12 0 27.5 -1t39 -2t57 -2t81.5 -1q30 0 30 -19
q0 -12 -11.5 -23t-27.5 -22v-313zM384 379q0 23 -8 40t-21 28.5t-30.5 17t-35.5 5.5q-39 0 -64.5 -16t-41 -41.5t-21.5 -58t-6 -65.5q0 -26 3.5 -53t14 -50t28 -37.5t46.5 -14.5q9 0 19 2t19 2q11 0 23 -2t24 -2q22 0 36.5 23t14.5 58v164z" />
    <glyph glyph-name="h" unicode="h" horiz-adv-x="574" 
d="M71 656q-26 9 -42 18.5t-16 20.5q0 12 13 16.5t34 4.5h145q21 0 36.5 -4.5t15.5 -16.5t-16 -22.5t-42 -16.5v-197q16 3 33.5 13t37.5 21t44.5 20t55.5 9q36 0 61.5 -10t41.5 -27.5t23 -41t7 -49.5v-309q0 -7 9 -12.5t20 -11.5t20 -13t9 -16q0 -7 -8 -13t-19.5 -11
t-23.5 -8t-20 -3q-12 0 -24.5 1.5t-26.5 1.5q-11 0 -23 -1.5t-24 -1.5q-11 0 -24 3t-24 8.5t-19 11.5t-8 12q0 9 9 16t20 13t20 11.5t9 12.5v285q0 29 -19.5 46.5t-41.5 17.5q-12 0 -22.5 -3.5t-23.5 -7t-29.5 -7t-39.5 -3.5v-328q0 -7 9 -12.5t20 -11.5t20 -13t9 -16
q0 -7 -8 -13t-19.5 -11t-23.5 -8t-20 -3q-12 0 -24.5 1.5t-26.5 1.5q-11 0 -23 -1.5t-24 -1.5q-11 0 -24 3t-24 8.5t-19 11.5t-8 12q0 9 9 16t20 13t20 11.5t9 12.5v571z" />
    <glyph glyph-name="i" unicode="i" horiz-adv-x="296" 
d="M84 462q-26 9 -42 18.5t-16 20.5q0 12 13 16.5t34 4.5h145q21 0 36.5 -4.5t15.5 -16.5t-16 -22.5t-42 -16.5v-377q0 -7 9 -12.5t20 -11.5t20 -13t9 -16q0 -7 -8 -13t-19.5 -11t-23.5 -8t-20 -3q-12 0 -24.5 1.5t-26.5 1.5q-11 0 -23 -1.5t-24 -1.5q-11 0 -24 3t-24 8.5
t-19 11.5t-8 12q0 9 9 16t20 13t20 11.5t9 12.5v377zM148 592q-13 0 -26 1.5t-23.5 6.5t-17 14t-6.5 23q0 16 6.5 25.5t17 14.5t24 7t26.5 2t26 -1.5t23.5 -7t16.5 -15t6 -24.5q0 -29 -22.5 -37.5t-50.5 -8.5z" />
    <glyph glyph-name="j" unicode="j" horiz-adv-x="296" 
d="M84 438q0 16 -7.5 23.5t-16.5 12t-16.5 10t-7.5 17.5t7.5 16.5t26.5 4.5h155q17 0 26 -4.5t9 -16.5q0 -13 -7.5 -18.5t-16.5 -10.5t-16.5 -13t-7.5 -26v-389q0 -17 15 -45q7 -13 10.5 -29t3.5 -32q0 -54 -42 -91t-130 -37q-73 0 -117.5 28t-44.5 82q0 15 6 30.5t17.5 28
t27 20t33.5 7.5q24 0 37 -9.5t19.5 -21t10.5 -21t11 -9.5q5 0 10 3q8 -5 8 -18q0 -18 -12.5 -27.5t-28.5 -9.5q-11 0 -17.5 4t-10.5 8.5t-7 8.5t-8 4q-8 0 -8 -13q0 -11 6.5 -18.5t15.5 -11.5t19.5 -5.5t19.5 -1.5q13 0 26.5 2t24 8.5t17.5 18.5t7 32q0 15 -7 27.5t-15.5 23
t-16 19.5t-8.5 17v422zM149 686q13 0 26 -1.5t23.5 -7t16.5 -15t6 -24.5q0 -29 -22.5 -37.5t-50.5 -8.5q-13 0 -26 1.5t-23.5 6.5t-17 14t-6.5 23q0 16 6.5 25.5t17 14.5t24 7t26.5 2z" />
    <glyph glyph-name="k" unicode="k" horiz-adv-x="611" 
d="M71 652q-8 4 -18 8.5t-19 9.5t-15 11t-6 14q0 12 13 16.5t34 4.5h151q21 0 36.5 -4.5t15.5 -16.5q0 -7 -6 -13t-15 -11.5t-19 -10t-18 -8.5v-187q19 4 33.5 13.5t32.5 19.5t43.5 17t66.5 7q31 0 60.5 -6.5t51.5 -20t35.5 -34t13.5 -48.5q0 -30 -19.5 -48.5t-46 -28
t-54 -12.5t-43.5 -3q-29 0 -39 2.5t-15 2.5t-5 -4q0 -2 8 -6t19 -9l97 -37q29 -11 46 -28t27 -40t14.5 -52t7.5 -65q12 -6 25 -13.5t24 -16t18.5 -16t7.5 -11.5q0 -12 -21.5 -21.5t-51.5 -9.5q-14 0 -26.5 1.5t-23.5 1.5q-13 0 -31.5 -1.5t-26.5 -1.5q-17 0 -28.5 20
t-11.5 48q0 27 -2 56.5t-10 57.5t-23.5 51.5t-42.5 37.5q-41 22 -62 35t-21 34q0 15 9 26.5t36 11.5q20 0 36 -4t45 -4q31 0 40.5 12.5t9.5 32.5q0 18 -18.5 29t-47.5 11q-21 0 -38 -5.5t-32.5 -12.5t-31.5 -14t-35 -11v-324q8 -6 18 -13t19 -14t15 -14t6 -12q0 -7 -8 -13
t-19.5 -11t-23.5 -8t-20 -3q-17 0 -30.5 1.5t-27.5 1.5q-11 0 -22.5 -1.5t-23.5 -1.5q-11 0 -24 3t-24 8.5t-19 11.5t-8 12q0 12 9 19.5t20 13.5t20 12.5t9 17.5v557z" />
    <glyph glyph-name="l" unicode="l" horiz-adv-x="296" 
d="M84 640q0 13 -8 19.5t-17 11t-17 9.5t-8 16q0 20 23 20h124q14 0 22.5 -3t8.5 -20v-608q0 -7 9 -12.5t20 -11.5t20 -13t9 -16q0 -7 -8 -13t-19.5 -11t-23.5 -8t-20 -3q-12 0 -24.5 1.5t-26.5 1.5q-11 0 -23 -1.5t-24 -1.5q-11 0 -24 3t-24 8.5t-19 11.5t-8 12q0 9 9 16
t20 13t20 11.5t9 12.5v555z" />
    <glyph glyph-name="m" unicode="m" horiz-adv-x="870" 
d="M71 435q0 14 -8 22.5t-18 14.5t-18 12t-8 17q0 16 11.5 18.5t25.5 2.5h162q16 0 25.5 -4t9.5 -12q0 -10 -8.5 -18t-18.5 -15t-18.5 -13.5t-8.5 -13.5v-12q31 9 52.5 24t41.5 29q21 14 45 24.5t61 10.5q40 0 70 -21.5t30 -66.5q31 9 52.5 24t41.5 29q21 14 45 24.5
t61 10.5q40 0 70 -21.5t30 -66.5v-349q0 -7 9 -12.5t20 -11.5t20 -13t9 -16q0 -7 -8 -13t-19.5 -11t-23.5 -8t-20 -3q-12 0 -24.5 1.5t-26.5 1.5q-11 0 -23 -1.5t-24 -1.5q-11 0 -24 3t-24 8.5t-19 11.5t-8 12q0 9 9 16t20 13t20 11.5t9 12.5v294q0 18 -12 30.5t-35 12.5
q-16 0 -31 -5t-30.5 -11t-31.5 -11.5t-32 -6.5v-303q0 -7 9 -12.5t20 -11.5t20 -13t9 -16q0 -7 -8 -13t-19.5 -11t-23.5 -8t-20 -3q-12 0 -24.5 1.5t-26.5 1.5q-11 0 -23 -1.5t-24 -1.5q-11 0 -24 3t-24 8.5t-19 11.5t-8 12q0 9 9 16t20 13t20 11.5t9 12.5v294
q0 18 -12 30.5t-35 12.5q-16 0 -31 -5t-30.5 -11t-31.5 -11.5t-32 -6.5v-303q0 -7 9 -12.5t20 -11.5t20 -13t9 -16q0 -7 -8 -13t-19.5 -11t-23.5 -8t-20 -3q-12 0 -24.5 1.5t-26.5 1.5q-11 0 -23 -1.5t-24 -1.5q-11 0 -24 3t-24 8.5t-19 11.5t-8 12q0 9 9 16t20 13t20 11.5
t9 12.5v350z" />
    <glyph glyph-name="n" unicode="n" horiz-adv-x="574" 
d="M218 522q16 0 25.5 -4t9.5 -12q0 -10 -8.5 -18t-18.5 -15t-18.5 -13.5t-8.5 -13.5v-12q30 7 46 21.5t30.5 29.5t34.5 26t60 11q36 0 61.5 -10t41.5 -27.5t23 -41t7 -49.5v-309q0 -7 9 -12.5t20 -11.5t20 -13t9 -16q0 -7 -8 -13t-19.5 -11t-23.5 -8t-20 -3
q-12 0 -24.5 1.5t-26.5 1.5q-11 0 -23 -1.5t-24 -1.5q-11 0 -24 3t-24 8.5t-19 11.5t-8 12q0 9 9 16t20 13t20 11.5t9 12.5v282q0 23 -13 39t-36 16q-26 0 -43 -6t-30 -13.5t-25 -14t-29 -6.5v-297q0 -7 9 -12.5t20 -11.5t20 -13t9 -16q0 -7 -8 -13t-19.5 -11t-23.5 -8
t-20 -3q-12 0 -24.5 1.5t-26.5 1.5q-11 0 -23 -1.5t-24 -1.5q-11 0 -24 3t-24 8.5t-19 11.5t-8 12q0 9 9 16t20 13t20 11.5t9 12.5v350q0 14 -8 22.5t-18 14.5t-18 12t-8 17q0 16 11.5 18.5t25.5 2.5h162z" />
    <glyph glyph-name="o" unicode="o" horiz-adv-x="556" 
d="M145 318q0 -33 8.5 -61.5t24.5 -49t38.5 -32t51.5 -11.5q41 0 68.5 13t44 35.5t23.5 52.5t7 65q0 33 -7.5 60.5t-23.5 48t-39.5 32t-54.5 11.5q-37 0 -63.5 -13t-44 -35.5t-25.5 -52t-8 -63.5zM29 268q0 61 15.5 110t47 83.5t78.5 53.5t109 19q59 0 105.5 -19t78 -53.5
t48 -83.5t16.5 -110q0 -58 -15.5 -108t-42 -87t-62.5 -58t-76 -21q-15 0 -26.5 3t-25.5 3q-15 0 -26.5 -3t-21.5 -3q-43 0 -80 22t-64 59.5t-42.5 87t-15.5 105.5z" />
    <glyph glyph-name="p" unicode="p" horiz-adv-x="593" 
d="M76 434q0 10 -8 17.5t-17.5 15t-18 15t-9.5 18.5q0 13 10 17.5t21 4.5h158q15 0 21 -6t6 -17q0 -5 -6 -9.5t-12.5 -10t-12.5 -12t-6 -15.5v-12q17 16 34 31t35 26t39.5 18t47.5 7q47 0 83 -21.5t60.5 -57t37 -82.5t12.5 -98q0 -50 -14.5 -99t-42 -88t-69 -63.5
t-95.5 -24.5q-32 0 -56.5 9.5t-41 25t-25.5 35.5t-9 42q0 18 4 30.5t9.5 22t9.5 16.5t4 13q0 10 -8 20q8 2 20 2q29 0 38.5 -12t14.5 -26t12.5 -26t31.5 -12q31 0 53 14.5t36.5 37.5t21 51t6.5 56q0 30 -6 58.5t-20.5 51t-38.5 36t-60 13.5q-13 0 -34 -7t-40.5 -17
t-33.5 -21t-14 -20v-208q-11 -14 -19 -32.5t-8 -44.5q0 -22 8 -40t19 -32v-126q0 -8 9 -13.5t20 -11.5t20 -12.5t9 -15.5q0 -7 -8 -13t-19.5 -11t-23.5 -8t-20 -3q-12 0 -24.5 1.5t-26.5 1.5q-11 0 -23 -1.5t-24 -1.5q-11 0 -24 3t-24 8.5t-19 11.5t-8 12q0 9 9 16.5
t20 13.5t20 11.5t9 11.5v536z" />
    <glyph glyph-name="q" unicode="q" horiz-adv-x="593" 
d="M519 -60q15 6 34 6t28 -11t9 -28q0 -9 -2.5 -18t-5.5 -14q-10 9 -18 7q-12 -2 -21.5 -14t-21 -26.5t-26.5 -26t-38 -11.5q-6 0 -16.5 2t-20.5 10t-17 24t-7 44v122q-26 -14 -57 -22t-69 -8q-57 0 -99.5 19.5t-71.5 54.5t-43.5 83.5t-14.5 106.5q0 46 12 96t37.5 91t65 68
t93.5 27q27 0 43.5 -7t30.5 -17.5t29.5 -22.5t39.5 -22q0 10 -6.5 16.5t-14 11.5t-13.5 11t-6 16q0 8 10 11t24 3h156q15 0 24 -5.5t9 -16.5q0 -14 -9 -18.5t-19.5 -8t-19 -12.5t-8.5 -32v-489zM391 410q-17 1 -30.5 8t-27 14.5t-29 13.5t-37.5 6q-32 0 -54.5 -16t-36 -42
t-19.5 -59.5t-6 -68.5q0 -30 10.5 -57t28.5 -48t42 -33t52 -12q32 0 59 15.5t48 39.5v239z" />
    <glyph glyph-name="r" unicode="r" horiz-adv-x="426" 
d="M71 435q0 14 -8 22.5t-18 14.5t-18 12t-8 17q0 16 11.5 18.5t25.5 2.5h160q14 0 25.5 -2.5t11.5 -18.5q0 -8 -8.5 -15t-18.5 -13.5t-18.5 -13t-8.5 -13.5v-12q16 4 32.5 18.5t34 30t36 27.5t39.5 12q42 0 67.5 -28t25.5 -75q0 -50 -17.5 -77.5t-38.5 -41t-38.5 -18.5
t-17.5 -11q0 -3 2 -7q-6 -2 -10 -2q-13 0 -22.5 7.5t-9.5 24.5q0 10 3.5 18.5t8 17.5t8.5 18.5t4 22.5q0 14 -7.5 24.5t-26.5 10.5q-7 0 -16 -3t-18.5 -6.5t-19.5 -7t-19 -4.5v-300q0 -7 9 -12.5t20 -11.5t20 -13t9 -16q0 -7 -8 -13t-19.5 -11t-23.5 -8t-20 -3
q-12 0 -24.5 1.5t-26.5 1.5q-11 0 -23 -1.5t-24 -1.5q-11 0 -24 3t-24 8.5t-19 11.5t-8 12q0 9 9 16t20 13t20 11.5t9 12.5v350z" />
    <glyph glyph-name="s" unicode="s" horiz-adv-x="556" 
d="M404 522q52 0 70.5 -16.5t18.5 -38.5q0 -20 -14 -32.5t-36 -12.5t-36 8t-14 23q0 17 -21 17h-103q-29 0 -46.5 -6t-17.5 -24q0 -15 24 -26.5t60 -24.5t78 -30.5t78 -43.5t60 -63t24 -90q0 -41 -12 -72.5t-31.5 -52.5t-44 -32t-48.5 -11q-32 0 -63 4t-63 4q-27 0 -55.5 -4
t-62.5 -4q-22 0 -44 6.5t-39 20.5t-28 34.5t-11 49.5q0 25 7 40t15 26.5t15 22t7 26.5q0 12 -8 25q19 6 46 6q26 0 48 -19.5t22 -54.5q0 -32 26 -40.5t67 -8.5q43 0 74 14.5t31 48.5q0 30 -27.5 52.5t-69.5 43.5t-91.5 43.5t-93.5 52.5q-16 10 -24.5 20t-12.5 19t-4.5 15.5
t-0.5 11.5q0 32 38 52.5t115 20.5h198z" />
    <glyph glyph-name="t" unicode="t" horiz-adv-x="315" 
d="M71 442q0 5 -8 9t-17.5 9t-17.5 11t-8 16q0 7 5.5 11t13 5.5t16 2t14.5 0.5v29q0 16 -5.5 22t-12 9t-12 6t-5.5 12q0 6 8 12t35 19q29 13 50 26.5t35.5 24t23 17t13.5 6.5q9 0 12 -4.5t3 -9.5q0 -8 -7.5 -18.5t-7.5 -33.5v-124q25 0 41 5.5t36 5.5q18 0 31.5 -8t13.5 -26
q0 -11 -2.5 -19.5t-6 -16t-6 -15.5t-2.5 -19q0 -16 5 -27t12 -16q-7 -12 -20.5 -17t-28.5 -5q-20 0 -35 14t-15 49q0 8 2 16t2 13t-2.5 5.5t-7.5 0.5q-11 0 -17 -3v-351q0 -7 9 -12.5t20 -11.5t20 -13t9 -16q0 -7 -8 -13t-19.5 -11t-23.5 -8t-20 -3q-12 0 -24.5 1.5
t-26.5 1.5q-11 0 -23 -1.5t-24 -1.5q-11 0 -24 3t-24 8.5t-19 11.5t-8 12q0 9 9 16t20 13t20 11.5t9 12.5v357z" />
    <glyph glyph-name="u" unicode="u" horiz-adv-x="574" 
d="M71 448q0 12 -9 19t-20 12.5t-20 11t-9 14.5q0 11 11.5 14t22.5 3h122q18 0 24 -10.5t6 -27.5v-310q0 -26 12 -42t37 -16q19 0 34 4t29.5 9.5t29 10t34.5 6.5v302q0 8 -8.5 15t-19 13.5t-19 13t-8.5 15.5q0 11 11.5 14t22.5 3h172q16 0 25.5 -3t9.5 -14q0 -10 -9 -16.5
t-20 -12.5t-20 -12t-9 -16v-361q0 -14 8 -22.5t18 -14.5t18 -12.5t8 -16.5q0 -16 -11.5 -18.5t-25.5 -2.5h-162q-16 0 -25.5 4t-9.5 12q0 11 8.5 19t18.5 15.5t18.5 14.5t8.5 15v8q-30 -7 -47.5 -21.5t-34 -29.5t-38 -26t-58.5 -11q-62 0 -94 30.5t-32 100.5v317z" />
    <glyph glyph-name="v" unicode="v" horiz-adv-x="556" 
d="M182 522q15 0 25.5 -3.5t10.5 -13.5q0 -8 -5.5 -12.5t-11.5 -10t-11.5 -14.5t-5.5 -25q0 -12 9 -40t23 -63t31.5 -72.5t34.5 -68.5t32 -51t24 -20q11 0 16 6t10 14q9 16 22 50.5t25 75t21 81t9 68.5q0 15 -5.5 24.5t-14.5 14.5t-20.5 6.5t-23.5 1.5q-29 0 -42 -2t-13 -10
t5 -16t5 -16q0 -13 -7.5 -19t-19.5 -6q-19 0 -28 8q7 6 7 13q0 5 -8 10.5t-18 12.5t-18 15t-8 19q0 20 15.5 30.5t41.5 12.5h156q18 0 34.5 -2t29 -8t19.5 -16.5t7 -27.5q0 -22 -14.5 -66t-37 -96.5t-50 -108t-53 -100.5t-45.5 -74t-29 -29q-10 0 -15.5 6t-12.5 6
q-8 0 -14 -6t-17 -6q-14 0 -30 40l-136 330q-16 39 -33.5 70t-40.5 48q-11 8 -16.5 11.5t-5.5 9.5q0 12 10.5 15.5t23.5 3.5h163z" />
    <glyph glyph-name="w" unicode="w" horiz-adv-x="704" 
d="M69 422q-8 24 -19.5 36.5t-21.5 19t-17 11t-7 13.5q0 12 9.5 16t23.5 4h159q42 0 42 -19q0 -7 -6.5 -12.5t-14 -12t-13.5 -14.5t-6 -20v-10t2 -10l91 -261l104 266q4 13 17 13t17 -13l92 -276h2l68 193q15 43 15 74q0 12 -1.5 22.5t-8 18t-20 11.5t-37.5 4h-176
q-17 0 -23 -2.5t-6 -8.5t5.5 -11.5t5.5 -19.5q0 -23 -13.5 -36t-35.5 -13q-14 0 -25 10t-13 25q2 -1 6 -1q11 0 11 16q0 7 -2.5 13t-6 12t-6 13t-2.5 18q0 19 18.5 25t42.5 6h335q15 0 30.5 -7t15.5 -24q0 -12 -5.5 -29.5t-16.5 -46.5l-145 -393q-5 -12 -9 -20t-13 -8
q-7 0 -11 6t-12 6q-5 0 -10.5 -6t-13.5 -6q-9 0 -13.5 7.5t-9.5 20.5l-62 186l-75 -186q-5 -11 -10.5 -19.5t-16.5 -8.5q-5 0 -11 6t-13 6q-6 0 -11 -6t-13 -6q-11 0 -15.5 8.5t-9.5 19.5z" />
    <glyph glyph-name="x" unicode="x" horiz-adv-x="574" 
d="M222 252l-125 172q-13 16 -26 26t-27 18q-11 8 -18.5 14.5t-7.5 14.5q0 14 16 19.5t33 5.5h199q19 0 33 -4t14 -15q0 -5 -2 -8t-4 -8q13 4 33.5 10.5t42.5 11.5t43.5 9t35.5 4q20 0 33.5 -4.5t13.5 -18.5q0 -7 -8.5 -16.5t-23.5 -23.5t-35.5 -34t-44.5 -48l-67 -77
l104 -134q20 -25 44.5 -54.5t51.5 -46.5q47 -30 47 -43q0 -7 -6.5 -12.5t-16.5 -9t-20.5 -5t-19.5 -1.5q-14 0 -32.5 3t-37.5 3q-20 0 -37.5 -3t-34.5 -3q-5 0 -14.5 0.5t-20 2.5t-18 6t-7.5 11q0 9 6.5 16t14.5 13t14.5 11.5t6.5 12.5q0 6 -4.5 12.5t-10.5 14.5l-85 115
l-53 -62q-14 -17 -22.5 -32t-8.5 -26q0 -12 9 -20t19.5 -15t19.5 -13.5t9 -16.5q0 -6 -7.5 -11.5t-18 -9.5t-20.5 -6.5t-16 -2.5q-18 0 -32 3t-27 3q-16 0 -31.5 -3t-29.5 -3t-23 5.5t-9 19.5q0 17 15.5 35.5t41.5 44.5zM352 402q11 14 20.5 26t9.5 21q0 15 -13 15
q-9 0 -23.5 -4.5t-30.5 -10.5t-30.5 -10.5t-21.5 -4.5q-14 0 -22.5 5t-8.5 13q0 4 5.5 10.5t10.5 13.5h-33q-9 0 -9 -6q0 -4 4.5 -10l10.5 -14l82 -106z" />
    <glyph glyph-name="y" unicode="y" horiz-adv-x="574" 
d="M41 437q-5 9 -14 18t-18 17.5t-16 16t-7 15.5q0 12 11 14.5t31 3.5h248q32 0 32 -18q0 -12 -17 -22v-2q15 3 42 8.5t80 19.5q34 9 57 11.5t39 2.5q17 0 32 -7t15 -25q0 -15 -11.5 -45t-30 -67.5t-40.5 -79t-43 -78.5t-38.5 -66.5t-25.5 -43.5v-178q0 -36 -7 -59.5
t-18 -37.5t-26 -19.5t-31 -5.5q-17 0 -32.5 8t-32.5 31q-16 21 -25 35.5t-20 14.5q-7 0 -15 -3.5t-16 -6.5l9 45q8 35 41 35q19 0 39 -12v127zM313 181q5 -11 10 -11q4 0 17 16q38 54 66 114t28 118q0 24 -7 35t-27 11q-16 0 -38.5 -5.5t-44.5 -12.5q-17 -5 -41 -11.5
t-47 -6.5q-15 0 -22 7.5t-7 17.5t5 15.5t9 5.5v2h-55z" />
    <glyph glyph-name="z" unicode="z" horiz-adv-x="574" 
d="M349 436q5 5 8 10t3 8q0 5 -6 7.5t-12 2.5h-138q-9 0 -21 -3.5t-12 -12.5q0 -5 3 -9.5t7 -10t7 -12t3 -15.5q0 -16 -12 -28.5t-32 -12.5q-15 0 -26 8.5t-16 19.5q3 4 6.5 9.5t3.5 10.5q0 10 -10 18.5t-22 17.5t-22 20t-10 28q0 15 25.5 22.5t61.5 7.5h334q12 0 23.5 -1.5
t21 -4.5t15.5 -8.5t6 -12.5q0 -14 -5.5 -25t-16.5 -25l-260 -299q12 -6 37.5 -9t53.5 -3q11 0 26.5 2.5t30 7t25 12t10.5 18.5q0 12 -7 21.5t-7 23.5q0 11 10.5 20.5t26.5 9.5t28 -4.5t17 -23.5q-9 -2 -11.5 -9t-2.5 -15q0 -16 10 -30.5t22.5 -30t22.5 -34t10 -42.5
q0 -20 -9 -33t-24 -20.5t-33.5 -10t-36.5 -2.5q-19 0 -42.5 2t-49 4t-52 4t-52.5 2q-42 0 -82.5 -6t-93.5 -6q-34 0 -50.5 9t-16.5 22q0 16 11.5 29t24.5 28z" />
    <glyph glyph-name="braceleft" unicode="{" horiz-adv-x="332" 
d="M225 -44q0 -57 16 -88.5t58 -41.5v-16q-51 0 -87 5.5t-59 22t-33.5 46t-10.5 78.5v180q0 52 -15 80.5t-61 43.5q23 7 38 17.5t23.5 25.5t11.5 35t3 46v180q0 49 10.5 78.5t33.5 46t59 22t87 5.5v-16q-42 -10 -58 -41.5t-16 -88.5v-170q0 -29 -3 -51.5t-11.5 -39.5
t-24.5 -29t-42 -19v-2q26 -7 42 -19t24.5 -29t11.5 -39.5t3 -51.5v-170z" />
    <glyph glyph-name="bar" unicode="|" horiz-adv-x="222" 
d="M61 750h100v-1000h-100v1000z" />
    <glyph glyph-name="braceright" unicode="}" horiz-adv-x="332" 
d="M107 126q0 29 3 51.5t11.5 39.5t24.5 29t42 19v2q-26 7 -42 19t-24.5 29t-11.5 39.5t-3 51.5v170q0 57 -16 88.5t-58 41.5v16q51 0 87 -5.5t59 -22t33.5 -46t10.5 -78.5v-180q0 -26 3 -46t11.5 -35t23.5 -25.5t38 -17.5q-23 -8 -38 -18t-23.5 -25t-11.5 -35t-3 -46v-180
q0 -49 -10.5 -78.5t-33.5 -46t-59 -22t-87 -5.5v16q42 10 58 41.5t16 88.5v170z" />
    <glyph glyph-name="asciitilde" unicode="~" horiz-adv-x="600" 
d="M438 302q8 7 17.5 11t22.5 5q16 0 28 -11q16 -14 17 -35q0 -18 -11 -34.5t-29 -30t-40.5 -22t-45.5 -10.5q-26 0 -52 6.5t-52 15.5t-52.5 14.5t-52.5 5.5q-11 -1 -18.5 -4.5t-14.5 -7t-15 -7t-20 -4.5q-18 0 -31 13t-13 33q0 21 11 37t28 27.5t37.5 17t39.5 5.5
q26 0 51 -6.5t50 -14.5q22 -8 45.5 -14.5t46.5 -6.5q30 0 53 17z" />
    <glyph glyph-name="uni00A0" unicode="&#xa0;" horiz-adv-x="296" 
 />
    <glyph glyph-name="exclamdown" unicode="&#xa1;" 
d="M184 377q14 0 22.5 -4.5t8.5 -18.5v-457q0 -16 9 -22.5t20 -10.5t20 -7.5t9 -13.5q0 -9 -7.5 -14t-18.5 -8t-23.5 -4t-21.5 -1h-98q-11 0 -24 1t-24 4t-18.5 8t-7.5 14t9 13.5t19.5 8.5t19.5 10.5t9 21.5v404q0 13 -8 20t-17 11.5t-17 9.5t-8 15q0 20 23 20h124zM84 480
q0 25 19 41.5t48 16.5t48 -16.5t19 -41.5t-19 -41.5t-48 -16.5t-48 16.5t-19 41.5z" />
    <glyph glyph-name="cent" unicode="&#xa2;" horiz-adv-x="592" 
d="M278 -85q-19 0 -19 19v60q-14 0 -33.5 3t-41.5 12.5t-44 27.5t-39.5 48.5t-28.5 75.5t-11 109q0 65 23 112.5t54.5 79t65 48.5t55.5 22v56q0 14 19 14h56q8 0 16.5 -2.5t8.5 -11.5v-56q20 -2 44 -9.5t45.5 -21.5t36.5 -35.5t17 -50.5q0 -18 -8 -33.5t-21.5 -26.5
t-30.5 -17.5t-36 -6.5q-18 0 -30.5 6t-21.5 13.5t-15 13.5t-11 6q-12 0 -15 -11q-8 4 -12 11.5t-4 15.5q0 15 10.5 25.5t28.5 10.5q13 0 21.5 -1.5t16.5 -1.5q11 0 14.5 5.5t3.5 9.5q0 9 -8.5 16.5t-20.5 13t-25.5 9t-23.5 3.5q-38 0 -65 -13.5t-44.5 -36.5t-25.5 -54.5
t-8 -67.5q0 -43 8 -75t29 -53t58 -31.5t96 -10.5q19 0 40 3.5t39 12t32.5 22.5t20.5 35q12 -3 23 -11t19 -19.5t12.5 -24.5t4.5 -25q0 -30 -11.5 -55t-29.5 -42t-40.5 -26.5t-44.5 -9.5h-68v-60q0 -12 -8.5 -15.5t-16.5 -3.5h-56z" />
    <glyph glyph-name="sterling" unicode="&#xa3;" horiz-adv-x="592" 
d="M45 50q0 22 11 47t26.5 58t31.5 77.5t26 106.5q10 1 21 2t22 1q10 0 19.5 -1t19.5 -3q-4 -26 -16.5 -51t-26 -46.5t-24 -40t-10.5 -31.5q0 -15 13.5 -21t32.5 -6q23 0 47 2t55 2q32 0 53 -3t40 -3q18 0 31 4t13 21q0 29 -18 63t-49.5 63t-76 48t-96.5 19q-34 0 -61 -7
t-27 -28q0 -8 3 -12.5l5 -7.5q-11 -7 -30 -7q-17 0 -27.5 12t-10.5 24q0 22 12.5 37t33.5 24t48.5 13t56.5 4q61 0 112.5 -24t93.5 -61t74 -81t53.5 -83.5t32.5 -68.5t11 -37q0 -21 -11 -33t-28 -18.5t-37 -8t-37 -1.5q-35 0 -79 6t-85 6q-35 0 -70.5 -3t-68.5 -3
q-17 0 -36.5 2t-35.5 7t-26.5 15t-10.5 26zM325 664q-26 0 -45.5 -9t-33 -23.5t-20.5 -32.5t-7 -36q0 -14 1 -32.5t2.5 -38t3.5 -38t3 -32.5q-11 2 -22.5 3t-22.5 1q-14 0 -26 -2t-23 -7q-6 11 -16.5 30t-20.5 40t-17.5 42.5t-7.5 37.5q0 45 21.5 73.5t55.5 45.5t77 23.5
t85 6.5q45 0 87 -11t74 -31.5t51.5 -50.5t19.5 -67q0 -26 -9.5 -46t-24.5 -34t-34 -21.5t-38 -7.5q-32 0 -50.5 15.5t-30 34t-20 34t-21.5 15.5q-5 0 -8.5 -1.5t-7.5 -3.5q0 13 9 20t24 7q8 0 15.5 -1.5t15.5 -3.5t15 -4t15 -2q40 0 40 48q0 18 -9.5 29.5t-25 18t-35 9
t-39.5 2.5z" />
    <glyph glyph-name="currency" unicode="&#xa4;" horiz-adv-x="592" 
d="M91 205q-23 29 -34.5 66t-11.5 79q0 20 3.5 41t9.5 40t14.5 35.5t18.5 28.5l-54 54l61 61l55 -55q25 20 64 31.5t79 11.5q42 0 79.5 -11t59.5 -30l57 55l64 -64l-55 -56q23 -23 35 -61.5t12 -80.5q0 -41 -12 -79t-35 -66l54 -54l-58 -58l-54 56q-26 -23 -65 -35t-82 -12
q-42 0 -80.5 11.5t-64.5 34.5l-56 -56l-59 59zM438 350q0 31 -10.5 58t-29.5 47t-45 31.5t-57 11.5q-30 0 -56 -11t-44.5 -31t-29.5 -47t-11 -59t11 -59.5t30 -47t44.5 -30.5t55.5 -11q31 0 57 11.5t45 31.5t29.5 47t10.5 58z" />
    <glyph glyph-name="yen" unicode="&#xa5;" horiz-adv-x="592" 
d="M258 278l-4 6h-118q-13 0 -19.5 7.5t-6.5 18.5q0 14 6.5 23t19.5 9h82l-134 191q-6 11 -15.5 17.5t-18.5 10.5t-15.5 7.5t-6.5 9.5q0 7 12.5 13t31 12.5t40.5 13t40.5 13t31 12.5t12.5 12q0 10 -26 10h-67q-15 0 -31 -3t-16 -19q0 -9 3.5 -16.5t7.5 -12.5q-8 0 -19 0.5
t-24 1.5q-19 2 -37.5 15t-18.5 40q0 26 20.5 33t44.5 7h227q24 0 44 -3.5t20 -22.5q0 -14 -20.5 -24t-45.5 -19.5t-45.5 -18.5t-20.5 -20q0 -7 10 -24t25.5 -39t34 -46.5t36.5 -47.5t32.5 -41t21.5 -27q19 16 40.5 41.5t39.5 55t30 60.5t12 59q0 20 -6.5 30.5t-27.5 10.5
q-11 0 -40 -7.5t-61 -17.5t-61.5 -18.5t-42.5 -8.5q-6 0 -11 4t-5 9q0 11 13 17q10 5 31.5 14t49 19.5t58.5 22t59.5 21t52 15.5t36.5 6q34 0 49.5 -13t15.5 -44q0 -19 -11 -46t-29 -57t-40.5 -61.5t-45.5 -59.5t-44.5 -50.5t-37.5 -34.5v-2h120q14 0 20 -9t6 -23
q0 -11 -6.5 -18.5t-19.5 -7.5h-122v-54h122q13 0 19.5 -9t6.5 -23q0 -11 -6.5 -18.5t-19.5 -7.5h-122v-48q0 -17 14.5 -29.5t32 -23t32 -20t14.5 -20.5q0 -8 -8 -14.5t-19.5 -10t-23.5 -5.5t-20 -1q-14 0 -38.5 3t-41.5 3t-41.5 -3t-38.5 -3q-8 -1 -20.5 1t-23.5 5.5t-19 10
t-8 14.5q0 11 14.5 20.5t32 20t32 23t14.5 29.5v48h-122q-13 0 -19.5 7.5t-6.5 18.5q0 14 6.5 23t19.5 9h122v48z" />
    <glyph glyph-name="brokenbar" unicode="&#xa6;" horiz-adv-x="222" 
d="M61 175h100v-350h-100v350zM61 675h100v-350h-100v350z" />
    <glyph glyph-name="section" unicode="&#xa7;" horiz-adv-x="556" 
d="M399 716q21 0 40.5 -1.5t34.5 -7t23.5 -15.5t8.5 -27q0 -18 -14.5 -29t-32 -20t-32 -18t-14.5 -23q0 -11 6 -19.5t14 -16.5q-30 0 -55 10t-25 35q0 10 4 17.5t8.5 13.5t8.5 11.5t4 13.5q0 15 -27 19.5t-87 4.5q-61 0 -83 -7.5t-22 -28.5q0 -39 27 -66.5t67.5 -51.5
t87.5 -46.5t87.5 -51t67.5 -66.5t27 -91q0 -28 -7.5 -50t-21 -40t-32 -33.5t-39.5 -30.5q14 -11 27.5 -26t24.5 -33t18 -38t7 -42q0 -36 -10.5 -62.5t-28 -44t-40.5 -26.5t-48 -9q-32 0 -58 1.5t-52 1.5q-30 0 -53.5 -1.5t-42.5 -1.5q-21 0 -43 9t-39 25t-28 37t-11 45
q0 45 18 77.5t55 32.5q9 0 17.5 -4.5t16.5 -9.5t16 -9.5t17 -4.5q7 0 15 6q0 -20 -7.5 -30.5t-19.5 -14.5q-13 -5 -23.5 -16.5t-10.5 -31.5q0 -19 9.5 -29.5t26.5 -16t40.5 -6.5t52.5 -1q31 0 55 1.5t41 8.5t26 21t9 39q0 30 -27 52.5t-68 43t-88.5 41.5t-88.5 50t-68 68
t-27 94q0 53 26.5 94t71.5 67q-15 14 -29.5 29.5t-26.5 36t-19 46.5t-7 60q0 28 9.5 45t25.5 26t35.5 12t39.5 3h240zM423 215q0 39 -26 69t-63.5 54t-79.5 44t-74 40q-25 -15 -39 -37t-14 -51q0 -39 29.5 -68t70 -52t82.5 -41.5t67 -37.5q20 14 33.5 34t13.5 46z" />
    <glyph glyph-name="dieresis" unicode="&#xa8;" 
d="M113 640q0 -24 -18.5 -36t-50.5 -12q-30 0 -47.5 12t-17.5 36q0 23 17.5 34.5t47.5 11.5q32 0 50.5 -11.5t18.5 -34.5zM165 640q0 23 18 34.5t50 11.5q30 0 48 -11.5t18 -34.5q0 -24 -18 -36t-48 -12q-32 0 -50 12t-18 36z" />
    <glyph glyph-name="copyright" unicode="&#xa9;" horiz-adv-x="800" 
d="M555 458h-28q-9 37 -30.5 62.5t-66.5 25.5q-54 0 -79.5 -46t-25.5 -124q0 -39 4.5 -73t15 -59t28.5 -39.5t45 -14.5q93 0 128 93h26l-17 -89q-36 -20 -71 -26t-75 -6q-96 0 -154 53t-58 156q0 33 10.5 69t34 65.5t62 49t94.5 19.5q57 0 100 -8t57 -26v-82zM112 358
q0 -60 22.5 -112.5t61.5 -91.5t91.5 -61.5t112.5 -22.5t112.5 22.5t91.5 61.5t61.5 91.5t22.5 112.5t-22.5 112.5t-61.5 91.5t-91.5 61.5t-112.5 22.5t-112.5 -22.5t-91.5 -61.5t-61.5 -91.5t-22.5 -112.5zM36 358q0 75 28.5 141.5t78 116t116 78t141.5 28.5t141.5 -28.5
t116 -78t78 -116t28.5 -141.5t-28.5 -141.5t-78 -116t-116 -78t-141.5 -28.5t-141.5 28.5t-116 78t-78 116t-28.5 141.5z" />
    <glyph glyph-name="ordfeminine" unicode="&#xaa;" horiz-adv-x="385" 
d="M253 611q0 23 -21.5 29t-51.5 6q-27 0 -47 -4t-20 -17q0 -8 8 -10t20 -2q17 0 35.5 3t31.5 3q12 0 21 -4t9 -17t-18.5 -22.5t-40.5 -20t-40.5 -26t-18.5 -40.5q0 -26 16 -37.5t42 -11.5q17 0 39 4.5t36 13.5v153zM347 412q8 -4 18 -11t10 -16q0 -7 -11 -13t-25.5 -10.5
t-28 -7t-18.5 -2.5q-18 0 -37.5 3t-41.5 3q-23 0 -47.5 -3t-52.5 -3q-20 0 -39 7.5t-33 20.5t-22.5 31t-8.5 40q0 25 10.5 43.5t29.5 32t46 24t60 21.5q9 3 15.5 6t6.5 8t-9 5q-20 0 -41.5 -3t-44.5 -3q-19 0 -38.5 11t-19.5 34q0 19 11 30t26.5 17t33.5 7.5t32 1.5
q17 0 32.5 -1.5t30.5 -1.5q17 0 32 1.5t30 1.5q32 0 51 -6.5t28.5 -20.5t12 -35.5t2.5 -51.5v-160z" />
    <glyph glyph-name="guillemotleft" unicode="&#xab;" horiz-adv-x="426" 
d="M210 95q5 -13 6 -18t1 -8q0 -7 -4 -12.5t-15 -5.5q-17 0 -26 11.5t-17 24.5l-103 169q-2 3 -3.5 7t-1.5 9t1.5 9t3.5 7l103 169q8 13 17 24.5t26 11.5q11 0 15 -5.5t4 -12.5q0 -3 -1 -8.5t-6 -17.5l-62 -155q-5 -15 -5 -22t5 -22zM372 95q5 -13 6 -18t1 -8q0 -7 -4 -12.5
t-15 -5.5q-17 0 -26 11.5t-17 24.5l-103 169q-2 3 -3.5 7t-1.5 9t1.5 9t3.5 7l103 169q8 13 17 24.5t26 11.5q11 0 15 -5.5t4 -12.5q0 -3 -1 -8.5t-6 -17.5l-62 -155q-5 -15 -5 -22t5 -22z" />
    <glyph glyph-name="logicalnot" unicode="&#xac;" horiz-adv-x="600" 
d="M452 310h-357q-17 0 -31.5 12.5t-14.5 35.5q0 21 14.5 35.5t31.5 14.5h407q23 0 35.5 -14.5t12.5 -31.5v-206q0 -17 -12.5 -31.5t-35.5 -14.5q-21 0 -35.5 14.5t-14.5 31.5v154z" />
    <glyph glyph-name="uni00AD" unicode="&#xad;" horiz-adv-x="389" 
d="M337 304q11 0 20 -9.5t9 -23.5q0 -15 -9 -23t-20 -8h-285q-11 0 -20 8t-9 23q0 14 9 23.5t20 9.5h285z" />
    <glyph glyph-name="registered" unicode="&#xae;" horiz-adv-x="800" 
d="M229 562h209q53 0 86 -24.5t33 -77.5q0 -33 -19 -63t-66 -41l38 -73q18 -35 38 -58.5t43 -23.5v-28h-96q-11 0 -23 17t-25 43t-26.5 55.5t-28.5 54.5h-25v-102q0 -23 7.5 -31.5t36.5 -8.5v-28h-182v28q28 0 36 8.5t8 31.5v258q0 11 -0.5 18.5t-5 12t-13.5 6.5t-25 3v23z
M367 371h27q16 0 26.5 8t16.5 21t8 29.5t2 32.5q0 72 -49 72h-31v-163zM112 358q0 -60 22.5 -112.5t61.5 -91.5t91.5 -61.5t112.5 -22.5t112.5 22.5t91.5 61.5t61.5 91.5t22.5 112.5t-22.5 112.5t-61.5 91.5t-91.5 61.5t-112.5 22.5t-112.5 -22.5t-91.5 -61.5t-61.5 -91.5
t-22.5 -112.5zM36 358q0 75 28.5 141.5t78 116t116 78t141.5 28.5t141.5 -28.5t116 -78t78 -116t28.5 -141.5t-28.5 -141.5t-78 -116t-116 -78t-141.5 -28.5t-141.5 28.5t-116 78t-78 116t-28.5 141.5z" />
    <glyph glyph-name="macron" unicode="&#xaf;" 
d="M276 673q34 0 34 -33q0 -17 -8.5 -24t-21.5 -7h-282q-13 0 -21.5 7t-8.5 24q0 33 34 33h274z" />
    <glyph glyph-name="degree" unicode="&#xb0;" horiz-adv-x="400" 
d="M121 537q0 -33 23 -56t56 -23t56 23t23 56t-23 56t-56 23t-56 -23t-23 -56zM51 537q0 31 11.5 58t32 47t47.5 32t58 12t58 -12t47 -32t32 -47t12 -58t-12 -58t-32 -47.5t-47 -32t-58 -11.5t-58 11.5t-47.5 32t-32 47.5t-11.5 58z" />
    <glyph glyph-name="plusminus" unicode="&#xb1;" horiz-adv-x="600" 
d="M350 374h156q17 0 31.5 -14.5t14.5 -35.5q0 -23 -14.5 -35.5t-31.5 -12.5h-156v-92q0 -17 -14.5 -31.5t-35.5 -14.5q-23 0 -35.5 14.5t-12.5 31.5v92h-158q-17 0 -31.5 12.5t-14.5 35.5q0 21 14.5 35.5t31.5 14.5h158v87q0 17 12.5 31.5t35.5 14.5q21 0 35.5 -14.5
t14.5 -31.5v-87zM506 98q17 0 31.5 -14.5t14.5 -35.5q0 -23 -14.5 -35.5t-31.5 -12.5h-412q-17 0 -31.5 12.5t-14.5 35.5q0 21 14.5 35.5t31.5 14.5h412z" />
    <glyph glyph-name="uni00B2" unicode="&#xb2;" horiz-adv-x="385" 
d="M17 581q0 25 13.5 45t36.5 33t53 20t64 7q94 0 138 -32t36 -86q-3 -19 -11 -34t-24.5 -29t-44 -30.5t-69.5 -38.5q-32 -17 -50 -27.5t-27 -17.5t-11.5 -12t-2.5 -9q0 -5 5 -6t16 -1q14 0 29.5 3t31.5 3q15 0 31 -3t32 -3q15 0 23 4.5t8 18.5q0 12 9 21t20 9q19 0 23 -8
q-5 -2 -8.5 -7t-3.5 -11q0 -5 6.5 -14.5t15 -21.5t15 -25t6.5 -25q0 -19 -20.5 -27t-44.5 -8q-38 0 -67.5 3t-58.5 3q-26 0 -53.5 -3t-49.5 -3q-11 0 -24.5 1.5t-24.5 4.5t-18.5 7.5t-7.5 10.5q0 26 18 48t44.5 43t57.5 41.5t57.5 43t44.5 48.5t18 57q0 35 -22 56.5
t-66 21.5q-27 0 -50 -13t-23 -35q0 -15 9 -26t26 -11q20 0 31 5t17 11q6 5 10.5 10t8.5 5q14 0 18 -8q-2 -2 -5 -4.5t-3 -5.5q0 -4 3.5 -11.5t3.5 -20.5q0 -26 -22.5 -41.5t-62.5 -15.5q-48 0 -76 26t-28 64z" />
    <glyph glyph-name="uni00B3" unicode="&#xb3;" horiz-adv-x="385" 
d="M211 541q-22 -4 -29.5 -6.5t-7.5 -4.5q0 -5 16 -7t46 -8q35 -6 62.5 -15t47 -22.5t29.5 -33t10 -47.5q0 -25 -8 -48t-22.5 -41t-34.5 -28.5t-44 -10.5q-23 0 -46.5 3t-46.5 3q-20 0 -43 -3t-49 -3q-17 0 -33.5 5t-29 15t-20.5 24.5t-8 32.5q0 29 17 45t43 16
q17 0 27.5 -1.5t15.5 -6.5q-9 -6 -9 -21q0 -11 11 -16t25 -5t24.5 1.5t21.5 1.5t22 -1.5t26 -1.5q45 0 45 57q0 36 -24.5 52.5t-62.5 24.5q-17 4 -32 6t-26.5 5t-18.5 7.5t-7 13.5q0 13 26.5 21t61.5 17t61 21.5t26 32.5q0 16 -22.5 23.5t-55.5 7.5q-12 0 -23.5 0.5
t-20.5 -0.5t-14.5 -4t-5.5 -10q0 -2 7.5 -3.5t16.5 -4t16.5 -5.5t7.5 -8q0 -12 -8 -20q-4 4 -8 6.5t-12 2.5q-7 0 -20 -2.5t-30 -2.5q-8 0 -18 2t-19 7t-15 12.5t-6 18.5q2 26 37.5 38.5t116.5 12.5q78 0 124 -14.5t46 -56.5q0 -15 -9 -26t-23 -18.5t-31.5 -12t-33.5 -7.5z
" />
    <glyph glyph-name="acute" unicode="&#xb4;" 
d="M264 694q0 -14 -17 -34.5t-41.5 -39.5t-53 -32t-52.5 -13q-8 0 -13 2.5t-5 8.5q0 9 12 19t26 28q13 15 22 30t17 27q8 11 14.5 15t15.5 4q8 0 14.5 -1t13.5 -1q8 0 15 1t15 1t12.5 -4.5t4.5 -10.5z" />
    <glyph glyph-name="mu" unicode="&#xb5;" horiz-adv-x="574" 
d="M503 87q0 -14 8 -22.5t18 -14.5t18 -12.5t8 -16.5q0 -16 -11.5 -18.5t-25.5 -2.5h-162q-16 0 -25.5 4t-9.5 12q0 11 8.5 19t18.5 15.5t18.5 14.5t8.5 15v8q-30 -7 -47.5 -21.5t-34 -29.5t-38 -26t-58.5 -11q-27 0 -49 11q5 -37 15.5 -74t10.5 -75q0 -22 -16 -37t-47 -15
q-26 0 -42 15t-15 37q0 15 2.5 37t6 54.5t6 76t2.5 101.5v317q0 12 -9 19t-20 12.5t-20 11t-9 14.5q0 11 11.5 14t22.5 3h122q18 0 24 -10.5t6 -27.5v-310q0 -26 12 -42t37 -16q19 0 34 4t29.5 9.5t29 10t34.5 6.5v302q0 8 -8.5 15t-19 13.5t-19 13t-8.5 15.5q0 11 11.5 14
t22.5 3h172q16 0 25.5 -3t9.5 -14q0 -10 -9 -16.5t-20 -12.5t-20 -12t-9 -16v-361z" />
    <glyph glyph-name="paragraph" unicode="&#xb6;" horiz-adv-x="620" 
d="M207 305q-39 0 -70 15.5t-52.5 43.5t-32.5 67.5t-11 86.5q0 104 54 151t176 47h298v-40q-38 0 -56.5 -14t-18.5 -51v-676q0 -35 18.5 -55t56.5 -20v-40h-175v856h-87v-856h-180v40q35 0 57.5 20t22.5 55v370z" />
    <glyph glyph-name="periodcentered" unicode="&#xb7;" horiz-adv-x="296" 
d="M81 320q0 25 19 41.5t48 16.5t48 -16.5t19 -41.5t-19 -41.5t-48 -16.5t-48 16.5t-19 41.5z" />
    <glyph glyph-name="cedilla" unicode="&#xb8;" 
d="M162 -42q7 1 17.5 2t27.5 1q21 0 35 -14t14 -38q0 -32 -22 -51t-53 -19q-24 0 -43.5 4.5t-32.5 4.5q-11 0 -21 -2.5t-17 -10.5q3 18 14 32.5t25 14.5q12 0 26.5 -1.5t26.5 -1.5q9 0 18 6t9 19q0 23 -25 23q-11 0 -19.5 -3t-15.5 -3q-6 0 -11 2.5t-5 8.5t5 15.5t11 19.5
t12.5 20t9.5 19h40z" />
    <glyph glyph-name="uni00B9" unicode="&#xb9;" horiz-adv-x="265" 
d="M114 606q-17 -9 -39 -20.5t-48 -11.5q-27 0 -27 18q0 10 33 16q12 2 30 9.5t33 15.5l68 40q9 5 16.5 9t15.5 4q12 0 12 -15v-340q0 -9 7 -14t15.5 -9t15.5 -8.5t7 -11.5q0 -5 -12.5 -12t-29.5 -7q-11 0 -22.5 1t-27.5 1q-15 0 -26.5 -1t-22.5 -1q-17 0 -29.5 7t-12.5 12
q0 7 7 11.5t15 8.5t15 9t7 14v275z" />
    <glyph glyph-name="ordmasculine" unicode="&#xba;" horiz-adv-x="361" 
d="M264 551q0 42 -17.5 68.5t-65.5 26.5t-66 -26.5t-18 -68.5q0 -14 4 -29t14 -27t26 -19.5t40 -7.5t40 7.5t25.5 19.5t13.5 27t4 29zM15 527q0 77 42.5 118t123.5 41t123 -41t42 -118q0 -26 -10 -56.5t-26.5 -56.5t-38.5 -44t-46 -18q-14 0 -24.5 3t-19.5 3q-10 0 -21 -3
t-25 -3q-23 0 -45 18t-38.5 44t-26.5 56.5t-10 56.5z" />
    <glyph glyph-name="guillemotright" unicode="&#xbb;" horiz-adv-x="426" 
d="M278 250q5 15 5 22t-5 22l-62 155q-5 12 -6 17.5t-1 8.5q0 7 4 12.5t15 5.5q17 0 26 -11.5t17 -24.5l103 -169q2 -3 3.5 -7t1.5 -9t-1.5 -9t-3.5 -7l-103 -169q-8 -13 -17 -24.5t-26 -11.5q-11 0 -15 5.5t-4 12.5q0 3 1 8t6 18zM116 250q5 15 5 22t-5 22l-62 155
q-5 12 -6 17.5t-1 8.5q0 7 4 12.5t15 5.5q17 0 26 -11.5t17 -24.5l103 -169q2 -3 3.5 -7t1.5 -9t-1.5 -9t-3.5 -7l-103 -169q-8 -13 -17 -24.5t-26 -11.5q-11 0 -15 5.5t-4 12.5q0 3 1 8t6 18z" />
    <glyph glyph-name="onequarter" unicode="&#xbc;" horiz-adv-x="888" 
d="M582 678q4 6 11 13t18 7t18.5 -7t7.5 -15q0 -11 -3 -17t-8 -15l-389 -643q-5 -8 -12 -13.5t-18 -5.5q-8 0 -15 4t-10 15q-1 10 2 18t8 17zM752 179q-14 0 -25.5 1t-22.5 1t-22.5 -1t-23.5 -1v185q0 5 -1.5 8.5t-8.5 3.5t-11 -13q-12 -42 -24 -75t-34 -71
q-5 -11 -12 -20.5t-7 -17.5q0 -10 30 -10q20 0 48 2.5t54 2.5q23 0 39.5 -1.5t30.5 -1.5t22.5 3t8.5 7q0 6 -1.5 12t-6.5 10q11 -5 22.5 -8t23.5 -7q13 -5 22.5 -15t9.5 -24q0 -26 -15 -40t-38 -14q-20 0 -48.5 1.5t-57.5 1.5q-38 0 -80.5 -3.5t-77.5 -3.5q-39 0 -62.5 6.5
t-23.5 29.5q0 8 9.5 23.5t24.5 35t31.5 41t31.5 42t24.5 37.5t9.5 28q0 20 -9.5 31t-9.5 21q0 22 26 26t78 4h40.5t34.5 -2t24 -6t9 -11q0 -3 -5 -6.5t-11 -7.5t-11 -8t-5 -8v-188zM658 84q12 2 23 3t22 1t21.5 -1t21.5 -3v-20q0 -8 7 -13.5t15 -10t15 -9.5t7 -11
q0 -4 -5.5 -8.5t-13.5 -8.5t-17 -6.5t-17 -2.5t-17 3t-17 3q-10 0 -19 -3t-19 -3q-6 0 -15 2t-18 6t-15 8.5t-6 9.5q0 9 7.5 13.5t16 8t16 8.5t7.5 15v19zM139 606q-17 -9 -39 -20.5t-48 -11.5q-27 0 -27 18q0 10 33 16q12 2 30 9.5t33 15.5l68 40q9 5 16.5 9t15.5 4
q12 0 12 -15v-340q0 -9 7 -14t15.5 -9t15.5 -8.5t7 -11.5q0 -5 -12.5 -12t-29.5 -7q-11 0 -22.5 1t-27.5 1q-15 0 -26.5 -1t-22.5 -1q-17 0 -29.5 7t-12.5 12q0 7 7 11.5t15 8.5t15 9t7 14v275z" />
    <glyph glyph-name="onehalf" unicode="&#xbd;" horiz-adv-x="888" 
d="M578 678q4 6 11 13t18 7t18.5 -7t7.5 -15q0 -13 -11 -32l-389 -643q-5 -8 -12 -13.5t-18 -5.5q-8 0 -15 4t-10 15q-1 10 2 18t8 17zM512 306q0 25 13.5 45t36.5 33t53 20t64 7q94 0 138 -32t36 -86q-3 -19 -11 -34t-24.5 -29t-44 -30.5t-69.5 -38.5q-32 -17 -50 -27.5
t-27 -17.5t-11.5 -12t-2.5 -9q0 -5 5 -6t16 -1q14 0 29.5 3t31.5 3q15 0 31 -3t32 -3q15 0 23 4.5t8 18.5q0 12 9 21t20 9q19 0 23 -8q-5 -2 -8.5 -7t-3.5 -11q0 -5 6.5 -14.5t15 -21.5t15 -25t6.5 -25q0 -19 -20.5 -27t-44.5 -8q-38 0 -67.5 3t-58.5 3q-26 0 -53.5 -3
t-49.5 -3q-11 0 -24.5 1.5t-24.5 4.5t-18.5 7.5t-7.5 10.5q0 26 18 48t44.5 43t57.5 41.5t57.5 43t44.5 48.5t18 57q0 35 -22 56.5t-66 21.5q-27 0 -50 -13t-23 -35q0 -15 9 -26t26 -11q20 0 31 5t17 11q6 5 10.5 10t8.5 5q14 0 18 -8q-2 -2 -5 -4.5t-3 -5.5q0 -4 3.5 -11.5
t3.5 -20.5q0 -26 -22.5 -41.5t-62.5 -15.5q-48 0 -76 26t-28 64zM130 606q-17 -9 -39 -20.5t-48 -11.5q-27 0 -27 18q0 10 33 16q12 2 30 9.5t33 15.5l68 40q9 5 16.5 9t15.5 4q12 0 12 -15v-340q0 -9 7 -14t15.5 -9t15.5 -8.5t7 -11.5q0 -5 -12.5 -12t-29.5 -7
q-11 0 -22.5 1t-27.5 1q-15 0 -26.5 -1t-22.5 -1q-17 0 -29.5 7t-12.5 12q0 7 7 11.5t15 8.5t15 9t7 14v275z" />
    <glyph glyph-name="threequarters" unicode="&#xbe;" horiz-adv-x="888" 
d="M631 678q4 6 11 13t18 7t18.5 -7t7.5 -15q0 -13 -11 -32l-389 -643q-5 -8 -12 -13.5t-18 -5.5q-8 0 -15 4t-10 15q-1 10 2 18t8 17zM771 179q-14 0 -25.5 1t-22.5 1t-22.5 -1t-23.5 -1v185q0 5 -1.5 8.5t-8.5 3.5t-11 -13q-12 -42 -24 -75t-34 -71q-5 -11 -12 -20.5
t-7 -17.5q0 -10 30 -10q20 0 48 2.5t54 2.5q23 0 39.5 -1.5t30.5 -1.5t22.5 3t8.5 7q0 6 -1.5 12t-6.5 10q11 -5 22.5 -8t23.5 -7q13 -5 22.5 -15t9.5 -24q0 -26 -15 -40t-38 -14q-20 0 -48.5 1.5t-57.5 1.5q-38 0 -80.5 -3.5t-77.5 -3.5q-39 0 -62.5 6.5t-23.5 29.5
q0 8 9.5 23.5t24.5 35t31.5 41t31.5 42t24.5 37.5t9.5 28q0 20 -9.5 31t-9.5 21q0 22 26 26t78 4h40.5t34.5 -2t24 -6t9 -11q0 -3 -5 -6.5t-11 -7.5t-11 -8t-5 -8v-188zM677 84q12 2 23 3t22 1t21.5 -1t21.5 -3v-20q0 -11 23 -24q8 -5 14.5 -10t6.5 -10q0 -4 -5.5 -8.5
t-13.5 -8.5t-17 -6.5t-17 -2.5t-17 3t-17 3q-10 0 -19 -3t-19 -3q-6 0 -15 2t-18 6t-15 8.5t-6 9.5q0 13 19 20l14 6q14 6 14 19v19zM217 541q-22 -4 -29.5 -6.5t-7.5 -4.5q0 -5 16 -7t46 -8q35 -6 62.5 -15t47 -22.5t29.5 -33t10 -47.5q0 -25 -8 -48t-22.5 -41t-34.5 -28.5
t-44 -10.5q-23 0 -46.5 3t-46.5 3q-20 0 -43 -3t-49 -3q-17 0 -33.5 5t-29 15t-20.5 24.5t-8 32.5q0 29 17 45t43 16q17 0 27.5 -1.5t15.5 -6.5q-9 -6 -9 -21q0 -11 11 -16t25 -5t24.5 1.5t21.5 1.5t22 -1.5t26 -1.5q45 0 45 57q0 36 -24.5 52.5t-62.5 24.5q-17 4 -32 6
t-26.5 5t-18.5 7.5t-7 13.5q0 13 26.5 21t61.5 17t61 21.5t26 32.5q0 16 -22.5 23.5t-55.5 7.5q-12 0 -23.5 0.5t-20.5 -0.5t-14.5 -4t-5.5 -10q0 -2 7.5 -3.5t16.5 -4t16.5 -5.5t7.5 -8q0 -12 -8 -20q-4 4 -8 6.5t-12 2.5q-7 0 -20 -2.5t-30 -2.5q-8 0 -18 2t-19 7
t-15 12.5t-6 18.5q2 26 37.5 38.5t116.5 12.5q78 0 124 -14.5t46 -56.5q0 -15 -9 -26t-23 -18.5t-31.5 -12t-33.5 -7.5z" />
    <glyph glyph-name="questiondown" unicode="&#xbf;" horiz-adv-x="463" 
d="M307 377q25 0 31.5 -12.5t6.5 -25.5q0 -34 -13.5 -64t-33.5 -58t-43.5 -55t-43.5 -56t-33.5 -61t-13.5 -70q0 -53 22 -86t78 -33q43 0 63.5 26.5t20.5 64.5q0 21 -8.5 40.5t-28.5 19.5q-11 0 -18.5 -6.5t-13.5 -14.5t-13.5 -14.5t-18.5 -6.5q-9 0 -16.5 4.5t-13.5 11.5
q5 2 9.5 5.5t4.5 9.5q0 8 -3.5 15.5t-3.5 14.5q0 21 8.5 36t23.5 25t34.5 15t41.5 5q28 0 51.5 -10.5t40 -28.5t25.5 -42.5t9 -53.5q0 -44 -17 -74.5t-46 -50t-66.5 -28.5t-79.5 -9q-45 0 -84 11.5t-67.5 34t-45 56.5t-16.5 79q0 41 14.5 71.5t38 54t52.5 42.5t59 39
q13 8 30 21t32 29t25 34t10 36q0 19 -18 19h-37q-14 0 -14 -11q0 -6 5.5 -15.5t5.5 -24.5q0 -11 -7 -16.5t-17 -5.5q-5 0 -11.5 1t-11.5 3q9 4 7 15q0 2 -5 10t-10.5 18t-10.5 20.5t-5 18.5q0 18 12 22.5t28 4.5h99zM194 480q0 25 19 41.5t48 16.5t48 -16.5t19 -41.5
t-19 -41.5t-48 -16.5t-48 16.5t-19 41.5z" />
    <glyph glyph-name="Agrave" unicode="&#xc0;" horiz-adv-x="685" 
d="M514 716q28 0 51 -1.5t38.5 -8.5t24 -20t8.5 -37q0 -32 -27 -58.5t-68 -51.5l-318 -191q-40 -24 -64.5 -59.5t-24.5 -74.5q0 -8 1 -18.5t4.5 -20t11 -16t20.5 -6.5q11 0 18 4t9 4q4 0 4 -3q0 -2 -2 -5.5t-2 -11.5q0 -15 2 -27t2 -26q0 -45 -20.5 -69.5t-64.5 -24.5
q-26 0 -42 10.5t-25 26.5t-12.5 35.5t-3.5 37.5q0 39 12.5 88.5t31.5 102.5t41.5 105t43.5 96t37.5 75.5t22.5 43.5q18 34 18 44q0 7 -11.5 9t-29.5 2q-16 0 -27 -3t-11 -14q0 -24 35 -49l-28 -52q-22 13 -41.5 28t-34 30t-23 30t-8.5 30t8 24.5t21 14t30 6t35 1.5h358z
M174 378l2 -2l278 168q42 25 57 45.5t15 36.5q0 14 -6.5 26t-20.5 12q-13 0 -19 -8t-6 -20q0 -11 2.5 -23t5.5 -23q-26 -20 -53.5 -36.5t-55.5 -32.5l-17 66q-7 26 -15 39.5t-25 13.5q-11 0 -22 -12t-22.5 -31t-21.5 -41.5t-19 -43.5zM502 490l63 -291q7 -34 12.5 -54
t10 -31.5t8.5 -16t8 -6.5q4 -3 17.5 -11t27 -17.5t24.5 -20t11 -18.5t-7 -14t-17.5 -9.5t-22 -5t-20.5 -1.5q-19 0 -40 3t-42 3q-26 0 -48.5 -3t-44.5 -3q-8 0 -18.5 2t-19.5 5.5t-15.5 8.5t-6.5 12q0 14 12 24t26.5 18.5t26.5 16t12 15.5q0 5 -2.5 19.5t-5.5 32t-6.5 36
t-6.5 30.5l-43 212zM218 882q0 6 4.5 10.5t12.5 4.5t15 -1t15 -1q7 0 13.5 1t14.5 1q9 0 15.5 -4t14.5 -15q8 -12 17.5 -26.5t21.5 -30.5q14 -17 26 -27.5t12 -19.5q0 -11 -18 -11q-24 0 -52.5 13t-53 32t-41.5 39.5t-17 34.5z" />
    <glyph glyph-name="Aacute" unicode="&#xc1;" horiz-adv-x="685" 
d="M514 716q28 0 51 -1.5t38.5 -8.5t24 -20t8.5 -37q0 -32 -27 -58.5t-68 -51.5l-318 -191q-40 -24 -64.5 -59.5t-24.5 -74.5q0 -8 1 -18.5t4.5 -20t11 -16t20.5 -6.5q11 0 18 4t9 4q4 0 4 -3q0 -2 -2 -5.5t-2 -11.5q0 -15 2 -27t2 -26q0 -45 -20.5 -69.5t-64.5 -24.5
q-26 0 -42 10.5t-25 26.5t-12.5 35.5t-3.5 37.5q0 39 12.5 88.5t31.5 102.5t41.5 105t43.5 96t37.5 75.5t22.5 43.5q18 34 18 44q0 7 -11.5 9t-29.5 2q-16 0 -27 -3t-11 -14q0 -24 35 -49l-28 -52q-22 13 -41.5 28t-34 30t-23 30t-8.5 30t8 24.5t21 14t30 6t35 1.5h358z
M174 378l2 -2l278 168q42 25 57 45.5t15 36.5q0 14 -6.5 26t-20.5 12q-13 0 -19 -8t-6 -20q0 -11 2.5 -23t5.5 -23q-26 -20 -53.5 -36.5t-55.5 -32.5l-17 66q-7 26 -15 39.5t-25 13.5q-11 0 -22 -12t-22.5 -31t-21.5 -41.5t-19 -43.5zM502 490l63 -291q7 -34 12.5 -54
t10 -31.5t8.5 -16t8 -6.5q4 -3 17.5 -11t27 -17.5t24.5 -20t11 -18.5t-7 -14t-17.5 -9.5t-22 -5t-20.5 -1.5q-19 0 -40 3t-42 3q-26 0 -48.5 -3t-44.5 -3q-8 0 -18.5 2t-19.5 5.5t-15.5 8.5t-6.5 12q0 14 12 24t26.5 18.5t26.5 16t12 15.5q0 5 -2.5 19.5t-5.5 32t-6.5 36
t-6.5 30.5l-43 212zM468 882q0 -14 -17 -34.5t-41.5 -39.5t-53 -32t-52.5 -13q-18 0 -18 11q0 9 12 19.5t26 27.5q12 16 21.5 30.5t17.5 26.5q8 11 14.5 15t15.5 4q8 0 14.5 -1t13.5 -1q8 0 15 1t15 1t12.5 -4.5t4.5 -10.5z" />
    <glyph glyph-name="Acircumflex" unicode="&#xc2;" horiz-adv-x="685" 
d="M514 716q28 0 51 -1.5t38.5 -8.5t24 -20t8.5 -37q0 -32 -27 -58.5t-68 -51.5l-318 -191q-40 -24 -64.5 -59.5t-24.5 -74.5q0 -8 1 -18.5t4.5 -20t11 -16t20.5 -6.5q11 0 18 4t9 4q4 0 4 -3q0 -2 -2 -5.5t-2 -11.5q0 -15 2 -27t2 -26q0 -45 -20.5 -69.5t-64.5 -24.5
q-26 0 -42 10.5t-25 26.5t-12.5 35.5t-3.5 37.5q0 39 12.5 88.5t31.5 102.5t41.5 105t43.5 96t37.5 75.5t22.5 43.5q18 34 18 44q0 7 -11.5 9t-29.5 2q-16 0 -27 -3t-11 -14q0 -24 35 -49l-28 -52q-22 13 -41.5 28t-34 30t-23 30t-8.5 30t8 24.5t21 14t30 6t35 1.5h358z
M174 378l2 -2l278 168q42 25 57 45.5t15 36.5q0 14 -6.5 26t-20.5 12q-13 0 -19 -8t-6 -20q0 -11 2.5 -23t5.5 -23q-26 -20 -53.5 -36.5t-55.5 -32.5l-17 66q-7 26 -15 39.5t-25 13.5q-11 0 -22 -12t-22.5 -31t-21.5 -41.5t-19 -43.5zM502 490l63 -291q7 -34 12.5 -54
t10 -31.5t8.5 -16t8 -6.5q4 -3 17.5 -11t27 -17.5t24.5 -20t11 -18.5t-7 -14t-17.5 -9.5t-22 -5t-20.5 -1.5q-19 0 -40 3t-42 3q-26 0 -48.5 -3t-44.5 -3q-8 0 -18.5 2t-19.5 5.5t-15.5 8.5t-6.5 12q0 14 12 24t26.5 18.5t26.5 16t12 15.5q0 5 -2.5 19.5t-5.5 32t-6.5 36
t-6.5 30.5l-43 212zM343 824q-13 -10 -25.5 -19t-30.5 -20q-21 -11 -40 -18t-27 -7q-12 0 -12 9q0 6 11.5 17.5l28.5 28.5t34 37.5t32 36.5q11 11 29 11t29 -11q15 -16 32 -36.5t34 -37.5l28.5 -28.5t11.5 -17.5q0 -9 -12 -9q-8 0 -27 7t-40 18q-18 11 -30.5 20t-25.5 19z
" />
    <glyph glyph-name="Atilde" unicode="&#xc3;" horiz-adv-x="685" 
d="M514 716q28 0 51 -1.5t38.5 -8.5t24 -20t8.5 -37q0 -32 -27 -58.5t-68 -51.5l-318 -191q-40 -24 -64.5 -59.5t-24.5 -74.5q0 -8 1 -18.5t4.5 -20t11 -16t20.5 -6.5q11 0 18 4t9 4q4 0 4 -3q0 -2 -2 -5.5t-2 -11.5q0 -15 2 -27t2 -26q0 -45 -20.5 -69.5t-64.5 -24.5
q-26 0 -42 10.5t-25 26.5t-12.5 35.5t-3.5 37.5q0 39 12.5 88.5t31.5 102.5t41.5 105t43.5 96t37.5 75.5t22.5 43.5q18 34 18 44q0 7 -11.5 9t-29.5 2q-16 0 -27 -3t-11 -14q0 -24 35 -49l-28 -52q-22 13 -41.5 28t-34 30t-23 30t-8.5 30t8 24.5t21 14t30 6t35 1.5h358z
M174 378l2 -2l278 168q42 25 57 45.5t15 36.5q0 14 -6.5 26t-20.5 12q-13 0 -19 -8t-6 -20q0 -11 2.5 -23t5.5 -23q-26 -20 -53.5 -36.5t-55.5 -32.5l-17 66q-7 26 -15 39.5t-25 13.5q-11 0 -22 -12t-22.5 -31t-21.5 -41.5t-19 -43.5zM502 490l63 -291q7 -34 12.5 -54
t10 -31.5t8.5 -16t8 -6.5q4 -3 17.5 -11t27 -17.5t24.5 -20t11 -18.5t-7 -14t-17.5 -9.5t-22 -5t-20.5 -1.5q-19 0 -40 3t-42 3q-26 0 -48.5 -3t-44.5 -3q-8 0 -18.5 2t-19.5 5.5t-15.5 8.5t-6.5 12q0 14 12 24t26.5 18.5t26.5 16t12 15.5q0 5 -2.5 19.5t-5.5 32t-6.5 36
t-6.5 30.5l-43 212zM283 891q16 0 34 -5.5t36 -12.5t35 -13t31 -6q33 0 44 21q6 12 10.5 20t11.5 8q8 0 10 -8t2 -25q0 -15 -7.5 -29t-19.5 -25.5t-28 -18.5t-33 -7q-20 0 -38.5 4.5t-36.5 11.5q-18 8 -35 13.5t-34 5.5q-12 0 -21 -6.5t-17 -16.5q-7 -11 -11.5 -19t-10.5 -8
q-8 0 -11 10t-3 25q0 16 7.5 30.5t20 25.5t29 18t35.5 7z" />
    <glyph glyph-name="Adieresis" unicode="&#xc4;" horiz-adv-x="685" 
d="M514 716q28 0 51 -1.5t38.5 -8.5t24 -20t8.5 -37q0 -32 -27 -58.5t-68 -51.5l-318 -191q-40 -24 -64.5 -59.5t-24.5 -74.5q0 -8 1 -18.5t4.5 -20t11 -16t20.5 -6.5q11 0 18 4t9 4q4 0 4 -3q0 -2 -2 -5.5t-2 -11.5q0 -15 2 -27t2 -26q0 -45 -20.5 -69.5t-64.5 -24.5
q-26 0 -42 10.5t-25 26.5t-12.5 35.5t-3.5 37.5q0 39 12.5 88.5t31.5 102.5t41.5 105t43.5 96t37.5 75.5t22.5 43.5q18 34 18 44q0 7 -11.5 9t-29.5 2q-16 0 -27 -3t-11 -14q0 -24 35 -49l-28 -52q-22 13 -41.5 28t-34 30t-23 30t-8.5 30t8 24.5t21 14t30 6t35 1.5h358z
M174 378l2 -2l278 168q42 25 57 45.5t15 36.5q0 14 -6.5 26t-20.5 12q-13 0 -19 -8t-6 -20q0 -11 2.5 -23t5.5 -23q-26 -20 -53.5 -36.5t-55.5 -32.5l-17 66q-7 26 -15 39.5t-25 13.5q-11 0 -22 -12t-22.5 -31t-21.5 -41.5t-19 -43.5zM502 490l63 -291q7 -34 12.5 -54
t10 -31.5t8.5 -16t8 -6.5q4 -3 17.5 -11t27 -17.5t24.5 -20t11 -18.5t-7 -14t-17.5 -9.5t-22 -5t-20.5 -1.5q-19 0 -40 3t-42 3q-26 0 -48.5 -3t-44.5 -3q-8 0 -18.5 2t-19.5 5.5t-15.5 8.5t-6.5 12q0 14 12 24t26.5 18.5t26.5 16t12 15.5q0 5 -2.5 19.5t-5.5 32t-6.5 36
t-6.5 30.5l-43 212zM318 828q0 -24 -18.5 -36t-50.5 -12q-30 0 -47.5 12t-17.5 36q0 23 17.5 34.5t47.5 11.5q32 0 50.5 -11.5t18.5 -34.5zM370 828q0 23 18 34.5t50 11.5q30 0 48 -11.5t18 -34.5q0 -24 -18 -36t-48 -12q-32 0 -50 12t-18 36z" />
    <glyph glyph-name="Aring" unicode="&#xc5;" horiz-adv-x="685" 
d="M514 716q28 0 51 -1.5t38.5 -8.5t24 -20t8.5 -37q0 -32 -27 -58.5t-68 -51.5l-318 -191q-40 -24 -64.5 -59.5t-24.5 -74.5q0 -8 1 -18.5t4.5 -20t11 -16t20.5 -6.5q11 0 18 4t9 4q4 0 4 -3q0 -2 -2 -5.5t-2 -11.5q0 -15 2 -27t2 -26q0 -45 -20.5 -69.5t-64.5 -24.5
q-26 0 -42 10.5t-25 26.5t-12.5 35.5t-3.5 37.5q0 39 12.5 88.5t31.5 102.5t41.5 105t43.5 96t37.5 75.5t22.5 43.5q18 34 18 44q0 7 -11.5 9t-29.5 2q-16 0 -27 -3t-11 -14q0 -24 35 -49l-28 -52q-22 13 -41.5 28t-34 30t-23 30t-8.5 30t8 24.5t21 14t30 6t35 1.5h358z
M174 378l2 -2l278 168q42 25 57 45.5t15 36.5q0 14 -6.5 26t-20.5 12q-13 0 -19 -8t-6 -20q0 -11 2.5 -23t5.5 -23q-26 -20 -53.5 -36.5t-55.5 -32.5l-17 66q-7 26 -15 39.5t-25 13.5q-11 0 -22 -12t-22.5 -31t-21.5 -41.5t-19 -43.5zM502 490l63 -291q7 -34 12.5 -54
t10 -31.5t8.5 -16t8 -6.5q4 -3 17.5 -11t27 -17.5t24.5 -20t11 -18.5t-7 -14t-17.5 -9.5t-22 -5t-20.5 -1.5q-19 0 -40 3t-42 3q-26 0 -48.5 -3t-44.5 -3q-8 0 -18.5 2t-19.5 5.5t-15.5 8.5t-6.5 12q0 14 12 24t26.5 18.5t26.5 16t12 15.5q0 5 -2.5 19.5t-5.5 32t-6.5 36
t-6.5 30.5l-43 212zM484 827q0 -21 -10 -36.5t-26.5 -26t-37 -15.5t-41.5 -5t-41.5 5.5t-37 16t-26.5 26t-10 35.5t10 35.5t26.5 26t37 16t41.5 5.5t41.5 -5t37 -15.5t26.5 -26t10 -36.5zM369 778q26 0 46.5 13t20.5 36t-20.5 36t-46.5 13t-46.5 -13t-20.5 -36t20.5 -36
t46.5 -13z" />
    <glyph glyph-name="AE" unicode="&#xc6;" horiz-adv-x="981" 
d="M331 435l-149 -355q8 -6 19 -14.5t20.5 -16.5t16 -16.5t6.5 -14.5q0 -5 -5 -9.5t-12 -7.5t-15 -5t-13 -2q-15 0 -39 3q-11 1 -22.5 2t-21.5 1q-5 0 -16.5 -0.5t-25.5 -2.5q-13 -1 -24.5 -2t-16.5 -1q-21 0 -36.5 9t-15.5 19q0 7 7 14.5t17.5 14t23 13t23.5 12.5l178 425z
M474 375l-74 45q-75 46 -127.5 79t-85 59t-47 47.5t-14.5 45.5q0 13 4.5 24.5t16.5 20.5t32 14.5t52 5.5h517q63 0 101.5 -3.5t58.5 -9t26.5 -13t6.5 -15.5q0 -20 -27.5 -43t-66.5 -46.5t-82.5 -46.5t-74.5 -42q-5 -3 -12 -7.5t-13.5 -9.5t-11.5 -9t-5 -6q0 -10 12 -10
q4 0 13.5 3.5t22 8t27.5 8.5t31 4q19 0 37 -4.5t32 -13.5t22.5 -22.5t8.5 -31.5q0 -19 -10.5 -34.5t-32.5 -16.5q4 7 2.5 15t-12.5 8q-13 0 -31 -3.5t-38 -8.5t-39.5 -8.5t-36.5 -3.5q-29 0 -52.5 15.5t-23.5 43.5q0 24 15 45.5t37.5 41.5t49 38t49 35t37.5 32.5t15 31.5
q0 18 -29.5 22t-72.5 4q-39 0 -59 -12.5t-20 -50.5v-99q-20 -16 -32 -36.5t-12 -46.5q0 -24 13 -43t31 -32v-117q0 -27 7.5 -46t28 -30.5t56 -17t92.5 -5.5h27q48 0 70.5 14t26.5 37q8 -3 17.5 -10t17.5 -17.5t13.5 -24.5t5.5 -32q0 -51 -30 -76t-87 -25q-17 0 -38.5 1
t-46.5 2q-50 3 -105 3q-33 0 -57 -0.5t-42 -2.5q-18 -1 -31.5 -2t-25.5 -1q-15 0 -36.5 2.5t-42 7.5t-34.5 14t-14 21q0 9 15.5 19t34.5 21.5t34.5 24.5t15.5 29v242zM474 580q0 32 -12.5 40t-22.5 8q-19 0 -35.5 -30t-36.5 -78q-22 14 -50.5 34.5t-46.5 43.5q6 14 10 23.5
t4 18.5t-4 16.5t-17 7.5q-14 0 -20.5 -13t-6.5 -31t19.5 -39.5t48 -43.5t61.5 -43t60 -38l49 -31v155z" />
    <glyph glyph-name="Ccedilla" unicode="&#xc7;" horiz-adv-x="648" 
d="M347 -42q7 1 17.5 2t27.5 1q21 0 35 -14t14 -38q0 -32 -22 -51t-53 -19q-24 0 -43.5 4.5t-32.5 4.5q-11 0 -21 -2.5t-17 -10.5q3 18 14 32.5t25 14.5q12 0 26.5 -1.5t26.5 -1.5q9 0 18 6t9 19q0 23 -25 23q-11 0 -19.5 -3t-15.5 -3q-6 0 -11 2.5t-5 8.5q0 11 13 30t21 35
q-66 7 -118 36t-88.5 74t-56 104t-19.5 126q0 89 26 160.5t69 121.5t99 76.5t116 26.5q48 0 90 -11t73.5 -32t49.5 -52t18 -70q0 -32 -11 -56t-30 -40t-44.5 -24.5t-54.5 -8.5q-34 0 -57.5 11.5t-37.5 27.5t-20.5 34t-6.5 32q0 18 -7 27t-15 9q-14 0 -14 -13q0 -6 4 -13
q-3 -4 -10 -7t-15 -3q-21 0 -29 11t-8 28q0 23 17.5 36t37.5 13q24 0 38 -10t25.5 -22.5t23 -22.5t31.5 -10q24 0 36.5 15.5t12.5 33.5q0 20 -9 33.5t-24 22t-34.5 12t-39.5 3.5q-49 0 -87 -22t-64.5 -58.5t-40.5 -85t-14 -100.5q0 -66 24 -117.5t61.5 -86.5t84.5 -53.5
t93 -18.5q27 0 55.5 4.5t53.5 16t44 30.5t27 48q21 -3 34.5 -25t14.5 -57q0 -47 -26 -77t-65.5 -48t-86.5 -25t-88 -7z" />
    <glyph glyph-name="Egrave" unicode="&#xc8;" horiz-adv-x="611" 
d="M108 562q0 18 -3.5 29t-11 19t-19.5 15t-28 17q-17 11 -27 17.5t-10 16.5q0 20 36 30t103 10h291q65 0 99 -9.5t34 -33.5q0 -18 -22 -38.5t-54.5 -41t-70.5 -41t-70.5 -37.5t-54.5 -30.5t-22 -20.5q0 -8 9 -8q7 0 17.5 4t23.5 9t29 9t35 4q15 0 31.5 -4t31 -12.5t24 -21
t9.5 -30.5q0 -20 -10 -37.5t-32 -20.5q2 6 2 10q0 6 -5 11t-18 5q-14 0 -31 -4t-35 -9t-36.5 -9t-36.5 -4q-30 0 -51.5 20t-21.5 49q0 20 15 40.5t37 39t48.5 36.5t48.5 33.5t37 29t15 24.5q0 23 -24.5 29.5t-66.5 6.5q-45 0 -66 -9.5t-21 -48.5v-101q-20 -16 -33.5 -37.5
t-13.5 -48.5q0 -25 16.5 -44t30.5 -30v-138q0 -26 12.5 -42t36.5 -24t58.5 -10.5t77.5 -2.5q20 0 40 1t36.5 6.5t28.5 16t16 29.5q28 -11 42 -35t14 -53q0 -49 -35.5 -74t-95.5 -25q-39 0 -80 3t-89 3q-26 0 -54 -1t-54.5 -2t-49.5 -2t-38 -1q-17 0 -34 4t-31.5 10
t-23.5 13.5t-9 15.5q0 12 16 22.5t35.5 21.5t36 23.5t16.5 27.5v430zM181 882q0 6 4.5 10.5t12.5 4.5t15 -1t15 -1q7 0 13.5 1t14.5 1q9 0 15.5 -4t14.5 -15q8 -12 17.5 -26.5t21.5 -30.5q14 -17 26 -27.5t12 -19.5q0 -11 -18 -11q-24 0 -52.5 13t-53 32t-41.5 39.5
t-17 34.5z" />
    <glyph glyph-name="Eacute" unicode="&#xc9;" horiz-adv-x="611" 
d="M108 562q0 18 -3.5 29t-11 19t-19.5 15t-28 17q-17 11 -27 17.5t-10 16.5q0 20 36 30t103 10h291q65 0 99 -9.5t34 -33.5q0 -18 -22 -38.5t-54.5 -41t-70.5 -41t-70.5 -37.5t-54.5 -30.5t-22 -20.5q0 -8 9 -8q7 0 17.5 4t23.5 9t29 9t35 4q15 0 31.5 -4t31 -12.5t24 -21
t9.5 -30.5q0 -20 -10 -37.5t-32 -20.5q2 6 2 10q0 6 -5 11t-18 5q-14 0 -31 -4t-35 -9t-36.5 -9t-36.5 -4q-30 0 -51.5 20t-21.5 49q0 20 15 40.5t37 39t48.5 36.5t48.5 33.5t37 29t15 24.5q0 23 -24.5 29.5t-66.5 6.5q-45 0 -66 -9.5t-21 -48.5v-101q-20 -16 -33.5 -37.5
t-13.5 -48.5q0 -25 16.5 -44t30.5 -30v-138q0 -26 12.5 -42t36.5 -24t58.5 -10.5t77.5 -2.5q20 0 40 1t36.5 6.5t28.5 16t16 29.5q28 -11 42 -35t14 -53q0 -49 -35.5 -74t-95.5 -25q-39 0 -80 3t-89 3q-26 0 -54 -1t-54.5 -2t-49.5 -2t-38 -1q-17 0 -34 4t-31.5 10
t-23.5 13.5t-9 15.5q0 12 16 22.5t35.5 21.5t36 23.5t16.5 27.5v430zM433 882q0 -14 -17 -34.5t-41.5 -39.5t-53 -32t-52.5 -13q-18 0 -18 11q0 9 12 19.5t26 27.5q12 16 21.5 30.5t17.5 26.5q8 11 14.5 15t15.5 4q8 0 14.5 -1t13.5 -1q8 0 15 1t15 1t12.5 -4.5t4.5 -10.5z
" />
    <glyph glyph-name="Ecircumflex" unicode="&#xca;" horiz-adv-x="611" 
d="M108 562q0 18 -3.5 29t-11 19t-19.5 15t-28 17q-17 11 -27 17.5t-10 16.5q0 20 36 30t103 10h291q65 0 99 -9.5t34 -33.5q0 -18 -22 -38.5t-54.5 -41t-70.5 -41t-70.5 -37.5t-54.5 -30.5t-22 -20.5q0 -8 9 -8q7 0 17.5 4t23.5 9t29 9t35 4q15 0 31.5 -4t31 -12.5t24 -21
t9.5 -30.5q0 -20 -10 -37.5t-32 -20.5q2 6 2 10q0 6 -5 11t-18 5q-14 0 -31 -4t-35 -9t-36.5 -9t-36.5 -4q-30 0 -51.5 20t-21.5 49q0 20 15 40.5t37 39t48.5 36.5t48.5 33.5t37 29t15 24.5q0 23 -24.5 29.5t-66.5 6.5q-45 0 -66 -9.5t-21 -48.5v-101q-20 -16 -33.5 -37.5
t-13.5 -48.5q0 -25 16.5 -44t30.5 -30v-138q0 -26 12.5 -42t36.5 -24t58.5 -10.5t77.5 -2.5q20 0 40 1t36.5 6.5t28.5 16t16 29.5q28 -11 42 -35t14 -53q0 -49 -35.5 -74t-95.5 -25q-39 0 -80 3t-89 3q-26 0 -54 -1t-54.5 -2t-49.5 -2t-38 -1q-17 0 -34 4t-31.5 10
t-23.5 13.5t-9 15.5q0 12 16 22.5t35.5 21.5t36 23.5t16.5 27.5v430zM307 824q-13 -10 -25.5 -19t-30.5 -20q-21 -11 -40 -18t-27 -7q-12 0 -12 9q0 6 11.5 17.5l28.5 28.5t34 37.5t32 36.5q11 11 29 11t29 -11q15 -16 32 -36.5t34 -37.5l28.5 -28.5t11.5 -17.5q0 -9 -12 -9
q-8 0 -27 7t-40 18q-18 11 -30.5 20t-25.5 19z" />
    <glyph glyph-name="Edieresis" unicode="&#xcb;" horiz-adv-x="611" 
d="M108 562q0 18 -3.5 29t-11 19t-19.5 15t-28 17q-17 11 -27 17.5t-10 16.5q0 20 36 30t103 10h291q65 0 99 -9.5t34 -33.5q0 -18 -22 -38.5t-54.5 -41t-70.5 -41t-70.5 -37.5t-54.5 -30.5t-22 -20.5q0 -8 9 -8q7 0 17.5 4t23.5 9t29 9t35 4q15 0 31.5 -4t31 -12.5t24 -21
t9.5 -30.5q0 -20 -10 -37.5t-32 -20.5q2 6 2 10q0 6 -5 11t-18 5q-14 0 -31 -4t-35 -9t-36.5 -9t-36.5 -4q-30 0 -51.5 20t-21.5 49q0 20 15 40.5t37 39t48.5 36.5t48.5 33.5t37 29t15 24.5q0 23 -24.5 29.5t-66.5 6.5q-45 0 -66 -9.5t-21 -48.5v-101q-20 -16 -33.5 -37.5
t-13.5 -48.5q0 -25 16.5 -44t30.5 -30v-138q0 -26 12.5 -42t36.5 -24t58.5 -10.5t77.5 -2.5q20 0 40 1t36.5 6.5t28.5 16t16 29.5q28 -11 42 -35t14 -53q0 -49 -35.5 -74t-95.5 -25q-39 0 -80 3t-89 3q-26 0 -54 -1t-54.5 -2t-49.5 -2t-38 -1q-17 0 -34 4t-31.5 10
t-23.5 13.5t-9 15.5q0 12 16 22.5t35.5 21.5t36 23.5t16.5 27.5v430zM280 828q0 -24 -18.5 -36t-50.5 -12q-30 0 -47.5 12t-17.5 36q0 23 17.5 34.5t47.5 11.5q32 0 50.5 -11.5t18.5 -34.5zM332 828q0 23 18 34.5t50 11.5q30 0 48 -11.5t18 -34.5q0 -24 -18 -36t-48 -12
q-32 0 -50 12t-18 36z" />
    <glyph glyph-name="Igrave" unicode="&#xcc;" horiz-adv-x="500" 
d="M264 513q0 15 -6.5 24.5t-14.5 16t-14.5 11t-6.5 10.5q0 11 8.5 16t22.5 9l84 22q17 5 26 10t9 14q0 11 -36 14.5t-96 3.5q-33 0 -53 -2t-30.5 -5t-13.5 -7.5t-3 -8.5q0 -7 8 -15.5t17.5 -18.5t17.5 -21.5t8 -25.5q0 -27 -20 -40.5t-52 -13.5q-41 0 -52 40q8 0 16 2.5
t8 12.5t-12.5 21t-27 23.5t-27 27t-12.5 32.5q0 19 21 29t54 15t74 6t80 1q16 0 40.5 -0.5t53 -2.5t57 -5.5t51 -8.5t37 -13t14.5 -18q0 -20 -15 -30t-33 -18t-33 -20t-15 -37v-377q0 -23 6 -30t13.5 -11.5t13.5 -13.5t6 -35q0 -27 -16 -46.5t-45 -31.5t-69 -18t-87 -6
q-35 0 -72.5 2.5t-69 13.5t-52 32t-20.5 59q0 32 13.5 52t29.5 33.5t29.5 23t13.5 19.5q0 11 -4 18q4 1 8 1.5t11 0.5q10 0 20.5 -5t10.5 -20q0 -11 -3 -21t-3 -33t16 -32.5t46 -9.5q25 0 39 8.5t21 22t8.5 30t1.5 33.5v291zM124 882q0 6 4.5 10.5t12.5 4.5t15 -1t15 -1
q7 0 13.5 1t14.5 1q9 0 15.5 -4t14.5 -15q8 -12 17.5 -26.5t21.5 -30.5q14 -17 26 -27.5t12 -19.5q0 -11 -18 -11q-24 0 -52.5 13t-53 32t-41.5 39.5t-17 34.5z" />
    <glyph glyph-name="Iacute" unicode="&#xcd;" horiz-adv-x="500" 
d="M264 513q0 15 -6.5 24.5t-14.5 16t-14.5 11t-6.5 10.5q0 11 8.5 16t22.5 9l84 22q17 5 26 10t9 14q0 11 -36 14.5t-96 3.5q-33 0 -53 -2t-30.5 -5t-13.5 -7.5t-3 -8.5q0 -7 8 -15.5t17.5 -18.5t17.5 -21.5t8 -25.5q0 -27 -20 -40.5t-52 -13.5q-41 0 -52 40q8 0 16 2.5
t8 12.5t-12.5 21t-27 23.5t-27 27t-12.5 32.5q0 19 21 29t54 15t74 6t80 1q16 0 40.5 -0.5t53 -2.5t57 -5.5t51 -8.5t37 -13t14.5 -18q0 -20 -15 -30t-33 -18t-33 -20t-15 -37v-377q0 -23 6 -30t13.5 -11.5t13.5 -13.5t6 -35q0 -27 -16 -46.5t-45 -31.5t-69 -18t-87 -6
q-35 0 -72.5 2.5t-69 13.5t-52 32t-20.5 59q0 32 13.5 52t29.5 33.5t29.5 23t13.5 19.5q0 11 -4 18q4 1 8 1.5t11 0.5q10 0 20.5 -5t10.5 -20q0 -11 -3 -21t-3 -33t16 -32.5t46 -9.5q25 0 39 8.5t21 22t8.5 30t1.5 33.5v291zM377 882q0 -14 -17 -34.5t-41.5 -39.5t-53 -32
t-52.5 -13q-18 0 -18 11q0 9 12 19.5t26 27.5q12 16 21.5 30.5t17.5 26.5q8 11 14.5 15t15.5 4q8 0 14.5 -1t13.5 -1q8 0 15 1t15 1t12.5 -4.5t4.5 -10.5z" />
    <glyph glyph-name="Icircumflex" unicode="&#xce;" horiz-adv-x="500" 
d="M264 513q0 15 -6.5 24.5t-14.5 16t-14.5 11t-6.5 10.5q0 11 8.5 16t22.5 9l84 22q17 5 26 10t9 14q0 11 -36 14.5t-96 3.5q-33 0 -53 -2t-30.5 -5t-13.5 -7.5t-3 -8.5q0 -7 8 -15.5t17.5 -18.5t17.5 -21.5t8 -25.5q0 -27 -20 -40.5t-52 -13.5q-41 0 -52 40q8 0 16 2.5
t8 12.5t-12.5 21t-27 23.5t-27 27t-12.5 32.5q0 19 21 29t54 15t74 6t80 1q16 0 40.5 -0.5t53 -2.5t57 -5.5t51 -8.5t37 -13t14.5 -18q0 -20 -15 -30t-33 -18t-33 -20t-15 -37v-377q0 -23 6 -30t13.5 -11.5t13.5 -13.5t6 -35q0 -27 -16 -46.5t-45 -31.5t-69 -18t-87 -6
q-35 0 -72.5 2.5t-69 13.5t-52 32t-20.5 59q0 32 13.5 52t29.5 33.5t29.5 23t13.5 19.5q0 11 -4 18q4 1 8 1.5t11 0.5q10 0 20.5 -5t10.5 -20q0 -11 -3 -21t-3 -33t16 -32.5t46 -9.5q25 0 39 8.5t21 22t8.5 30t1.5 33.5v291zM249 824q-13 -10 -25.5 -19t-30.5 -20
q-21 -11 -40 -18t-27 -7q-12 0 -12 9q0 6 11.5 17.5l28.5 28.5t34 37.5t32 36.5q11 11 29 11t29 -11q15 -16 32 -36.5t34 -37.5l28.5 -28.5t11.5 -17.5q0 -9 -12 -9q-8 0 -27 7t-40 18q-18 11 -30.5 20t-25.5 19z" />
    <glyph glyph-name="Idieresis" unicode="&#xcf;" horiz-adv-x="500" 
d="M264 513q0 15 -6.5 24.5t-14.5 16t-14.5 11t-6.5 10.5q0 11 8.5 16t22.5 9l84 22q17 5 26 10t9 14q0 11 -36 14.5t-96 3.5q-33 0 -53 -2t-30.5 -5t-13.5 -7.5t-3 -8.5q0 -7 8 -15.5t17.5 -18.5t17.5 -21.5t8 -25.5q0 -27 -20 -40.5t-52 -13.5q-41 0 -52 40q8 0 16 2.5
t8 12.5t-12.5 21t-27 23.5t-27 27t-12.5 32.5q0 19 21 29t54 15t74 6t80 1q16 0 40.5 -0.5t53 -2.5t57 -5.5t51 -8.5t37 -13t14.5 -18q0 -20 -15 -30t-33 -18t-33 -20t-15 -37v-377q0 -23 6 -30t13.5 -11.5t13.5 -13.5t6 -35q0 -27 -16 -46.5t-45 -31.5t-69 -18t-87 -6
q-35 0 -72.5 2.5t-69 13.5t-52 32t-20.5 59q0 32 13.5 52t29.5 33.5t29.5 23t13.5 19.5q0 11 -4 18q4 1 8 1.5t11 0.5q10 0 20.5 -5t10.5 -20q0 -11 -3 -21t-3 -33t16 -32.5t46 -9.5q25 0 39 8.5t21 22t8.5 30t1.5 33.5v291zM223 828q0 -24 -18.5 -36t-50.5 -12
q-30 0 -47.5 12t-17.5 36q0 23 17.5 34.5t47.5 11.5q32 0 50.5 -11.5t18.5 -34.5zM275 828q0 23 18 34.5t50 11.5q30 0 48 -11.5t18 -34.5q0 -24 -18 -36t-48 -12q-32 0 -50 12t-18 36z" />
    <glyph glyph-name="Eth" unicode="&#xd0;" horiz-adv-x="667" 
d="M260 555l-128 61q0 6 -0.5 14t-2.5 15.5t-6.5 13t-12.5 5.5q-14 0 -19 -7.5t-5 -16.5q0 -20 15 -30.5t28 -16.5l126 -61q43 -20 61 -34.5t18 -34.5q0 -11 -8.5 -22.5t-30.5 -22.5v-2h110q15 0 21 -9.5t6 -17.5q0 -11 -6.5 -21t-20.5 -10h-145v-91q0 -11 4.5 -18t9.5 -11
t9.5 -7.5t4.5 -9.5q0 -7 -7.5 -11.5t-20.5 -11t-31 -17.5t-38 -30q20 -7 44 -9t52 -2q54 0 95.5 14t70 44.5t43 79t14.5 118.5q0 61 -14.5 111.5t-41.5 86.5t-64 56t-82 20q-13 0 -24.5 -3t-23.5 -6v-106zM132 358h-95q-7 0 -14 5t-12.5 12t-9 14t-3.5 11q0 10 5.5 13
t17.5 3h111v104q32 -16 63.5 -33t64.5 -35v-36h3q11 7 15 14.5t4 18.5q0 13 -14 23.5t-31 19.5l-161 82q-13 6 -28.5 15.5t-29 22t-23 27t-9.5 30.5q0 18 8 27.5t22 14t32.5 5t39.5 0.5q26 0 53 -1t53 -1q29 0 57.5 1t57.5 1q84 0 143.5 -33t96.5 -88.5t54 -127.5t17 -150
q0 -69 -20.5 -128t-58 -102.5t-89.5 -68t-116 -24.5q-28 0 -59 3q-15 1 -29.5 2t-27.5 1q-31 0 -59 -3l-28 -2t-28 -1q-9 0 -27 1.5t-36.5 6t-32 13.5t-13.5 23q0 12 10 25t25 26t33 26.5t33 26t25 25t10 23.5v168z" />
    <glyph glyph-name="Ntilde" unicode="&#xd1;" horiz-adv-x="759" 
d="M129 573v26q0 17 -3 29t-19 12q-14 -2 -19 -12.5t-5 -21.5q0 -31 26 -47l252 -155q25 -16 41.5 -28t25.5 -22.5t12.5 -20.5t3.5 -23q0 -26 -19.5 -41.5t-45.5 -15.5q-23 0 -41.5 16t-27.5 36q11 2 22.5 6t11.5 15q0 8 -8.5 16.5t-37.5 25.5l-246 151q-25 15 -41 41.5
t-16 57.5t12.5 51t32.5 32t45 16.5t50 4.5q37 0 73 -1.5t73 -1.5t73 1.5t73 1.5q58 0 105.5 -12t81.5 -37.5t52.5 -66t18.5 -96.5q0 -59 -22 -106.5t-48 -86.5t-48 -70.5t-22 -57.5q0 -14 9 -25t25 -11q20 0 39.5 7t45.5 7q16 0 30 -6.5t24 -17t15.5 -24t5.5 -27.5
q0 -33 -7.5 -56.5t-27.5 -41.5q-5 8 -17 13q-10 5 -17 5q-11 0 -22 -2.5t-23 -6.5q-11 -4 -24.5 -6.5t-29.5 -2.5q-21 0 -40 9t-32.5 25t-21.5 37.5t-8 47.5q0 57 9 99t20 84q10 42 19.5 88.5t9.5 108.5q0 37 -13 67t-35 50t-49.5 31t-57.5 11h-74q-16 0 -28.5 -5t-12.5 -20
v-131zM257 366v-252q0 -14 15.5 -25.5t34.5 -21.5t34.5 -19.5t15.5 -20.5q0 -9 -8.5 -15.5t-20.5 -10t-25 -5.5t-21 -2q-23 0 -43 3t-46 3t-46 -3t-43 -3q-8 0 -21 2t-25 5.5t-20.5 10t-8.5 15.5q0 11 15.5 20.5t34.5 19.5t34.5 21.5t15.5 25.5v330zM294 880q16 0 34 -5.5
t36 -12.5t35 -13t31 -6q33 0 44 21q6 12 10.5 20t11.5 8q8 0 10 -8t2 -25q0 -15 -7.5 -29t-19.5 -25.5t-28 -18.5t-33 -7q-20 0 -38.5 4.5t-36.5 11.5q-18 8 -35 13.5t-34 5.5q-12 0 -21 -6.5t-17 -16.5q-7 -11 -11.5 -19t-10.5 -8q-8 0 -11 10t-3 25q0 16 7.5 30.5t20 25.5
t29 18t35.5 7z" />
    <glyph glyph-name="Ograve" unicode="&#xd2;" horiz-adv-x="666" 
d="M47 344q0 69 16 136.5t51 121.5t90.5 87t134.5 33q73 0 126 -29t87.5 -79.5t50.5 -119.5t16 -149q0 -48 -12 -108.5t-36 -114.5t-60.5 -91t-85.5 -37q-17 0 -30 1t-24 2q-11 2 -20.5 2.5t-21.5 0.5q-18 0 -37 -3q-10 -1 -21 -2t-25 -1q-39 0 -75 29.5t-63.5 78t-44 111.5
t-16.5 131zM341 670q-59 0 -96.5 -27t-59 -66.5t-30 -84.5t-8.5 -82q0 -13 1 -31t3 -36.5t6 -37t10 -33.5h1q7 56 30.5 91.5t54.5 59t64.5 39.5t61.5 32.5t46.5 38.5t18.5 58q0 21 -8.5 36t-23 24.5t-33 14t-38.5 4.5zM213 252q0 -58 35.5 -81.5t97.5 -23.5q49 0 82 23
t53 58.5t29 78.5t9 82q0 45 -4.5 89.5t-27.5 84.5h-1h-2q-3 -40 -24.5 -65.5t-51.5 -44.5t-64.5 -35t-63.5 -37.5t-48 -51.5t-19 -77zM205 882q0 6 4.5 10.5t12.5 4.5t15 -1t15 -1q7 0 13.5 1t14.5 1q9 0 15.5 -4t14.5 -15q8 -12 17.5 -26.5t21.5 -30.5q14 -17 26 -27.5
t12 -19.5q0 -11 -18 -11q-24 0 -52.5 13t-53 32t-41.5 39.5t-17 34.5z" />
    <glyph glyph-name="Oacute" unicode="&#xd3;" horiz-adv-x="666" 
d="M47 344q0 69 16 136.5t51 121.5t90.5 87t134.5 33q73 0 126 -29t87.5 -79.5t50.5 -119.5t16 -149q0 -48 -12 -108.5t-36 -114.5t-60.5 -91t-85.5 -37q-17 0 -30 1t-24 2q-11 2 -20.5 2.5t-21.5 0.5q-18 0 -37 -3q-10 -1 -21 -2t-25 -1q-39 0 -75 29.5t-63.5 78t-44 111.5
t-16.5 131zM341 670q-59 0 -96.5 -27t-59 -66.5t-30 -84.5t-8.5 -82q0 -13 1 -31t3 -36.5t6 -37t10 -33.5h1q7 56 30.5 91.5t54.5 59t64.5 39.5t61.5 32.5t46.5 38.5t18.5 58q0 21 -8.5 36t-23 24.5t-33 14t-38.5 4.5zM213 252q0 -58 35.5 -81.5t97.5 -23.5q49 0 82 23
t53 58.5t29 78.5t9 82q0 45 -4.5 89.5t-27.5 84.5h-1h-2q-3 -40 -24.5 -65.5t-51.5 -44.5t-64.5 -35t-63.5 -37.5t-48 -51.5t-19 -77zM458 882q0 -14 -17 -34.5t-41.5 -39.5t-53 -32t-52.5 -13q-18 0 -18 11q0 9 12 19.5t26 27.5q12 16 21.5 30.5t17.5 26.5q8 11 14.5 15
t15.5 4q8 0 14.5 -1t13.5 -1q8 0 15 1t15 1t12.5 -4.5t4.5 -10.5z" />
    <glyph glyph-name="Ocircumflex" unicode="&#xd4;" horiz-adv-x="666" 
d="M47 344q0 69 16 136.5t51 121.5t90.5 87t134.5 33q73 0 126 -29t87.5 -79.5t50.5 -119.5t16 -149q0 -48 -12 -108.5t-36 -114.5t-60.5 -91t-85.5 -37q-17 0 -30 1t-24 2q-11 2 -20.5 2.5t-21.5 0.5q-18 0 -37 -3q-10 -1 -21 -2t-25 -1q-39 0 -75 29.5t-63.5 78t-44 111.5
t-16.5 131zM341 670q-59 0 -96.5 -27t-59 -66.5t-30 -84.5t-8.5 -82q0 -13 1 -31t3 -36.5t6 -37t10 -33.5h1q7 56 30.5 91.5t54.5 59t64.5 39.5t61.5 32.5t46.5 38.5t18.5 58q0 21 -8.5 36t-23 24.5t-33 14t-38.5 4.5zM213 252q0 -58 35.5 -81.5t97.5 -23.5q49 0 82 23
t53 58.5t29 78.5t9 82q0 45 -4.5 89.5t-27.5 84.5h-1h-2q-3 -40 -24.5 -65.5t-51.5 -44.5t-64.5 -35t-63.5 -37.5t-48 -51.5t-19 -77zM335 824q-13 -10 -25.5 -19t-30.5 -20q-21 -11 -40 -18t-27 -7q-12 0 -12 9q0 6 11.5 17.5l28.5 28.5t34 37.5t32 36.5q11 11 29 11
t29 -11q15 -16 32 -36.5t34 -37.5l28.5 -28.5t11.5 -17.5q0 -9 -12 -9q-8 0 -27 7t-40 18q-18 11 -30.5 20t-25.5 19z" />
    <glyph glyph-name="Otilde" unicode="&#xd5;" horiz-adv-x="666" 
d="M47 344q0 69 16 136.5t51 121.5t90.5 87t134.5 33q73 0 126 -29t87.5 -79.5t50.5 -119.5t16 -149q0 -48 -12 -108.5t-36 -114.5t-60.5 -91t-85.5 -37q-17 0 -30 1t-24 2q-11 2 -20.5 2.5t-21.5 0.5q-18 0 -37 -3q-10 -1 -21 -2t-25 -1q-39 0 -75 29.5t-63.5 78t-44 111.5
t-16.5 131zM341 670q-59 0 -96.5 -27t-59 -66.5t-30 -84.5t-8.5 -82q0 -13 1 -31t3 -36.5t6 -37t10 -33.5h1q7 56 30.5 91.5t54.5 59t64.5 39.5t61.5 32.5t46.5 38.5t18.5 58q0 21 -8.5 36t-23 24.5t-33 14t-38.5 4.5zM213 252q0 -58 35.5 -81.5t97.5 -23.5q49 0 82 23
t53 58.5t29 78.5t9 82q0 45 -4.5 89.5t-27.5 84.5h-1h-2q-3 -40 -24.5 -65.5t-51.5 -44.5t-64.5 -35t-63.5 -37.5t-48 -51.5t-19 -77zM269 880q16 0 34 -5.5t36 -12.5t35 -13t31 -6q33 0 44 21q6 12 10.5 20t11.5 8q8 0 10 -8t2 -25q0 -15 -7.5 -29t-19.5 -25.5t-28 -18.5
t-33 -7q-20 0 -38.5 4.5t-36.5 11.5q-18 8 -35 13.5t-34 5.5q-12 0 -21 -6.5t-17 -16.5q-7 -11 -11.5 -19t-10.5 -8q-8 0 -11 10t-3 25q0 16 7.5 30.5t20 25.5t29 18t35.5 7z" />
    <glyph glyph-name="Odieresis" unicode="&#xd6;" horiz-adv-x="666" 
d="M47 344q0 69 16 136.5t51 121.5t90.5 87t134.5 33q73 0 126 -29t87.5 -79.5t50.5 -119.5t16 -149q0 -48 -12 -108.5t-36 -114.5t-60.5 -91t-85.5 -37q-17 0 -30 1t-24 2q-11 2 -20.5 2.5t-21.5 0.5q-18 0 -37 -3q-10 -1 -21 -2t-25 -1q-39 0 -75 29.5t-63.5 78t-44 111.5
t-16.5 131zM341 670q-59 0 -96.5 -27t-59 -66.5t-30 -84.5t-8.5 -82q0 -13 1 -31t3 -36.5t6 -37t10 -33.5h1q7 56 30.5 91.5t54.5 59t64.5 39.5t61.5 32.5t46.5 38.5t18.5 58q0 21 -8.5 36t-23 24.5t-33 14t-38.5 4.5zM213 252q0 -58 35.5 -81.5t97.5 -23.5q49 0 82 23
t53 58.5t29 78.5t9 82q0 45 -4.5 89.5t-27.5 84.5h-1h-2q-3 -40 -24.5 -65.5t-51.5 -44.5t-64.5 -35t-63.5 -37.5t-48 -51.5t-19 -77zM308 828q0 -24 -18.5 -36t-50.5 -12q-30 0 -47.5 12t-17.5 36q0 23 17.5 34.5t47.5 11.5q32 0 50.5 -11.5t18.5 -34.5zM360 828
q0 23 18 34.5t50 11.5q30 0 48 -11.5t18 -34.5q0 -24 -18 -36t-48 -12q-32 0 -50 12t-18 36z" />
    <glyph glyph-name="multiply" unicode="&#xd7;" horiz-adv-x="600" 
d="M229 257l-131 129q-13 13 -13 32q0 20 15 34q15 15 36 15q20 0 32 -12l130 -129l129 129q13 11 31 11q22 0 37 -15t15 -33q0 -20 -15 -33l-123 -123l132 -130q12 -12 12 -31q0 -22 -15 -37t-33 -15q-9 0 -17.5 4t-15.5 10l-132 130l-138 -138q-13 -13 -31 -13
q-19 0 -35 16q-15 15 -15 35t13 33z" />
    <glyph glyph-name="Oslash" unicode="&#xd8;" horiz-adv-x="666" 
d="M222 189q37 -42 124 -42q49 0 82 23t53 58.5t29 78.5t9 82q0 45 -5 89.5t-28 84.5l-4 2zM459 609q-11 29 -44.5 45t-73.5 16q-59 0 -96.5 -27t-59 -66.5t-30 -84.5t-8.5 -82q0 -21 2 -48t7 -54t13 -51.5t19 -39.5zM108 102q-28 48 -44.5 110.5t-16.5 131.5t16 136.5
t51 121.5t90.5 87t134.5 33q51 0 90.5 -13.5t71.5 -39.5l50 73q10 16 21 16q10 0 17 -5t7 -16q0 -5 -2.5 -9.5t-6.5 -10.5l-54 -78q45 -51 65.5 -127t20.5 -167q0 -48 -12 -108.5t-36 -114.5t-60.5 -91t-85.5 -37q-17 0 -30 1t-24 2q-11 2 -20.5 2.5t-21.5 0.5q-18 0 -37 -3
q-10 -1 -21 -2t-25 -1q-31 0 -59.5 18t-52.5 50l-50 -71q-11 -15 -23 -15q-8 0 -13.5 6t-5.5 12q0 8 3 14t7 12z" />
    <glyph glyph-name="Ugrave" unicode="&#xd9;" horiz-adv-x="685" 
d="M159 557q-24 13 -47.5 29.5t-41.5 33.5t-29.5 34t-11.5 31t13 22.5t44 8.5h193q34 0 43 -10t9 -27q0 -16 -12 -35.5t-29.5 -42t-38 -49t-38 -58t-29.5 -67.5t-12 -78q0 -43 10.5 -82t33 -68.5t57.5 -47t85 -17.5q56 0 79 22.5t23 65.5q0 26 -17.5 66.5t-47.5 82.5
t-69 79.5t-82 57.5l24 38q57 -30 108 -78.5t82 -113.5h2v242q1 18 -12 29t-29 20.5t-29 19.5t-13 25q0 4 8.5 8.5t20 8.5t23.5 6.5t20 2.5q11 0 28.5 -3t38.5 -3q22 0 40 3t30 3q13 0 27.5 -1.5t27 -5.5t20.5 -9.5t8 -13.5q0 -9 -13.5 -18t-30 -18.5t-30 -21.5t-13.5 -28
v-478q0 -15 14.5 -26t32.5 -21.5t32.5 -21t14.5 -24.5q0 -9 -10.5 -16t-25.5 -11t-33 -6t-33 -2q-13 0 -25.5 2t-25.5 4l-26 4t-27 2q-24 0 -71 -6t-103 -6q-42 0 -83.5 15.5t-75 47t-54.5 80t-21 113.5q0 58 12.5 105.5t31.5 86.5t40.5 69t40.5 53t31.5 39.5t12.5 27.5
q0 13 -9.5 17t-32.5 4q-27 0 -35.5 -2t-8.5 -11q0 -8 15 -20.5t30 -22.5zM218 882q0 6 4.5 10.5t12.5 4.5t15 -1t15 -1q7 0 13.5 1t14.5 1q9 0 15.5 -4t14.5 -15q8 -12 17.5 -26.5t21.5 -30.5q14 -17 26 -27.5t12 -19.5q0 -11 -18 -11q-24 0 -52.5 13t-53 32t-41.5 39.5
t-17 34.5z" />
    <glyph glyph-name="Uacute" unicode="&#xda;" horiz-adv-x="685" 
d="M159 557q-24 13 -47.5 29.5t-41.5 33.5t-29.5 34t-11.5 31t13 22.5t44 8.5h193q34 0 43 -10t9 -27q0 -16 -12 -35.5t-29.5 -42t-38 -49t-38 -58t-29.5 -67.5t-12 -78q0 -43 10.5 -82t33 -68.5t57.5 -47t85 -17.5q56 0 79 22.5t23 65.5q0 26 -17.5 66.5t-47.5 82.5
t-69 79.5t-82 57.5l24 38q57 -30 108 -78.5t82 -113.5h2v242q1 18 -12 29t-29 20.5t-29 19.5t-13 25q0 4 8.5 8.5t20 8.5t23.5 6.5t20 2.5q11 0 28.5 -3t38.5 -3q22 0 40 3t30 3q13 0 27.5 -1.5t27 -5.5t20.5 -9.5t8 -13.5q0 -9 -13.5 -18t-30 -18.5t-30 -21.5t-13.5 -28
v-478q0 -15 14.5 -26t32.5 -21.5t32.5 -21t14.5 -24.5q0 -9 -10.5 -16t-25.5 -11t-33 -6t-33 -2q-13 0 -25.5 2t-25.5 4l-26 4t-27 2q-24 0 -71 -6t-103 -6q-42 0 -83.5 15.5t-75 47t-54.5 80t-21 113.5q0 58 12.5 105.5t31.5 86.5t40.5 69t40.5 53t31.5 39.5t12.5 27.5
q0 13 -9.5 17t-32.5 4q-27 0 -35.5 -2t-8.5 -11q0 -8 15 -20.5t30 -22.5zM469 882q0 -14 -17 -34.5t-41.5 -39.5t-53 -32t-52.5 -13q-18 0 -18 11q0 9 12 19.5t26 27.5q12 16 21.5 30.5t17.5 26.5q8 11 14.5 15t15.5 4q8 0 14.5 -1t13.5 -1q8 0 15 1t15 1t12.5 -4.5
t4.5 -10.5z" />
    <glyph glyph-name="Ucircumflex" unicode="&#xdb;" horiz-adv-x="685" 
d="M159 557q-24 13 -47.5 29.5t-41.5 33.5t-29.5 34t-11.5 31t13 22.5t44 8.5h193q34 0 43 -10t9 -27q0 -16 -12 -35.5t-29.5 -42t-38 -49t-38 -58t-29.5 -67.5t-12 -78q0 -43 10.5 -82t33 -68.5t57.5 -47t85 -17.5q56 0 79 22.5t23 65.5q0 26 -17.5 66.5t-47.5 82.5
t-69 79.5t-82 57.5l24 38q57 -30 108 -78.5t82 -113.5h2v242q1 18 -12 29t-29 20.5t-29 19.5t-13 25q0 4 8.5 8.5t20 8.5t23.5 6.5t20 2.5q11 0 28.5 -3t38.5 -3q22 0 40 3t30 3q13 0 27.5 -1.5t27 -5.5t20.5 -9.5t8 -13.5q0 -9 -13.5 -18t-30 -18.5t-30 -21.5t-13.5 -28
v-478q0 -15 14.5 -26t32.5 -21.5t32.5 -21t14.5 -24.5q0 -9 -10.5 -16t-25.5 -11t-33 -6t-33 -2q-13 0 -25.5 2t-25.5 4l-26 4t-27 2q-24 0 -71 -6t-103 -6q-42 0 -83.5 15.5t-75 47t-54.5 80t-21 113.5q0 58 12.5 105.5t31.5 86.5t40.5 69t40.5 53t31.5 39.5t12.5 27.5
q0 13 -9.5 17t-32.5 4q-27 0 -35.5 -2t-8.5 -11q0 -8 15 -20.5t30 -22.5zM343 824q-13 -10 -25.5 -19t-30.5 -20q-21 -11 -40 -18t-27 -7q-12 0 -12 9q0 6 11.5 17.5l28.5 28.5t34 37.5t32 36.5q11 11 29 11t29 -11q15 -16 32 -36.5t34 -37.5l28.5 -28.5t11.5 -17.5
q0 -9 -12 -9q-8 0 -27 7t-40 18q-18 11 -30.5 20t-25.5 19z" />
    <glyph glyph-name="Udieresis" unicode="&#xdc;" horiz-adv-x="685" 
d="M159 557q-24 13 -47.5 29.5t-41.5 33.5t-29.5 34t-11.5 31t13 22.5t44 8.5h193q34 0 43 -10t9 -27q0 -16 -12 -35.5t-29.5 -42t-38 -49t-38 -58t-29.5 -67.5t-12 -78q0 -43 10.5 -82t33 -68.5t57.5 -47t85 -17.5q56 0 79 22.5t23 65.5q0 26 -17.5 66.5t-47.5 82.5
t-69 79.5t-82 57.5l24 38q57 -30 108 -78.5t82 -113.5h2v242q1 18 -12 29t-29 20.5t-29 19.5t-13 25q0 4 8.5 8.5t20 8.5t23.5 6.5t20 2.5q11 0 28.5 -3t38.5 -3q22 0 40 3t30 3q13 0 27.5 -1.5t27 -5.5t20.5 -9.5t8 -13.5q0 -9 -13.5 -18t-30 -18.5t-30 -21.5t-13.5 -28
v-478q0 -15 14.5 -26t32.5 -21.5t32.5 -21t14.5 -24.5q0 -9 -10.5 -16t-25.5 -11t-33 -6t-33 -2q-13 0 -25.5 2t-25.5 4l-26 4t-27 2q-24 0 -71 -6t-103 -6q-42 0 -83.5 15.5t-75 47t-54.5 80t-21 113.5q0 58 12.5 105.5t31.5 86.5t40.5 69t40.5 53t31.5 39.5t12.5 27.5
q0 13 -9.5 17t-32.5 4q-27 0 -35.5 -2t-8.5 -11q0 -8 15 -20.5t30 -22.5zM317 828q0 -24 -18.5 -36t-50.5 -12q-30 0 -47.5 12t-17.5 36q0 23 17.5 34.5t47.5 11.5q32 0 50.5 -11.5t18.5 -34.5zM369 828q0 23 18 34.5t50 11.5q30 0 48 -11.5t18 -34.5q0 -24 -18 -36t-48 -12
q-32 0 -50 12t-18 36z" />
    <glyph glyph-name="Yacute" unicode="&#xdd;" horiz-adv-x="667" 
d="M103 539q-7 12 -17 18t-19 9.5t-15.5 7t-6.5 10.5q0 5 4 10t15 9l141 49q9 3 16 6t7 6t-12 4.5t-33 1.5h-57q-26 0 -48.5 -7t-22.5 -24q0 -8 10 -20q-23 1 -42 3.5t-32.5 9t-21.5 17t-8 27.5q0 26 21 33t47 7h260q10 0 21.5 -0.5t21.5 -3t16.5 -8.5t6.5 -16
q0 -11 -21 -21t-46 -20t-46 -19t-21 -18q0 -5 7 -17t25 -35l133 -175q19 16 45 40.5t49.5 53.5t39.5 60.5t16 61.5q0 20 -9.5 27.5t-27.5 7.5q-23 0 -55 -7t-65 -16t-64 -16t-52 -7q-17 0 -17 13q0 6 6 10t29 12q33 11 80.5 27t93 30.5t81.5 25t47 10.5q24 0 46.5 -13
t22.5 -44q0 -19 -13.5 -46.5t-35 -58t-48.5 -62t-53.5 -59t-50.5 -49.5t-39 -33v-242q0 -9 15 -19t33 -20.5t33 -21.5t15 -22q0 -8 -9 -13.5t-21 -10t-24 -6.5t-18 -2q-17 0 -36.5 3t-51.5 3t-51.5 -3t-36.5 -3q-6 0 -18 2t-24 6.5t-21 10t-9 13.5q0 11 15 22t33 21.5
t33 20.5t15 19v184zM458 892q0 -14 -17 -34.5t-41.5 -39.5t-53 -32t-52.5 -13q-18 0 -18 11q0 9 12 19.5t26 27.5q12 16 21.5 30.5t17.5 26.5q8 11 14.5 15t15.5 4q8 0 14.5 -1t13.5 -1q8 0 15 1t15 1t12.5 -4.5t4.5 -10.5z" />
    <glyph glyph-name="Thorn" unicode="&#xde;" horiz-adv-x="648" 
d="M103 588q0 22 -13 35.5t-29 23t-29 17.5t-13 19q0 20 42 26.5t117 6.5q35 0 57.5 -0.5t35 -2t17.5 -5t5 -8.5q0 -11 -9.5 -16.5t-21.5 -13.5t-21.5 -21.5t-9.5 -38.5h62q61 0 119 -11t102.5 -38.5t71.5 -74t27 -117.5q0 -45 -18 -80.5t-48 -59.5t-69 -36.5t-81 -12.5
q-31 0 -62 7.5t-56.5 23t-41.5 40.5t-16 61q0 23 7 37.5t15 23.5t15 14t7 9t-2.5 7.5t-4.5 5.5q6 3 14.5 5.5t21.5 2.5q20 0 37.5 -11.5t17.5 -34.5q0 -13 1.5 -24.5t6.5 -20t15 -13.5t28 -5q21 0 35.5 8t22.5 19.5t11.5 24.5t3.5 24q0 42 -13.5 74t-36.5 54.5t-55 34
t-68 11.5q-32 0 -50.5 -6.5t-18.5 -28.5v-133q-15 -12 -24 -30t-9 -46q0 -29 8 -48.5t25 -36.5v-110q0 -13 15 -24.5t32.5 -22t32.5 -21.5t15 -23q0 -8 -7 -14.5t-17.5 -11t-22 -6.5t-21.5 -2t-19 1t-19 2q-20 3 -42 3q-27 0 -51 -3q-11 -1 -21.5 -2t-21.5 -1q-7 0 -19 2
t-23.5 6t-20 10.5t-8.5 15.5q0 11 14 21t31 20.5t31 21.5t14 24v473z" />
    <glyph glyph-name="germandbls" unicode="&#xdf;" horiz-adv-x="667" 
d="M224 42q0 -48 -30 -48q-8 0 -14.5 1t-12.5 2q-12 3 -25 3q-9 0 -21 -3q-6 -1 -13 -2t-16 -1t-21 3.5t-23 9.5t-19 12.5t-8 12.5q0 11 11.5 16.5t26 10t26 10.5t11.5 19v485q0 14 -15 26t-33.5 23t-33.5 22.5t-15 24.5q0 14 9 23t37 14.5t79.5 7.5t137.5 2q78 0 127.5 -2
t77 -8t38 -16.5t10.5 -27.5q0 -19 -13.5 -37.5t-33.5 -36t-44 -34t-44 -31.5t-33.5 -28.5t-13.5 -24.5q0 -7 22 -19.5t55.5 -31.5t72 -44.5t72 -58.5t55.5 -75t22 -94q0 -33 -10.5 -61.5t-27 -48.5t-37 -31.5t-39.5 -11.5q-26 0 -54 3q-14 1 -27 2t-25 1q-26 0 -47 -3
q-11 -1 -20 -2t-16 -1q-40 0 -63.5 20t-23.5 59q0 27 10 43.5t21.5 27t21.5 17.5t10 16q0 13 -6 23t-14 17q22 16 48 16q17 0 32.5 -13t15.5 -32q0 -8 -2 -16t-2 -16q0 -16 20 -16q8 0 16 1.5t15 1.5q8 0 16 -1.5t17 -1.5q14 0 22.5 16.5t8.5 40.5q0 31 -17 59t-42.5 52.5
t-55 45.5t-55 38.5t-42.5 32t-17 26.5q0 27 19.5 50t42.5 45t42.5 44t19.5 46q0 12 -10.5 18.5t-28.5 10t-42.5 4.5t-52.5 1q-63 0 -95 -4.5t-32 -19.5q0 -14 18.5 -19.5t50.5 -13.5q14 -3 27.5 -5.5t24.5 -2.5q25 0 25 -19q0 -14 -7.5 -19l-16.5 -11t-16.5 -17.5
t-7.5 -37.5v-459z" />
    <glyph glyph-name="agrave" unicode="&#xe0;" horiz-adv-x="593" 
d="M399 382q0 28 -9 46.5t-24 29t-35 14.5t-42 4q-42 0 -74 -8t-32 -29q0 -16 15 -19t31 -3q25 0 56 4.5t48 4.5t30.5 -5.5t13.5 -26.5q0 -16 -14 -27.5t-35 -22.5t-45.5 -22.5t-45.5 -26.5t-35 -35t-14 -48q0 -45 25 -61.5t69 -16.5q18 0 33.5 3.5t29 7l27 7t27.5 3.5v227z
M533 79q4 -3 11 -8t14 -11t12.5 -12.5t5.5 -12.5q0 -11 -11 -18.5t-28 -12.5t-37.5 -7.5t-40.5 -2.5q-30 0 -60 6t-60 6q-33 0 -66 -6t-68 -6t-65.5 10.5t-53.5 30t-36.5 48.5t-13.5 65q0 37 17 67t46 54t68 44.5t84 38.5q14 5 26 10t12 12q0 5 -4.5 7t-9.5 2q-26 0 -54 -7
t-57 -7q-17 0 -35.5 4.5t-33.5 14.5t-24.5 24.5t-9.5 34.5q0 19 11 33t29 23.5t40 14t44 4.5q24 0 41 -2t36 -2q33 0 67.5 2t69.5 2q46 0 72.5 -13.5t40 -39t17.5 -62t4 -82.5v-246zM173 694q0 6 4.5 10.5t12.5 4.5t15 -1t15 -1q7 0 13.5 1t14.5 1q9 0 15.5 -4t14.5 -15
q8 -12 17 -27t22 -30q14 -18 26 -28t12 -19q0 -6 -5 -8.5t-13 -2.5q-24 0 -52.5 13t-53 32t-41.5 39.5t-17 34.5z" />
    <glyph glyph-name="aacute" unicode="&#xe1;" horiz-adv-x="593" 
d="M399 382q0 28 -9 46.5t-24 29t-35 14.5t-42 4q-42 0 -74 -8t-32 -29q0 -16 15 -19t31 -3q25 0 56 4.5t48 4.5t30.5 -5.5t13.5 -26.5q0 -16 -14 -27.5t-35 -22.5t-45.5 -22.5t-45.5 -26.5t-35 -35t-14 -48q0 -45 25 -61.5t69 -16.5q18 0 33.5 3.5t29 7l27 7t27.5 3.5v227z
M533 79q4 -3 11 -8t14 -11t12.5 -12.5t5.5 -12.5q0 -11 -11 -18.5t-28 -12.5t-37.5 -7.5t-40.5 -2.5q-30 0 -60 6t-60 6q-33 0 -66 -6t-68 -6t-65.5 10.5t-53.5 30t-36.5 48.5t-13.5 65q0 37 17 67t46 54t68 44.5t84 38.5q14 5 26 10t12 12q0 5 -4.5 7t-9.5 2q-26 0 -54 -7
t-57 -7q-17 0 -35.5 4.5t-33.5 14.5t-24.5 24.5t-9.5 34.5q0 19 11 33t29 23.5t40 14t44 4.5q24 0 41 -2t36 -2q33 0 67.5 2t69.5 2q46 0 72.5 -13.5t40 -39t17.5 -62t4 -82.5v-246zM422 694q0 -14 -17 -34.5t-41.5 -39.5t-53 -32t-52.5 -13q-8 0 -13 2.5t-5 8.5q0 9 12 19
t26 28q13 15 22 30t17 27q8 11 14.5 15t15.5 4q8 0 14.5 -1t13.5 -1q8 0 15 1t15 1t12.5 -4.5t4.5 -10.5z" />
    <glyph glyph-name="acircumflex" unicode="&#xe2;" horiz-adv-x="593" 
d="M399 382q0 28 -9 46.5t-24 29t-35 14.5t-42 4q-42 0 -74 -8t-32 -29q0 -16 15 -19t31 -3q25 0 56 4.5t48 4.5t30.5 -5.5t13.5 -26.5q0 -16 -14 -27.5t-35 -22.5t-45.5 -22.5t-45.5 -26.5t-35 -35t-14 -48q0 -45 25 -61.5t69 -16.5q18 0 33.5 3.5t29 7l27 7t27.5 3.5v227z
M533 79q4 -3 11 -8t14 -11t12.5 -12.5t5.5 -12.5q0 -11 -11 -18.5t-28 -12.5t-37.5 -7.5t-40.5 -2.5q-30 0 -60 6t-60 6q-33 0 -66 -6t-68 -6t-65.5 10.5t-53.5 30t-36.5 48.5t-13.5 65q0 37 17 67t46 54t68 44.5t84 38.5q14 5 26 10t12 12q0 5 -4.5 7t-9.5 2q-26 0 -54 -7
t-57 -7q-17 0 -35.5 4.5t-33.5 14.5t-24.5 24.5t-9.5 34.5q0 19 11 33t29 23.5t40 14t44 4.5q24 0 41 -2t36 -2q33 0 67.5 2t69.5 2q46 0 72.5 -13.5t40 -39t17.5 -62t4 -82.5v-246zM299 636q-13 -10 -25.5 -19t-30.5 -20q-21 -11 -40 -18t-27 -7q-5 0 -8.5 2t-3.5 7
q0 6 11.5 17.5l28.5 28.5t34 37.5t32 36.5q11 11 29 11t29 -11q15 -16 32 -36.5t34 -37.5l28.5 -28.5t11.5 -17.5q0 -5 -3.5 -7t-8.5 -2q-8 0 -27 7t-40 18q-18 11 -30.5 20t-25.5 19z" />
    <glyph glyph-name="atilde" unicode="&#xe3;" horiz-adv-x="593" 
d="M399 382q0 28 -9 46.5t-24 29t-35 14.5t-42 4q-42 0 -74 -8t-32 -29q0 -16 15 -19t31 -3q25 0 56 4.5t48 4.5t30.5 -5.5t13.5 -26.5q0 -16 -14 -27.5t-35 -22.5t-45.5 -22.5t-45.5 -26.5t-35 -35t-14 -48q0 -45 25 -61.5t69 -16.5q18 0 33.5 3.5t29 7l27 7t27.5 3.5v227z
M533 79q4 -3 11 -8t14 -11t12.5 -12.5t5.5 -12.5q0 -11 -11 -18.5t-28 -12.5t-37.5 -7.5t-40.5 -2.5q-30 0 -60 6t-60 6q-33 0 -66 -6t-68 -6t-65.5 10.5t-53.5 30t-36.5 48.5t-13.5 65q0 37 17 67t46 54t68 44.5t84 38.5q14 5 26 10t12 12q0 5 -4.5 7t-9.5 2q-26 0 -54 -7
t-57 -7q-17 0 -35.5 4.5t-33.5 14.5t-24.5 24.5t-9.5 34.5q0 19 11 33t29 23.5t40 14t44 4.5q24 0 41 -2t36 -2q33 0 67.5 2t69.5 2q46 0 72.5 -13.5t40 -39t17.5 -62t4 -82.5v-246zM234 692q16 0 34 -5.5t36 -12.5t35 -13t31 -6q33 0 44 21q5 12 10 20t12 8q8 0 10 -8
t2 -25q0 -15 -7.5 -29t-19.5 -25.5t-28 -18.5t-33 -7q-20 0 -38.5 4.5t-36.5 11.5q-18 8 -35 13.5t-34 5.5q-12 0 -21 -6.5t-17 -16.5q-7 -11 -11.5 -19t-10.5 -8q-8 0 -11 10t-3 25q0 16 7.5 30.5t20 25.5t29 18t35.5 7z" />
    <glyph glyph-name="adieresis" unicode="&#xe4;" horiz-adv-x="593" 
d="M399 382q0 28 -9 46.5t-24 29t-35 14.5t-42 4q-42 0 -74 -8t-32 -29q0 -16 15 -19t31 -3q25 0 56 4.5t48 4.5t30.5 -5.5t13.5 -26.5q0 -16 -14 -27.5t-35 -22.5t-45.5 -22.5t-45.5 -26.5t-35 -35t-14 -48q0 -45 25 -61.5t69 -16.5q18 0 33.5 3.5t29 7l27 7t27.5 3.5v227z
M533 79q4 -3 11 -8t14 -11t12.5 -12.5t5.5 -12.5q0 -11 -11 -18.5t-28 -12.5t-37.5 -7.5t-40.5 -2.5q-30 0 -60 6t-60 6q-33 0 -66 -6t-68 -6t-65.5 10.5t-53.5 30t-36.5 48.5t-13.5 65q0 37 17 67t46 54t68 44.5t84 38.5q14 5 26 10t12 12q0 5 -4.5 7t-9.5 2q-26 0 -54 -7
t-57 -7q-17 0 -35.5 4.5t-33.5 14.5t-24.5 24.5t-9.5 34.5q0 19 11 33t29 23.5t40 14t44 4.5q24 0 41 -2t36 -2q33 0 67.5 2t69.5 2q46 0 72.5 -13.5t40 -39t17.5 -62t4 -82.5v-246zM273 640q0 -24 -18.5 -36t-50.5 -12q-30 0 -47.5 12t-17.5 36q0 23 17.5 34.5t47.5 11.5
q32 0 50.5 -11.5t18.5 -34.5zM325 640q0 23 18 34.5t50 11.5q30 0 48 -11.5t18 -34.5q0 -24 -18 -36t-48 -12q-32 0 -50 12t-18 36z" />
    <glyph glyph-name="aring" unicode="&#xe5;" horiz-adv-x="593" 
d="M399 382q0 28 -9 46.5t-24 29t-35 14.5t-42 4q-42 0 -74 -8t-32 -29q0 -16 15 -19t31 -3q25 0 56 4.5t48 4.5t30.5 -5.5t13.5 -26.5q0 -16 -14 -27.5t-35 -22.5t-45.5 -22.5t-45.5 -26.5t-35 -35t-14 -48q0 -45 25 -61.5t69 -16.5q18 0 33.5 3.5t29 7l27 7t27.5 3.5v227z
M533 79q4 -3 11 -8t14 -11t12.5 -12.5t5.5 -12.5q0 -11 -11 -18.5t-28 -12.5t-37.5 -7.5t-40.5 -2.5q-30 0 -60 6t-60 6q-33 0 -66 -6t-68 -6t-65.5 10.5t-53.5 30t-36.5 48.5t-13.5 65q0 37 17 67t46 54t68 44.5t84 38.5q14 5 26 10t12 12q0 5 -4.5 7t-9.5 2q-26 0 -54 -7
t-57 -7q-17 0 -35.5 4.5t-33.5 14.5t-24.5 24.5t-9.5 34.5q0 19 11 33t29 23.5t40 14t44 4.5q24 0 41 -2t36 -2q33 0 67.5 2t69.5 2q46 0 72.5 -13.5t40 -39t17.5 -62t4 -82.5v-246zM413 649q0 -21 -10 -36.5t-26.5 -26t-37 -15.5t-41.5 -5t-41.5 5.5t-37 16t-26.5 26
t-10 35.5t10 35.5t26.5 26t37 16t41.5 5.5t41.5 -5t37 -15.5t26.5 -26t10 -36.5zM298 600q26 0 46.5 13t20.5 36t-20.5 36t-46.5 13t-46.5 -13t-20.5 -36t20.5 -36t46.5 -13z" />
    <glyph glyph-name="ae" unicode="&#xe6;" horiz-adv-x="907" 
d="M516 303q-1 -29 3 -58.5t21 -58.5q6 29 20 51t33 39.5t41.5 32t45.5 28.5q13 8 28 15t27 15.5t19 20t6 28.5q-1 16 -10 27.5t-22 19t-27 10.5t-25 3q-46 0 -76 -12.5t-48.5 -35.5t-26.5 -54.5t-9 -70.5zM736 522q29 0 55 -1.5t46 -9t32 -22t13 -39.5t-12 -47t-34.5 -40.5
t-49.5 -34.5t-57 -30q-21 -11 -46.5 -25t-47 -31.5t-36 -38t-12.5 -44.5q46 -25 111 -25q50 0 88.5 15t49.5 58q29 -13 44 -35t15 -60q0 -20 -9 -41t-26 -38t-42 -28t-57 -11t-56.5 2t-51.5 4.5t-63 4.5t-91 2q-115 0 -192 -6.5t-119 -6.5q-26 0 -54.5 9t-51.5 27.5t-38 47
t-15 66.5q0 47 22 80t53.5 56t67 38.5t63.5 28.5q32 15 40 20t8 10t-5 6t-10 1q-4 0 -15 -2.5t-26.5 -5t-33 -5t-34.5 -2.5q-20 0 -38.5 6t-32.5 16.5t-22 25.5t-7 33q2 34 34 53t74 19q20 0 48.5 -1t53.5 -1q35 0 62 1t50 1q12 0 27.5 -1.5t32 -6t32.5 -13.5t28 -24
q32 23 63 34t67 11h105zM394 404q0 24 -9 38t-25.5 21.5t-39 10t-49.5 2.5q-16 0 -33 -2t-31 -6.5t-23 -12t-9 -17.5q0 -29 50 -29q20 0 47 7.5t51 7.5q19 0 32.5 -6t15.5 -28q2 -19 -22.5 -32.5t-71.5 -35.5q-29 -14 -48 -28t-29.5 -29t-14.5 -32t-4 -36q0 -29 27 -46
t62 -17q26 0 43 3t30 6.5t24.5 6.5t26.5 3v251z" />
    <glyph glyph-name="ccedilla" unicode="&#xe7;" horiz-adv-x="519" 
d="M282 -42q7 1 17.5 2t27.5 1q21 0 35 -14t14 -38q0 -32 -22 -51t-53 -19q-24 0 -43.5 4.5t-32.5 4.5q-11 0 -21 -2.5t-17 -10.5q3 18 14 32.5t25 14.5q12 0 26.5 -1.5t26.5 -1.5q9 0 18 6t9 19q0 23 -25 23q-11 0 -19.5 -3t-15.5 -3q-6 0 -11 2.5t-5 8.5q0 5 4 13t9 17
t11 18.5t10 17.5q-8 0 -15 -0.5t-15 -1.5t-16.5 -1.5t-17.5 -0.5q-31 0 -61.5 18t-55 50t-39.5 76t-15 95q0 66 17 120.5t51 93.5t84 60t115 21q84 0 129 -28t45 -85q0 -18 -8 -33.5t-21.5 -26.5t-30.5 -17.5t-36 -6.5q-18 0 -30.5 6t-21.5 13.5t-15 13.5t-11 6
q-12 0 -15 -11q-8 4 -12 11.5t-4 15.5q0 15 10.5 25.5t28.5 10.5q13 0 21.5 -1.5t16.5 -1.5q11 0 14.5 5.5t3.5 9.5q0 9 -8.5 16.5t-20.5 13t-25.5 9t-23.5 3.5q-38 0 -65 -13.5t-44.5 -36.5t-25.5 -54.5t-8 -67.5q0 -43 8 -75t29 -53t58 -31.5t96 -10.5q19 0 40 3.5
t39.5 12t32.5 22.5t20 35q25 -6 42 -30.5t17 -49.5q0 -30 -11.5 -55t-29.5 -42t-40.5 -26.5t-44.5 -9.5q-34 0 -54.5 2t-36.5 3z" />
    <glyph glyph-name="egrave" unicode="&#xe8;" horiz-adv-x="537" 
d="M402 522q16 0 36 -2.5t36.5 -10t28 -21.5t11.5 -37q0 -35 -21.5 -60t-54 -45t-71 -37.5t-72.5 -37.5t-58.5 -46t-28.5 -62q28 -17 59 -23t63 -6q19 0 40 3.5t39 12t32.5 22.5t20.5 35q12 -3 23 -11t19 -19.5t12.5 -24.5t4.5 -25q0 -30 -11.5 -55t-29.5 -42t-40.5 -26.5
t-44.5 -9.5q-40 0 -61.5 3t-41.5 3q-21 0 -43 -3t-49 -3q-31 0 -61.5 18t-55 50t-39.5 76t-15 95t12.5 103t40 93t70 67t102.5 26h148zM386 418q0 30 -28.5 41t-72.5 11q-26 0 -52 -5.5t-47 -23t-34 -50t-13 -85.5q0 -32 4 -59.5t18 -46.5q13 36 34.5 61t46.5 42.5t50.5 30
t46.5 24.5t34 26t13 34zM144 694q0 6 4.5 10.5t12.5 4.5t15 -1t15 -1q7 0 13.5 1t14.5 1q9 0 15.5 -4t14.5 -15q8 -12 17 -27t22 -30q14 -18 26 -28t12 -19q0 -6 -5 -8.5t-13 -2.5q-24 0 -52.5 13t-53 32t-41.5 39.5t-17 34.5z" />
    <glyph glyph-name="eacute" unicode="&#xe9;" horiz-adv-x="537" 
d="M402 522q16 0 36 -2.5t36.5 -10t28 -21.5t11.5 -37q0 -35 -21.5 -60t-54 -45t-71 -37.5t-72.5 -37.5t-58.5 -46t-28.5 -62q28 -17 59 -23t63 -6q19 0 40 3.5t39 12t32.5 22.5t20.5 35q12 -3 23 -11t19 -19.5t12.5 -24.5t4.5 -25q0 -30 -11.5 -55t-29.5 -42t-40.5 -26.5
t-44.5 -9.5q-40 0 -61.5 3t-41.5 3q-21 0 -43 -3t-49 -3q-31 0 -61.5 18t-55 50t-39.5 76t-15 95t12.5 103t40 93t70 67t102.5 26h148zM386 418q0 30 -28.5 41t-72.5 11q-26 0 -52 -5.5t-47 -23t-34 -50t-13 -85.5q0 -32 4 -59.5t18 -46.5q13 36 34.5 61t46.5 42.5t50.5 30
t46.5 24.5t34 26t13 34zM394 694q0 -14 -17 -34.5t-41.5 -39.5t-53 -32t-52.5 -13q-8 0 -13 2.5t-5 8.5q0 9 12 19t26 28q13 15 22 30t17 27q8 11 14.5 15t15.5 4q8 0 14.5 -1t13.5 -1q8 0 15 1t15 1t12.5 -4.5t4.5 -10.5z" />
    <glyph glyph-name="ecircumflex" unicode="&#xea;" horiz-adv-x="537" 
d="M402 522q16 0 36 -2.5t36.5 -10t28 -21.5t11.5 -37q0 -35 -21.5 -60t-54 -45t-71 -37.5t-72.5 -37.5t-58.5 -46t-28.5 -62q28 -17 59 -23t63 -6q19 0 40 3.5t39 12t32.5 22.5t20.5 35q12 -3 23 -11t19 -19.5t12.5 -24.5t4.5 -25q0 -30 -11.5 -55t-29.5 -42t-40.5 -26.5
t-44.5 -9.5q-40 0 -61.5 3t-41.5 3q-21 0 -43 -3t-49 -3q-31 0 -61.5 18t-55 50t-39.5 76t-15 95t12.5 103t40 93t70 67t102.5 26h148zM386 418q0 30 -28.5 41t-72.5 11q-26 0 -52 -5.5t-47 -23t-34 -50t-13 -85.5q0 -32 4 -59.5t18 -46.5q13 36 34.5 61t46.5 42.5t50.5 30
t46.5 24.5t34 26t13 34zM269 636q-13 -10 -25.5 -19t-30.5 -20q-21 -11 -40 -18t-27 -7q-5 0 -8.5 2t-3.5 7q0 6 11.5 17.5l28.5 28.5t34 37.5t32 36.5q11 11 29 11t29 -11q15 -16 32 -36.5t34 -37.5l28.5 -28.5t11.5 -17.5q0 -5 -3.5 -7t-8.5 -2q-8 0 -27 7t-40 18
q-18 11 -30.5 20t-25.5 19z" />
    <glyph glyph-name="edieresis" unicode="&#xeb;" horiz-adv-x="537" 
d="M402 522q16 0 36 -2.5t36.5 -10t28 -21.5t11.5 -37q0 -35 -21.5 -60t-54 -45t-71 -37.5t-72.5 -37.5t-58.5 -46t-28.5 -62q28 -17 59 -23t63 -6q19 0 40 3.5t39 12t32.5 22.5t20.5 35q12 -3 23 -11t19 -19.5t12.5 -24.5t4.5 -25q0 -30 -11.5 -55t-29.5 -42t-40.5 -26.5
t-44.5 -9.5q-40 0 -61.5 3t-41.5 3q-21 0 -43 -3t-49 -3q-31 0 -61.5 18t-55 50t-39.5 76t-15 95t12.5 103t40 93t70 67t102.5 26h148zM386 418q0 30 -28.5 41t-72.5 11q-26 0 -52 -5.5t-47 -23t-34 -50t-13 -85.5q0 -32 4 -59.5t18 -46.5q13 36 34.5 61t46.5 42.5t50.5 30
t46.5 24.5t34 26t13 34zM243 640q0 -24 -18.5 -36t-50.5 -12q-30 0 -47.5 12t-17.5 36q0 23 17.5 34.5t47.5 11.5q32 0 50.5 -11.5t18.5 -34.5zM295 640q0 23 18 34.5t50 11.5q30 0 48 -11.5t18 -34.5q0 -24 -18 -36t-48 -12q-32 0 -50 12t-18 36z" />
    <glyph glyph-name="igrave" unicode="&#xec;" horiz-adv-x="296" 
d="M84 462q-26 9 -42 18.5t-16 20.5q0 12 13 16.5t34 4.5h145q21 0 36.5 -4.5t15.5 -16.5t-16 -22.5t-42 -16.5v-377q0 -7 9 -12.5t20 -11.5t20 -13t9 -16q0 -7 -8 -13t-19.5 -11t-23.5 -8t-20 -3q-12 0 -24.5 1.5t-26.5 1.5q-11 0 -23 -1.5t-24 -1.5q-11 0 -24 3t-24 8.5
t-19 11.5t-8 12q0 9 9 16t20 13t20 11.5t9 12.5v377zM23 694q0 6 4.5 10.5t12.5 4.5t15 -1t15 -1q7 0 13.5 1t14.5 1q9 0 15.5 -4t14.5 -15q8 -12 17 -27t22 -30q14 -18 26 -28t12 -19q0 -6 -5 -8.5t-13 -2.5q-24 0 -52.5 13t-53 32t-41.5 39.5t-17 34.5z" />
    <glyph glyph-name="iacute" unicode="&#xed;" horiz-adv-x="296" 
d="M84 462q-26 9 -42 18.5t-16 20.5q0 12 13 16.5t34 4.5h145q21 0 36.5 -4.5t15.5 -16.5t-16 -22.5t-42 -16.5v-377q0 -7 9 -12.5t20 -11.5t20 -13t9 -16q0 -7 -8 -13t-19.5 -11t-23.5 -8t-20 -3q-12 0 -24.5 1.5t-26.5 1.5q-11 0 -23 -1.5t-24 -1.5q-11 0 -24 3t-24 8.5
t-19 11.5t-8 12q0 9 9 16t20 13t20 11.5t9 12.5v377zM272 694q0 -14 -17 -34.5t-41.5 -39.5t-53 -32t-52.5 -13q-8 0 -13 2.5t-5 8.5q0 9 12 19t26 28q13 15 22 30t17 27q8 11 14.5 15t15.5 4q8 0 14.5 -1t13.5 -1q8 0 15 1t15 1t12.5 -4.5t4.5 -10.5z" />
    <glyph glyph-name="icircumflex" unicode="&#xee;" horiz-adv-x="296" 
d="M84 462q-26 9 -42 18.5t-16 20.5q0 12 13 16.5t34 4.5h145q21 0 36.5 -4.5t15.5 -16.5t-16 -22.5t-42 -16.5v-377q0 -7 9 -12.5t20 -11.5t20 -13t9 -16q0 -7 -8 -13t-19.5 -11t-23.5 -8t-20 -3q-12 0 -24.5 1.5t-26.5 1.5q-11 0 -23 -1.5t-24 -1.5q-11 0 -24 3t-24 8.5
t-19 11.5t-8 12q0 9 9 16t20 13t20 11.5t9 12.5v377zM146 636q-13 -10 -25.5 -19t-30.5 -20q-21 -11 -40 -18t-27 -7q-5 0 -8.5 2t-3.5 7q0 6 11.5 17.5l28.5 28.5t34 37.5t32 36.5q11 11 29 11t29 -11q15 -16 32 -36.5t34 -37.5l28.5 -28.5t11.5 -17.5q0 -5 -3.5 -7
t-8.5 -2q-8 0 -27 7t-40 18q-18 11 -30.5 20t-25.5 19z" />
    <glyph glyph-name="idieresis" unicode="&#xef;" horiz-adv-x="296" 
d="M84 462q-26 9 -42 18.5t-16 20.5q0 12 13 16.5t34 4.5h145q21 0 36.5 -4.5t15.5 -16.5t-16 -22.5t-42 -16.5v-377q0 -7 9 -12.5t20 -11.5t20 -13t9 -16q0 -7 -8 -13t-19.5 -11t-23.5 -8t-20 -3q-12 0 -24.5 1.5t-26.5 1.5q-11 0 -23 -1.5t-24 -1.5q-11 0 -24 3t-24 8.5
t-19 11.5t-8 12q0 9 9 16t20 13t20 11.5t9 12.5v377zM121 640q0 -24 -18.5 -36t-50.5 -12q-30 0 -47.5 12t-17.5 36q0 23 17.5 34.5t47.5 11.5q32 0 50.5 -11.5t18.5 -34.5zM173 640q0 23 18 34.5t50 11.5q30 0 48 -11.5t18 -34.5q0 -24 -18 -36t-48 -12q-32 0 -50 12
t-18 36z" />
    <glyph glyph-name="eth" unicode="&#xf0;" horiz-adv-x="556" 
d="M145 310q0 -33 8.5 -60.5t24.5 -47.5t38.5 -31.5t51.5 -11.5q41 0 68.5 12.5t44 34.5t23.5 51.5t7 63.5q0 64 -31 106.5t-94 42.5q-37 0 -63.5 -12.5t-44 -34.5t-25.5 -51t-8 -62zM244 642q-60 37 -123 53q-11 4 -11 17q0 7 4 13.5t11 6.5q104 -12 182 -55l93 51
q7 4 19 4q24 0 24 -23q0 -13 -10 -19l-78 -43q85 -60 128.5 -152.5t43.5 -207.5q0 -66 -15.5 -120t-42 -92.5t-62.5 -59.5t-76 -21q-8 0 -14 1t-13 2q-12 3 -25 3q-15 0 -27 -3q-5 -1 -10.5 -2t-10.5 -1q-43 0 -80 21.5t-64 58t-42.5 85.5t-15.5 103q0 59 15.5 107t47 82
t78.5 52.5t109 18.5q26 0 51.5 -7t41.5 -23h2q-12 35 -34.5 64.5t-51.5 53.5l-89 -49q-8 -4 -17 -4q-3 0 -10 3t-13.5 7.5t-11.5 8.5t-5 6q0 3 4 5.5t18 10.5z" />
    <glyph glyph-name="ntilde" unicode="&#xf1;" horiz-adv-x="574" 
d="M218 522q16 0 25.5 -4t9.5 -12q0 -10 -8.5 -18t-18.5 -15t-18.5 -13.5t-8.5 -13.5v-12q30 7 46 21.5t30.5 29.5t34.5 26t60 11q36 0 61.5 -10t41.5 -27.5t23 -41t7 -49.5v-309q0 -7 9 -12.5t20 -11.5t20 -13t9 -16q0 -7 -8 -13t-19.5 -11t-23.5 -8t-20 -3
q-12 0 -24.5 1.5t-26.5 1.5q-11 0 -23 -1.5t-24 -1.5q-11 0 -24 3t-24 8.5t-19 11.5t-8 12q0 9 9 16t20 13t20 11.5t9 12.5v282q0 23 -13 39t-36 16q-26 0 -43 -6t-30 -13.5t-25 -14t-29 -6.5v-297q0 -7 9 -12.5t20 -11.5t20 -13t9 -16q0 -7 -8 -13t-19.5 -11t-23.5 -8
t-20 -3q-12 0 -24.5 1.5t-26.5 1.5q-11 0 -23 -1.5t-24 -1.5q-11 0 -24 3t-24 8.5t-19 11.5t-8 12q0 9 9 16t20 13t20 11.5t9 12.5v350q0 14 -8 22.5t-18 14.5t-18 12t-8 17q0 16 11.5 18.5t25.5 2.5h162zM226 692q16 0 34 -5.5t36 -12.5t35 -13t31 -6q33 0 44 21
q5 12 10 20t12 8q8 0 10 -8t2 -25q0 -15 -7.5 -29t-19.5 -25.5t-28 -18.5t-33 -7q-20 0 -38.5 4.5t-36.5 11.5q-18 8 -35 13.5t-34 5.5q-12 0 -21 -6.5t-17 -16.5q-7 -11 -11.5 -19t-10.5 -8q-8 0 -11 10t-3 25q0 16 7.5 30.5t20 25.5t29 18t35.5 7z" />
    <glyph glyph-name="ograve" unicode="&#xf2;" horiz-adv-x="556" 
d="M145 318q0 -33 8.5 -61.5t24.5 -49t38.5 -32t51.5 -11.5q41 0 68.5 13t44 35.5t23.5 52.5t7 65q0 33 -7.5 60.5t-23.5 48t-39.5 32t-54.5 11.5q-37 0 -63.5 -13t-44 -35.5t-25.5 -52t-8 -63.5zM29 268q0 61 15.5 110t47 83.5t78.5 53.5t109 19q59 0 105.5 -19t78 -53.5
t48 -83.5t16.5 -110q0 -58 -15.5 -108t-42 -87t-62.5 -58t-76 -21q-15 0 -26.5 3t-25.5 3q-15 0 -26.5 -3t-21.5 -3q-43 0 -80 22t-64 59.5t-42.5 87t-15.5 105.5zM154 694q0 6 4.5 10.5t12.5 4.5t15 -1t15 -1q7 0 13.5 1t14.5 1q9 0 15.5 -4t14.5 -15q8 -12 17 -27t22 -30
q14 -18 26 -28t12 -19q0 -6 -5 -8.5t-13 -2.5q-24 0 -52.5 13t-53 32t-41.5 39.5t-17 34.5z" />
    <glyph glyph-name="oacute" unicode="&#xf3;" horiz-adv-x="556" 
d="M145 318q0 -33 8.5 -61.5t24.5 -49t38.5 -32t51.5 -11.5q41 0 68.5 13t44 35.5t23.5 52.5t7 65q0 33 -7.5 60.5t-23.5 48t-39.5 32t-54.5 11.5q-37 0 -63.5 -13t-44 -35.5t-25.5 -52t-8 -63.5zM29 268q0 61 15.5 110t47 83.5t78.5 53.5t109 19q59 0 105.5 -19t78 -53.5
t48 -83.5t16.5 -110q0 -58 -15.5 -108t-42 -87t-62.5 -58t-76 -21q-15 0 -26.5 3t-25.5 3q-15 0 -26.5 -3t-21.5 -3q-43 0 -80 22t-64 59.5t-42.5 87t-15.5 105.5zM404 694q0 -14 -17 -34.5t-41.5 -39.5t-53 -32t-52.5 -13q-8 0 -13 2.5t-5 8.5q0 9 12 19t26 28q13 15 22 30
t17 27q8 11 14.5 15t15.5 4q8 0 14.5 -1t13.5 -1q8 0 15 1t15 1t12.5 -4.5t4.5 -10.5z" />
    <glyph glyph-name="ocircumflex" unicode="&#xf4;" horiz-adv-x="556" 
d="M145 318q0 -33 8.5 -61.5t24.5 -49t38.5 -32t51.5 -11.5q41 0 68.5 13t44 35.5t23.5 52.5t7 65q0 33 -7.5 60.5t-23.5 48t-39.5 32t-54.5 11.5q-37 0 -63.5 -13t-44 -35.5t-25.5 -52t-8 -63.5zM29 268q0 61 15.5 110t47 83.5t78.5 53.5t109 19q59 0 105.5 -19t78 -53.5
t48 -83.5t16.5 -110q0 -58 -15.5 -108t-42 -87t-62.5 -58t-76 -21q-15 0 -26.5 3t-25.5 3q-15 0 -26.5 -3t-21.5 -3q-43 0 -80 22t-64 59.5t-42.5 87t-15.5 105.5zM279 636q-13 -10 -25.5 -19t-30.5 -20q-21 -11 -40 -18t-27 -7q-5 0 -8.5 2t-3.5 7q0 6 11.5 17.5l28.5 28.5
t34 37.5t32 36.5q11 11 29 11t29 -11q15 -16 32 -36.5t34 -37.5l28.5 -28.5t11.5 -17.5q0 -5 -3.5 -7t-8.5 -2q-8 0 -27 7t-40 18q-18 11 -30.5 20t-25.5 19z" />
    <glyph glyph-name="otilde" unicode="&#xf5;" horiz-adv-x="556" 
d="M145 318q0 -33 8.5 -61.5t24.5 -49t38.5 -32t51.5 -11.5q41 0 68.5 13t44 35.5t23.5 52.5t7 65q0 33 -7.5 60.5t-23.5 48t-39.5 32t-54.5 11.5q-37 0 -63.5 -13t-44 -35.5t-25.5 -52t-8 -63.5zM29 268q0 61 15.5 110t47 83.5t78.5 53.5t109 19q59 0 105.5 -19t78 -53.5
t48 -83.5t16.5 -110q0 -58 -15.5 -108t-42 -87t-62.5 -58t-76 -21q-15 0 -26.5 3t-25.5 3q-15 0 -26.5 -3t-21.5 -3q-43 0 -80 22t-64 59.5t-42.5 87t-15.5 105.5zM218 692q16 0 34 -5.5t36 -12.5t35 -13t31 -6q33 0 44 21q5 12 10 20t12 8q8 0 10 -8t2 -25q0 -15 -7.5 -29
t-19.5 -25.5t-28 -18.5t-33 -7q-20 0 -38.5 4.5t-36.5 11.5q-18 8 -35 13.5t-34 5.5q-12 0 -21 -6.5t-17 -16.5q-7 -11 -11.5 -19t-10.5 -8q-8 0 -11 10t-3 25q0 16 7.5 30.5t20 25.5t29 18t35.5 7z" />
    <glyph glyph-name="odieresis" unicode="&#xf6;" horiz-adv-x="556" 
d="M145 318q0 -33 8.5 -61.5t24.5 -49t38.5 -32t51.5 -11.5q41 0 68.5 13t44 35.5t23.5 52.5t7 65q0 33 -7.5 60.5t-23.5 48t-39.5 32t-54.5 11.5q-37 0 -63.5 -13t-44 -35.5t-25.5 -52t-8 -63.5zM29 268q0 61 15.5 110t47 83.5t78.5 53.5t109 19q59 0 105.5 -19t78 -53.5
t48 -83.5t16.5 -110q0 -58 -15.5 -108t-42 -87t-62.5 -58t-76 -21q-15 0 -26.5 3t-25.5 3q-15 0 -26.5 -3t-21.5 -3q-43 0 -80 22t-64 59.5t-42.5 87t-15.5 105.5zM253 640q0 -24 -18.5 -36t-50.5 -12q-30 0 -47.5 12t-17.5 36q0 23 17.5 34.5t47.5 11.5q32 0 50.5 -11.5
t18.5 -34.5zM305 640q0 23 18 34.5t50 11.5q30 0 48 -11.5t18 -34.5q0 -24 -18 -36t-48 -12q-32 0 -50 12t-18 36z" />
    <glyph glyph-name="divide" unicode="&#xf7;" horiz-adv-x="600" 
d="M215 461q0 17 7 32.5t19 27t27 18.5t32 7t32.5 -7t27 -18.5t18.5 -27t7 -32.5t-7 -32t-18.5 -27t-27 -19t-32.5 -7t-32 6.5t-27 18t-19 27t-7 33.5zM215 45q0 18 7 33.5t19 27t27 18t32 6.5q34 0 59.5 -24.5t25.5 -60.5q0 -17 -7 -32.5t-18.5 -27t-27 -18.5t-32.5 -7
t-32 7t-27 18.5t-19 27t-7 32.5zM506 301q17 0 31.5 -14.5t14.5 -35.5q0 -23 -14.5 -35.5t-31.5 -12.5h-412q-17 0 -31.5 12.5t-14.5 35.5q0 21 14.5 35.5t31.5 14.5h412z" />
    <glyph glyph-name="oslash" unicode="&#xf8;" horiz-adv-x="556" 
d="M374 446q-32 36 -88 36q-37 0 -63.5 -13t-44 -35.5t-25.5 -52t-8 -63.5q0 -69 35 -113zM82 84q-25 36 -39 83t-14 101q0 61 15.5 110t47 83.5t78.5 53.5t109 19q42 0 75.5 -9t62.5 -25l42 52q6 8 11.5 13t13.5 5q10 0 16.5 -6t6.5 -14q0 -6 -3 -11.5t-10 -14.5l-42 -52
q75 -72 75 -204q0 -58 -15.5 -108t-42 -87t-62.5 -58t-76 -21q-8 0 -14 1t-13 2q-12 3 -25 3q-15 0 -27 -3q-5 -1 -10.5 -2t-10.5 -1q-66 0 -120 54l-43 -53q-5 -6 -13.5 -14t-17.5 -8q-18 0 -18 19q0 13 14 30zM215 177q22 -13 53 -13q41 0 68.5 13t44 35.5t23.5 52.5t7 65
q0 21 -3 40.5t-10 34.5z" />
    <glyph glyph-name="ugrave" unicode="&#xf9;" horiz-adv-x="574" 
d="M71 448q0 12 -9 19t-20 12.5t-20 11t-9 14.5q0 11 11.5 14t22.5 3h122q18 0 24 -10.5t6 -27.5v-310q0 -26 12 -42t37 -16q19 0 34 4t29.5 9.5t29 10t34.5 6.5v302q0 8 -8.5 15t-19 13.5t-19 13t-8.5 15.5q0 11 11.5 14t22.5 3h172q16 0 25.5 -3t9.5 -14q0 -10 -9 -16.5
t-20 -12.5t-20 -12t-9 -16v-361q0 -14 8 -22.5t18 -14.5t18 -12.5t8 -16.5q0 -16 -11.5 -18.5t-25.5 -2.5h-162q-16 0 -25.5 4t-9.5 12q0 11 8.5 19t18.5 15.5t18.5 14.5t8.5 15v8q-30 -7 -47.5 -21.5t-34 -29.5t-38 -26t-58.5 -11q-62 0 -94 30.5t-32 100.5v317zM164 694
q0 6 4.5 10.5t12.5 4.5t15 -1t15 -1q7 0 13.5 1t14.5 1q9 0 15.5 -4t14.5 -15q8 -12 17 -27t22 -30q14 -18 26 -28t12 -19q0 -6 -5 -8.5t-13 -2.5q-24 0 -52.5 13t-53 32t-41.5 39.5t-17 34.5z" />
    <glyph glyph-name="uacute" unicode="&#xfa;" horiz-adv-x="574" 
d="M71 448q0 12 -9 19t-20 12.5t-20 11t-9 14.5q0 11 11.5 14t22.5 3h122q18 0 24 -10.5t6 -27.5v-310q0 -26 12 -42t37 -16q19 0 34 4t29.5 9.5t29 10t34.5 6.5v302q0 8 -8.5 15t-19 13.5t-19 13t-8.5 15.5q0 11 11.5 14t22.5 3h172q16 0 25.5 -3t9.5 -14q0 -10 -9 -16.5
t-20 -12.5t-20 -12t-9 -16v-361q0 -14 8 -22.5t18 -14.5t18 -12.5t8 -16.5q0 -16 -11.5 -18.5t-25.5 -2.5h-162q-16 0 -25.5 4t-9.5 12q0 11 8.5 19t18.5 15.5t18.5 14.5t8.5 15v8q-30 -7 -47.5 -21.5t-34 -29.5t-38 -26t-58.5 -11q-62 0 -94 30.5t-32 100.5v317zM414 694
q0 -14 -17 -34.5t-41.5 -39.5t-53 -32t-52.5 -13q-8 0 -13 2.5t-5 8.5q0 9 12 19t26 28q13 15 22 30t17 27q8 11 14.5 15t15.5 4q8 0 14.5 -1t13.5 -1q8 0 15 1t15 1t12.5 -4.5t4.5 -10.5z" />
    <glyph glyph-name="ucircumflex" unicode="&#xfb;" horiz-adv-x="574" 
d="M71 448q0 12 -9 19t-20 12.5t-20 11t-9 14.5q0 11 11.5 14t22.5 3h122q18 0 24 -10.5t6 -27.5v-310q0 -26 12 -42t37 -16q19 0 34 4t29.5 9.5t29 10t34.5 6.5v302q0 8 -8.5 15t-19 13.5t-19 13t-8.5 15.5q0 11 11.5 14t22.5 3h172q16 0 25.5 -3t9.5 -14q0 -10 -9 -16.5
t-20 -12.5t-20 -12t-9 -16v-361q0 -14 8 -22.5t18 -14.5t18 -12.5t8 -16.5q0 -16 -11.5 -18.5t-25.5 -2.5h-162q-16 0 -25.5 4t-9.5 12q0 11 8.5 19t18.5 15.5t18.5 14.5t8.5 15v8q-30 -7 -47.5 -21.5t-34 -29.5t-38 -26t-58.5 -11q-62 0 -94 30.5t-32 100.5v317zM288 636
q-13 -10 -25.5 -19t-30.5 -20q-21 -11 -40 -18t-27 -7q-5 0 -8.5 2t-3.5 7q0 6 11.5 17.5l28.5 28.5t34 37.5t32 36.5q11 11 29 11t29 -11q15 -16 32 -36.5t34 -37.5l28.5 -28.5t11.5 -17.5q0 -5 -3.5 -7t-8.5 -2q-8 0 -27 7t-40 18q-18 11 -30.5 20t-25.5 19z" />
    <glyph glyph-name="udieresis" unicode="&#xfc;" horiz-adv-x="574" 
d="M71 448q0 12 -9 19t-20 12.5t-20 11t-9 14.5q0 11 11.5 14t22.5 3h122q18 0 24 -10.5t6 -27.5v-310q0 -26 12 -42t37 -16q19 0 34 4t29.5 9.5t29 10t34.5 6.5v302q0 8 -8.5 15t-19 13.5t-19 13t-8.5 15.5q0 11 11.5 14t22.5 3h172q16 0 25.5 -3t9.5 -14q0 -10 -9 -16.5
t-20 -12.5t-20 -12t-9 -16v-361q0 -14 8 -22.5t18 -14.5t18 -12.5t8 -16.5q0 -16 -11.5 -18.5t-25.5 -2.5h-162q-16 0 -25.5 4t-9.5 12q0 11 8.5 19t18.5 15.5t18.5 14.5t8.5 15v8q-30 -7 -47.5 -21.5t-34 -29.5t-38 -26t-58.5 -11q-62 0 -94 30.5t-32 100.5v317zM263 640
q0 -24 -18.5 -36t-50.5 -12q-30 0 -47.5 12t-17.5 36q0 23 17.5 34.5t47.5 11.5q32 0 50.5 -11.5t18.5 -34.5zM315 640q0 23 18 34.5t50 11.5q30 0 48 -11.5t18 -34.5q0 -24 -18 -36t-48 -12q-32 0 -50 12t-18 36z" />
    <glyph glyph-name="yacute" unicode="&#xfd;" horiz-adv-x="574" 
d="M41 437q-5 9 -14 18t-18 17.5t-16 16t-7 15.5q0 12 11 14.5t31 3.5h248q32 0 32 -18q0 -12 -17 -22v-2q15 3 42 8.5t80 19.5q34 9 57 11.5t39 2.5q17 0 32 -7t15 -25q0 -15 -11.5 -45t-30 -67.5t-40.5 -79t-43 -78.5t-38.5 -66.5t-25.5 -43.5v-178q0 -36 -7 -59.5
t-18 -37.5t-26 -19.5t-31 -5.5q-17 0 -32.5 8t-32.5 31q-16 21 -25 35.5t-20 14.5q-7 0 -15 -3.5t-16 -6.5l9 45q8 35 41 35q19 0 39 -12v127zM313 181q5 -11 10 -11q4 0 17 16q38 54 66 114t28 118q0 24 -7 35t-27 11q-16 0 -38.5 -5.5t-44.5 -12.5q-17 -5 -41 -11.5
t-47 -6.5q-15 0 -22 7.5t-7 17.5t5 15.5t9 5.5v2h-55zM414 694q0 -14 -17 -34.5t-41.5 -39.5t-53 -32t-52.5 -13q-8 0 -13 2.5t-5 8.5q0 9 12 19t26 28q13 15 22 30t17 27q8 11 14.5 15t15.5 4q8 0 14.5 -1t13.5 -1q8 0 15 1t15 1t12.5 -4.5t4.5 -10.5z" />
    <glyph glyph-name="thorn" unicode="&#xfe;" horiz-adv-x="593" 
d="M76 628q0 10 -8 17.5t-17.5 15t-18 15t-9.5 18.5q0 13 10 17.5t21 4.5h158q15 0 21 -6t6 -17q0 -5 -6 -9.5t-12.5 -10t-12.5 -12t-6 -15.5v-206q17 16 34 31t35 26t39 18t47 7q47 0 83 -21.5t60.5 -57t37 -82.5t12.5 -98q0 -50 -14.5 -99t-42 -88t-69 -63.5t-95.5 -24.5
q-32 0 -56.5 9.5t-41 25t-25.5 35.5t-9 42q0 18 4 30.5t9.5 22t9.5 16.5t4 13q0 9 -8 20q10 2 20 2q29 0 38.5 -12t14.5 -26t12.5 -26t31.5 -12q31 0 53 14.5t36.5 37.5t21 51t6.5 56q0 30 -6 58.5t-20.5 51t-38.5 36t-60 13.5q-13 0 -33.5 -7t-40 -17t-33.5 -21t-14 -20
v-208q-11 -14 -19 -32.5t-8 -44.5q0 -22 8 -40t19 -32v-126q0 -8 9 -13.5t20 -11.5t20 -12.5t9 -15.5q0 -7 -8 -13t-19.5 -11t-23.5 -8t-20 -3q-12 0 -24.5 1.5t-26.5 1.5q-11 0 -23 -1.5t-24 -1.5q-11 0 -24 3t-24 8.5t-19 11.5t-8 12q0 9 9 16.5t20 13.5t20 11.5t9 11.5
v730z" />
    <glyph glyph-name="ydieresis" unicode="&#xff;" horiz-adv-x="574" 
d="M41 437q-5 9 -14 18t-18 17.5t-16 16t-7 15.5q0 12 11 14.5t31 3.5h248q32 0 32 -18q0 -12 -17 -22v-2q15 3 42 8.5t80 19.5q34 9 57 11.5t39 2.5q17 0 32 -7t15 -25q0 -15 -11.5 -45t-30 -67.5t-40.5 -79t-43 -78.5t-38.5 -66.5t-25.5 -43.5v-178q0 -36 -7 -59.5
t-18 -37.5t-26 -19.5t-31 -5.5q-17 0 -32.5 8t-32.5 31q-16 21 -25 35.5t-20 14.5q-7 0 -15 -3.5t-16 -6.5l9 45q8 35 41 35q19 0 39 -12v127zM313 181q5 -11 10 -11q4 0 17 16q38 54 66 114t28 118q0 24 -7 35t-27 11q-16 0 -38.5 -5.5t-44.5 -12.5q-17 -5 -41 -11.5
t-47 -6.5q-15 0 -22 7.5t-7 17.5t5 15.5t9 5.5v2h-55zM263 640q0 -24 -18.5 -36t-50.5 -12q-30 0 -47.5 12t-17.5 36q0 23 17.5 34.5t47.5 11.5q32 0 50.5 -11.5t18.5 -34.5zM315 640q0 23 18 34.5t50 11.5q30 0 48 -11.5t18 -34.5q0 -24 -18 -36t-48 -12q-32 0 -50 12
t-18 36z" />
    <glyph glyph-name="dotlessi" unicode="&#x131;" horiz-adv-x="296" 
d="M84 462q-26 9 -42 18.5t-16 20.5q0 12 13 16.5t34 4.5h145q21 0 36.5 -4.5t15.5 -16.5t-16 -22.5t-42 -16.5v-377q0 -7 9 -12.5t20 -11.5t20 -13t9 -16q0 -7 -8 -13t-19.5 -11t-23.5 -8t-20 -3q-12 0 -24.5 1.5t-26.5 1.5q-11 0 -23 -1.5t-24 -1.5q-11 0 -24 3t-24 8.5
t-19 11.5t-8 12q0 9 9 16t20 13t20 11.5t9 12.5v377z" />
    <glyph glyph-name="OE" unicode="&#x152;" horiz-adv-x="1019" 
d="M335 670q-55 0 -91.5 -24t-58 -62t-30 -84t-8.5 -91q0 -35 3 -73.5t19 -72.5h2q2 56 23 92t51.5 60.5t65 42t64.5 35.5t49.5 41t19.5 59q0 22 -9.5 37t-24.5 24t-34.5 12.5t-40.5 3.5zM340 153q52 0 86.5 21t54.5 56.5t28.5 80.5t8.5 93q0 13 -2 34t-5.5 44t-9.5 45
t-15 37h-2q-3 -39 -25 -64.5t-52 -45.5t-64.5 -37t-63.5 -38.5t-48.5 -50.5t-19.5 -73q0 -53 36.5 -77.5t92.5 -24.5zM645 230q0 -26 5.5 -45.5t20.5 -32t42.5 -18.5t71.5 -6q47 0 77.5 2t48.5 8t26.5 16.5t12.5 26.5q28 -11 42 -35t14 -53q1 -49 -35.5 -74t-95.5 -25
q-20 0 -40.5 1t-44.5 2t-53 2t-66 1q-48 0 -80.5 -3t-58.5 -3q-20 0 -34 2.5t-24 3.5q-14 -3 -32.5 -4.5t-26.5 -1.5q-22 0 -40.5 3t-36.5 3q-19 0 -37.5 -3t-37.5 -3q-50 0 -90 32t-68 83t-43 113t-15 122q0 74 17.5 142.5t52.5 121t89 83.5t127 31q21 0 35.5 -0.5t27 -2.5
t25 -5.5t30.5 -9.5q6 2 18.5 4t29 4t34.5 3t36 1h210q107 0 155.5 -7t48.5 -36q0 -15 -15.5 -31.5t-40.5 -34t-56 -35.5t-61.5 -34t-57 -30t-43.5 -25q-19 -12 -20 -19q-1 -4 2 -6t7 -2q6 0 15.5 4t23 9t30.5 9t36 4q15 0 31.5 -4t31 -12.5t24 -21t9.5 -30.5
q0 -20 -10 -36.5t-32 -20.5q2 6 2 9q0 8 -7 12t-16 4t-25 -4t-35.5 -9t-40 -9t-38.5 -4q-30 0 -52 20t-22 49q0 21 15.5 41t38.5 39t50 37t50 35t38.5 32t15.5 29t-27.5 20t-69.5 6q-45 0 -67 -9.5t-22 -48.5v-104q-20 -13 -32.5 -32.5t-12.5 -43.5q0 -30 16 -49t29 -27
v-120z" />
    <glyph glyph-name="oe" unicode="&#x153;" horiz-adv-x="926" 
d="M765 418q0 30 -28.5 41t-72.5 11q-24 0 -49.5 -5.5t-46.5 -23t-34 -50t-13 -85.5q0 -32 4 -59.5t15 -46.5q13 36 34.5 61t46.5 42.5t50.5 30t46.5 24.5t34 26t13 34zM145 318q0 -33 8.5 -61.5t24.5 -49t38.5 -32t51.5 -11.5q41 0 68.5 13t44 35.5t23.5 52.5t7 65
q0 33 -7.5 60.5t-23.5 48t-39.5 32t-54.5 11.5q-37 0 -63.5 -13t-44 -35.5t-25.5 -52t-8 -63.5zM775 522q16 0 36 -2.5t36.5 -10t28 -21.5t11.5 -37q0 -35 -21.5 -60t-54 -45t-71 -37.5t-72.5 -37.5t-58.5 -46t-28.5 -62q28 -17 59 -23t63 -6q19 0 40 3.5t39 12t32.5 22.5
t20.5 35q12 -3 23 -11t19 -19.5t12.5 -24.5t4.5 -25q0 -30 -11.5 -55t-29.5 -42t-40.5 -26.5t-44.5 -9.5q-40 0 -61.5 3t-41.5 3q-12 0 -31.5 -3t-40.5 -3q-40 0 -70 18t-59 56q-29 -35 -59.5 -54.5t-73.5 -19.5q-15 0 -26.5 3t-25.5 3q-15 0 -26.5 -3t-21.5 -3
q-43 0 -80 22t-64 59.5t-42.5 87t-15.5 105.5q0 61 15.5 110t47 83.5t78.5 53.5t109 19q37 0 65.5 -6.5t51.5 -18t42 -27.5t38 -35q39 43 82 59t78 16h139z" />
    <glyph glyph-name="Scaron" unicode="&#x160;" horiz-adv-x="593" 
d="M398 716q74 0 105 -8.5t31 -40.5q0 -20 -14 -32.5t-30.5 -22t-30.5 -17.5t-14 -18q0 -9 3.5 -14.5t11.5 -13.5q-4 -1 -9 -1.5t-14 -0.5q-20 0 -36 13t-16 30q0 9 3.5 16t7 12.5l7 11t3.5 12.5q0 12 -15.5 17t-40.5 5h-157q-16 0 -26.5 -7.5t-10.5 -20.5q0 -21 30 -38.5
t75 -37.5t97 -46t97 -64t75 -91.5t30 -128.5q0 -59 -16 -103.5t-43.5 -74t-65.5 -44t-81 -14.5q-18 0 -34.5 3t-39.5 3q-24 0 -40 -3t-32 -3q-40 0 -73.5 16.5t-58 44.5t-38 64t-13.5 75q0 37 12.5 70t34 57.5t51 38.5t63.5 14q45 0 70.5 -13t41 -28t25.5 -28t25 -13
q7 0 11 2q1 -5 1.5 -9t0.5 -8q0 -25 -14.5 -43t-43.5 -18q-21 0 -33.5 4.5t-22 10.5t-18.5 10.5t-23 4.5q-20 0 -30.5 -12.5t-10.5 -25.5q0 -19 10.5 -33t27 -23t37.5 -13.5t42 -4.5q30 0 57 7.5t47.5 23.5t33 40.5t12.5 57.5q0 54 -28.5 90.5t-71.5 63.5t-93 48.5t-93 45
t-71.5 53.5t-28.5 74t27 61t68 17h257zM297 845q13 10 25.5 19t30.5 20q21 11 40 18t27 7q5 0 8.5 -2t3.5 -7q0 -6 -11.5 -17.5l-28.5 -28.5t-34 -37.5t-32 -36.5q-11 -11 -29 -11t-29 11q-15 16 -32 36.5t-34 37.5l-28.5 28.5t-11.5 17.5q0 5 3.5 7t8.5 2q8 0 27 -7t40 -18
q18 -11 30.5 -20t25.5 -19z" />
    <glyph glyph-name="scaron" unicode="&#x161;" horiz-adv-x="556" 
d="M404 522q52 0 70.5 -16.5t18.5 -38.5q0 -20 -14 -32.5t-36 -12.5t-36 8t-14 23q0 17 -21 17h-103q-29 0 -46.5 -6t-17.5 -24q0 -15 24 -26.5t60 -24.5t78 -30.5t78 -43.5t60 -63t24 -90q0 -41 -12 -72.5t-31.5 -52.5t-44 -32t-48.5 -11q-32 0 -63 4t-63 4q-27 0 -55.5 -4
t-62.5 -4q-22 0 -44 6.5t-39 20.5t-28 34.5t-11 49.5q0 25 7 40t15 26.5t15 22t7 26.5q0 12 -8 25q19 6 46 6q26 0 48 -19.5t22 -54.5q0 -32 26 -40.5t67 -8.5q43 0 74 14.5t31 48.5q0 30 -27.5 52.5t-69.5 43.5t-91.5 43.5t-93.5 52.5q-16 10 -24.5 20t-12.5 19t-4.5 15.5
t-0.5 11.5q0 32 38 52.5t115 20.5h198zM278 645q13 10 25.5 19t30.5 20q21 11 40 18t27 7q5 0 8.5 -2t3.5 -7q0 -6 -11.5 -17.5l-28.5 -28.5t-34 -37.5t-32 -36.5q-11 -11 -29 -11t-29 11q-15 16 -32 36.5t-34 37.5l-28.5 28.5t-11.5 17.5q0 5 3.5 7t8.5 2q8 0 27 -7t40 -18
q18 -11 30.5 -20t25.5 -19z" />
    <glyph glyph-name="Ydieresis" unicode="&#x178;" horiz-adv-x="667" 
d="M103 539q-7 12 -17 18t-19 9.5t-15.5 7t-6.5 10.5q0 5 4 10t15 9l141 49q9 3 16 6t7 6t-12 4.5t-33 1.5h-57q-26 0 -48.5 -7t-22.5 -24q0 -8 10 -20q-23 1 -42 3.5t-32.5 9t-21.5 17t-8 27.5q0 26 21 33t47 7h260q10 0 21.5 -0.5t21.5 -3t16.5 -8.5t6.5 -16
q0 -11 -21 -21t-46 -20t-46 -19t-21 -18q0 -5 7 -17t25 -35l133 -175q19 16 45 40.5t49.5 53.5t39.5 60.5t16 61.5q0 20 -9.5 27.5t-27.5 7.5q-23 0 -55 -7t-65 -16t-64 -16t-52 -7q-17 0 -17 13q0 6 6 10t29 12q33 11 80.5 27t93 30.5t81.5 25t47 10.5q24 0 46.5 -13
t22.5 -44q0 -19 -13.5 -46.5t-35 -58t-48.5 -62t-53.5 -59t-50.5 -49.5t-39 -33v-242q0 -9 15 -19t33 -20.5t33 -21.5t15 -22q0 -8 -9 -13.5t-21 -10t-24 -6.5t-18 -2q-17 0 -36.5 3t-51.5 3t-51.5 -3t-36.5 -3q-6 0 -18 2t-24 6.5t-21 10t-9 13.5q0 11 15 22t33 21.5
t33 20.5t15 19v184zM308 828q0 -24 -18.5 -36t-50.5 -12q-30 0 -47.5 12t-17.5 36q0 23 17.5 34.5t47.5 11.5q32 0 50.5 -11.5t18.5 -34.5zM360 828q0 23 18 34.5t50 11.5q30 0 48 -11.5t18 -34.5q0 -24 -18 -36t-48 -12q-32 0 -50 12t-18 36z" />
    <glyph glyph-name="Zcaron" unicode="&#x17d;" horiz-adv-x="685" 
d="M429 610q7 9 14 20.5t7 19.5q0 13 -11.5 16t-25.5 4h-203q-17 -2 -30 -10t-13 -28q0 -18 17.5 -34.5t38 -32.5t38 -32.5t17.5 -35.5q0 -11 -12 -24t-26.5 -27t-27 -30.5t-13.5 -35.5q-25 2 -36.5 13.5t-11.5 29.5q0 27 8.5 51t8.5 36q0 15 -12 28t-29.5 25.5t-38 24.5
t-38 24.5t-29.5 25.5t-12 28q0 17 12.5 27t46.5 15t94.5 6.5t156.5 1.5q95 0 153 -2.5t89.5 -7.5t42 -14t10.5 -21q0 -11 -10.5 -28.5t-28.5 -41.5l-310 -404q-8 -10 -14.5 -20t-6.5 -21q0 -22 30 -22h245q23 0 37 4t14 12q0 19 -24.5 36.5t-54 35t-54 35.5t-24.5 39
t11.5 33.5t25 23.5t25 22.5t11.5 31.5q0 8 -1 14t-1 10q8 -4 19 -10t20.5 -14t16 -20t6.5 -28q0 -17 -5.5 -32.5t-5.5 -31.5q0 -17 23.5 -40t52 -51.5t52 -61.5t23.5 -69q0 -26 -11.5 -41.5t-30.5 -24t-43.5 -11t-50.5 -2.5q-39 0 -83 3t-87 3q-24 0 -52.5 -1l-57 -2
t-55.5 -2t-47 -1q-15 0 -39 3t-47.5 10t-40 18.5t-16.5 28.5q0 11 9 28.5t33 49.5zM343 845q13 10 25.5 19t30.5 20q21 11 40 18t27 7q5 0 8.5 -2t3.5 -7q0 -6 -11.5 -17.5l-28.5 -28.5t-34 -37.5t-32 -36.5q-11 -11 -29 -11t-29 11q-15 16 -32 36.5t-34 37.5l-28.5 28.5
t-11.5 17.5q0 5 3.5 7t8.5 2q8 0 27 -7t40 -18q18 -11 30.5 -20t25.5 -19z" />
    <glyph glyph-name="zcaron" unicode="&#x17e;" horiz-adv-x="574" 
d="M349 436q5 5 8 10t3 8q0 5 -6 7.5t-12 2.5h-138q-9 0 -21 -3.5t-12 -12.5q0 -5 3 -9.5t7 -10t7 -12t3 -15.5q0 -16 -12 -28.5t-32 -12.5q-15 0 -26 8.5t-16 19.5q3 4 6.5 9.5t3.5 10.5q0 10 -10 18.5t-22 17.5t-22 20t-10 28q0 15 25.5 22.5t61.5 7.5h334q12 0 23.5 -1.5
t21 -4.5t15.5 -8.5t6 -12.5q0 -14 -5.5 -25t-16.5 -25l-260 -299q12 -6 37.5 -9t53.5 -3q11 0 26.5 2.5t30 7t25 12t10.5 18.5q0 12 -7 21.5t-7 23.5q0 11 10.5 20.5t26.5 9.5t28 -4.5t17 -23.5q-9 -2 -11.5 -9t-2.5 -15q0 -16 10 -30.5t22.5 -30t22.5 -34t10 -42.5
q0 -20 -9 -33t-24 -20.5t-33.5 -10t-36.5 -2.5q-19 0 -42.5 2t-49 4t-52 4t-52.5 2q-42 0 -82.5 -6t-93.5 -6q-34 0 -50.5 9t-16.5 22q0 16 11.5 29t24.5 28zM287 645q13 10 25.5 19t30.5 20q21 11 40 18t27 7q5 0 8.5 -2t3.5 -7q0 -6 -11.5 -17.5l-28.5 -28.5t-34 -37.5
t-32 -36.5q-11 -11 -29 -11t-29 11q-15 16 -32 36.5t-34 37.5l-28.5 28.5t-11.5 17.5q0 5 3.5 7t8.5 2q8 0 27 -7t40 -18q18 -11 30.5 -20t25.5 -19z" />
    <glyph glyph-name="florin" unicode="&#x192;" horiz-adv-x="592" 
d="M335 121q-2 -10 -3.5 -18.5t-1.5 -22.5t4 -28t9 -30q5 -15 8.5 -31.5t3.5 -34.5q0 -39 -19 -65.5t-47.5 -42t-62.5 -22t-64 -6.5q-33 0 -66.5 7.5t-60 23t-43.5 38.5t-17 55q0 20 5 38.5t16 32.5t28 22.5t40 8.5q19 0 32.5 -4.5t23.5 -9.5t17 -9.5t13 -4.5q12 0 19 5
q2 -5 5 -10t3 -12q0 -22 -16.5 -31.5t-33.5 -9.5q-20 0 -36 -9t-16 -33q0 -16 9 -27t22 -18t28.5 -10t29.5 -3q19 0 36.5 4t31 13t21.5 23.5t8 35.5q0 20 -8 34t-18 27q-11 14 -19 28t-8 34q0 26 4 56.5t8.5 60.5t8.5 57.5t4 47.5q0 12 -4.5 22t-23.5 17q-8 3 -20.5 6.5
t-24.5 9t-21 12.5t-9 17q0 14 12 17.5t29 3.5q18 0 36.5 -1t36.5 -2q4 22 5 44t1 44q0 35 -7.5 53t-16.5 31.5t-16.5 28.5t-7.5 42q0 45 27 67.5t73 22.5q21 0 39.5 -5.5t35.5 -12.5t33 -12.5t33 -5.5q29 0 38.5 12t12.5 20q4 -14 10 -33.5t6 -39.5q0 -31 -27 -53t-64 -22
q-16 0 -29.5 3.5t-26.5 8t-26 8.5t-26 4q-23 0 -23 -17q0 -10 12 -22t27 -28.5t27 -38t12 -49.5v-28t-2 -28q20 4 37 6.5t35 2.5q20 0 34 -9.5t14 -29.5q0 -14 -9.5 -28t-9.5 -25q0 -7 4.5 -12.5t9.5 -10.5q-5 -7 -16.5 -10t-24.5 -3q-15 0 -29 8.5t-14 19.5q0 4 1.5 7.5
t1.5 7.5q0 5 -6.5 8.5t-13.5 3.5q-8 0 -14 -5.5t-8 -18.5z" />
    <glyph glyph-name="circumflex" unicode="&#x2c6;" 
d="M139 636q-13 -10 -25.5 -19t-30.5 -20q-21 -11 -40 -18t-27 -7q-5 0 -8.5 2t-3.5 7q0 6 11.5 17.5l28.5 28.5t34 37.5t32 36.5q11 11 29 11t29 -11q15 -16 32 -36.5t34 -37.5l28.5 -28.5t11.5 -17.5q0 -5 -3.5 -7t-8.5 -2q-8 0 -27 7t-40 18q-18 11 -30.5 20t-25.5 19z
" />
    <glyph glyph-name="caron" unicode="&#x2c7;" 
d="M139 645q13 10 25.5 19t30.5 20q21 11 40 18t27 7q5 0 8.5 -2t3.5 -7q0 -6 -11.5 -17.5l-28.5 -28.5t-34 -37.5t-32 -36.5q-11 -11 -29 -11t-29 11q-15 16 -32 36.5t-34 37.5l-28.5 28.5t-11.5 17.5q0 5 3.5 7t8.5 2q8 0 27 -7t40 -18q18 -11 30.5 -20t25.5 -19z" />
    <glyph glyph-name="ring" unicode="&#x2da;" 
d="M254 649q0 -21 -10 -36.5t-26.5 -26t-37 -15.5t-41.5 -5t-41.5 5.5t-37 16t-26.5 26t-10 35.5t10 35.5t26.5 26t37 16t41.5 5.5t41.5 -5t37 -15.5t26.5 -26t10 -36.5zM139 600q26 0 46.5 13t20.5 36t-20.5 36t-46.5 13t-46.5 -13t-20.5 -36t20.5 -36t46.5 -13z" />
    <glyph glyph-name="tilde" unicode="&#x2dc;" 
d="M78 692q16 0 34 -5.5t36 -12.5t35 -13t31 -6q33 0 44 21q5 12 10 20t12 8q8 0 10 -8t2 -25q0 -15 -7.5 -29t-19.5 -25.5t-28 -18.5t-33 -7q-20 0 -38.5 4.5t-36.5 11.5q-18 8 -35 13.5t-34 5.5q-12 0 -21 -6.5t-17 -16.5q-7 -11 -11.5 -19t-10.5 -8q-8 0 -11 10t-3 25
q0 16 7.5 30.5t20 25.5t29 18t35.5 7z" />
    <glyph glyph-name="endash" unicode="&#x2013;" horiz-adv-x="500" 
d="M29 243q-11 0 -20 7.5t-9 20.5t9 21.5t20 8.5h442q11 0 20 -8.5t9 -21.5t-9 -20.5t-20 -7.5h-442z" />
    <glyph glyph-name="emdash" unicode="&#x2014;" horiz-adv-x="1000" 
d="M29 243q-11 0 -20 7.5t-9 20.5t9 21.5t20 8.5h942q11 0 20 -8.5t9 -21.5t-9 -20.5t-20 -7.5h-942z" />
    <glyph glyph-name="quoteleft" unicode="&#x2018;" horiz-adv-x="184" 
d="M83 546q-27 0 -44 17.5t-17 49.5q0 41 17.5 61t49.5 24q10 2 20.5 3t20.5 3t18.5 6t13.5 12q-3 -21 -15.5 -29t-26.5 -14q-14 -5 -26.5 -12t-16.5 -24q9 3 17 3q19 0 31.5 -11.5t12.5 -35.5q0 -26 -15 -39.5t-40 -13.5z" />
    <glyph glyph-name="quoteright" unicode="&#x2019;" horiz-adv-x="184" 
d="M101 722q27 0 44 -17.5t17 -49.5q0 -41 -17.5 -61t-49.5 -24q-10 -2 -20.5 -3t-20.5 -3t-18.5 -6t-13.5 -12q3 21 15.5 29t26.5 14q14 5 26.5 12t16.5 24q-9 -3 -17 -3q-19 0 -31.5 11.5t-12.5 35.5q0 26 15 39.5t40 13.5z" />
    <glyph glyph-name="quotesinglbase" unicode="&#x201a;" horiz-adv-x="184" 
d="M101 116q27 0 44 -17.5t17 -49.5q0 -41 -17.5 -61t-49.5 -24q-10 -2 -20.5 -3t-20.5 -3t-18.5 -6t-13.5 -12q3 21 15.5 29t26.5 14q14 5 26.5 12t16.5 24q-9 -3 -17 -3q-19 0 -31.5 11.5t-12.5 35.5q0 26 15 39.5t40 13.5z" />
    <glyph glyph-name="quotedblleft" unicode="&#x201c;" 
d="M199 546q-27 0 -44 17.5t-17 49.5q0 41 17.5 61t49.5 24q10 2 20.5 3t20.5 3t18.5 6t13.5 12q-3 -21 -15.5 -29t-26.5 -14q-14 -5 -26.5 -12t-16.5 -24q9 3 17 3q19 0 31.5 -11.5t12.5 -35.5q0 -26 -15 -39.5t-40 -13.5zM61 546q-27 0 -44 17.5t-17 49.5q0 41 17.5 61
t49.5 24q10 2 20.5 3t20.5 3t18.5 6t13.5 12q-3 -21 -15.5 -29t-26.5 -14q-14 -5 -26.5 -12t-16.5 -24q9 3 17 3q19 0 31.5 -11.5t12.5 -35.5q0 -26 -15 -39.5t-40 -13.5z" />
    <glyph glyph-name="quotedblright" unicode="&#x201d;" 
d="M79 722q27 0 44 -17.5t17 -49.5q0 -41 -17.5 -61t-49.5 -24q-10 -2 -20.5 -3t-20.5 -3t-18.5 -6t-13.5 -12q3 21 15.5 29t26.5 14q14 5 26.5 12t16.5 24q-9 -3 -17 -3q-19 0 -31.5 11.5t-12.5 35.5q0 26 15 39.5t40 13.5zM217 722q27 0 44 -17.5t17 -49.5
q0 -41 -17.5 -61t-49.5 -24q-10 -2 -20.5 -3t-20.5 -3t-18.5 -6t-13.5 -12q3 21 15.5 29t26.5 14q14 5 26.5 12t16.5 24q-9 -3 -17 -3q-19 0 -31.5 11.5t-12.5 35.5q0 26 15 39.5t40 13.5z" />
    <glyph glyph-name="quotedblbase" unicode="&#x201e;" 
d="M79 116q27 0 44 -17.5t17 -49.5q0 -41 -17.5 -61t-49.5 -24q-10 -2 -20.5 -3t-20.5 -3t-18.5 -6t-13.5 -12q3 21 15.5 29t26.5 14q14 5 26.5 12t16.5 24q-9 -3 -17 -3q-19 0 -31.5 11.5t-12.5 35.5q0 26 15 39.5t40 13.5zM217 116q27 0 44 -17.5t17 -49.5
q0 -41 -17.5 -61t-49.5 -24q-10 -2 -20.5 -3t-20.5 -3t-18.5 -6t-13.5 -12q3 21 15.5 29t26.5 14q14 5 26.5 12t16.5 24q-9 -3 -17 -3q-19 0 -31.5 11.5t-12.5 35.5q0 26 15 39.5t40 13.5z" />
    <glyph glyph-name="dagger" unicode="&#x2020;" horiz-adv-x="352" 
d="M193 12q0 -8 -3.5 -13t-13.5 -5t-13.5 5t-3.5 13v116q0 27 -3.5 57t-6.5 61q-6 30 -12.5 58.5t-6.5 53.5q0 14 4.5 31.5t10 38t10 43.5t4.5 47q-19 0 -32.5 -6t-25 -13t-21.5 -13t-22 -6q-21 2 -32 15.5t-25 39.5q14 26 25 39.5t32 15.5q12 0 22 -6t21.5 -13t25 -13
t32.5 -6q0 22 -7.5 38t-16 29t-16 24t-7.5 23q2 17 15.5 27t48.5 29q35 -19 48.5 -29t15.5 -27q0 -12 -7.5 -23t-16 -24t-16 -29t-7.5 -38q19 0 32.5 6t25 13t21.5 13t22 6q21 -2 32 -15.5t25 -39.5q-14 -26 -25 -39.5t-32 -15.5q-12 0 -22 6t-21.5 13t-25 13t-32.5 6
q0 -24 4.5 -47t10 -43.5t10 -38t4.5 -31.5q0 -25 -6.5 -53.5t-12.5 -58.5q-3 -31 -6.5 -61t-3.5 -57v-116z" />
    <glyph glyph-name="daggerdbl" unicode="&#x2021;" horiz-adv-x="352" 
d="M1 535q14 26 25 39.5t32 15.5q12 0 22 -6t21.5 -13t25 -13t32.5 -6q0 22 -7.5 38t-16 29t-16 24t-7.5 23q2 17 15.5 27t48.5 29q35 -19 48.5 -29t15.5 -27q0 -12 -7.5 -23t-16 -24t-16 -29t-7.5 -38q19 0 32.5 6t25 13t21.5 13t22 6q21 -2 32 -15.5t25 -39.5
q-14 -26 -25 -39.5t-32 -15.5q-12 0 -22 6t-21.5 13t-25 13t-32.5 6q0 -24 4.5 -47t10 -43.5t10 -38t4.5 -31.5t-4.5 -31.5t-10 -38t-10 -43.5t-4.5 -47q19 0 32.5 6t25 13t21.5 13t22 6q21 -2 32 -15.5t25 -39.5q-14 -26 -25 -39.5t-32 -15.5q-12 0 -22 6t-21.5 13t-25 13
t-32.5 6q0 -23 7.5 -38.5t16 -28.5t16 -24t7.5 -23q-2 -17 -15.5 -27t-48.5 -29q-35 19 -48.5 29t-15.5 27q0 12 7.5 23t16 24t16 28.5t7.5 38.5q-19 0 -32.5 -6t-25 -13t-21.5 -13t-22 -6q-21 2 -32 15.5t-25 39.5q14 26 25 39.5t32 15.5q12 0 22 -6t21.5 -13t25 -13
t32.5 -6q0 24 -4.5 47t-10 43.5t-10 38t-4.5 31.5t4.5 31.5t10 38t10 43.5t4.5 47q-19 0 -32.5 -6t-25 -13t-21.5 -13t-22 -6q-21 2 -32 15.5t-25 39.5z" />
    <glyph glyph-name="bullet" unicode="&#x2022;" horiz-adv-x="500" 
d="M72 356q0 37 14 69.5t38 56.5t56.5 38t69.5 14t69.5 -14t56.5 -38t38 -56.5t14 -69.5t-14 -69.5t-38 -56.5t-56.5 -38t-69.5 -14t-69.5 14t-56.5 38t-38 56.5t-14 69.5z" />
    <glyph glyph-name="ellipsis" unicode="&#x2026;" horiz-adv-x="1000" 
d="M97 55q0 27 19.5 44.5t50.5 16.5q31 0 50.5 -16.5t19.5 -44.5t-19.5 -44.5t-50.5 -16.5t-50.5 16.5t-19.5 44.5zM430 55q0 27 19.5 44.5t50.5 16.5q31 0 50.5 -16.5t19.5 -44.5t-19.5 -44.5t-50.5 -16.5t-50.5 16.5t-19.5 44.5zM763 55q0 27 19.5 44.5t50.5 16.5
q31 0 50.5 -16.5t19.5 -44.5t-19.5 -44.5t-50.5 -16.5t-50.5 16.5t-19.5 44.5z" />
    <glyph glyph-name="perthousand" unicode="&#x2030;" horiz-adv-x="1000" 
d="M707 168q0 40 8.5 77.5t26.5 65.5t45 45t65 17q16 0 32 -2.5t28.5 -7t20 -11.5t7.5 -15q0 -6 -2.5 -12.5t-5.5 -11.5q9 -3 20 -10.5t21 -24t16.5 -43t6.5 -67.5q0 -30 -4.5 -60.5t-16 -56t-32 -41.5t-52.5 -16q-10 0 -19.5 3t-19.5 3q-11 0 -20.5 -3t-20.5 -3
q-34 0 -54.5 14.5t-31.5 39t-14.5 56t-3.5 64.5zM777 194q0 -20 2 -39.5t9 -36t20.5 -26.5t37.5 -10t39.5 9t24.5 23t12.5 31.5t3.5 34.5v31t-2 30t-7 24t-14 13q-5 -3 -9.5 -5.5t-12.5 -2.5t-12.5 6t-4.5 14q0 9 5 13.5t11 6.5q2 3 2 7q0 10 -11.5 13t-24.5 3
q-19 0 -32 -12.5t-21.5 -33t-12 -45t-3.5 -48.5zM367 168q0 40 8.5 77.5t26.5 65.5t45 45t65 17q16 0 32 -2.5t28.5 -7t20 -11.5t7.5 -15q0 -6 -2.5 -12.5t-5.5 -11.5q9 -3 20 -10.5t21 -24t16.5 -43t6.5 -67.5q0 -30 -4.5 -60.5t-16 -56t-32 -41.5t-52.5 -16q-10 0 -19.5 3
t-19.5 3q-11 0 -20.5 -3t-20.5 -3q-34 0 -54.5 14.5t-31.5 39t-14.5 56t-3.5 64.5zM437 194q0 -20 2 -39.5t9 -36t20.5 -26.5t37.5 -10t39.5 9t24.5 23t12.5 31.5t3.5 34.5v31t-2 30t-7 24t-14 13q-5 -3 -9.5 -5.5t-12.5 -2.5t-12.5 6t-4.5 14q0 9 5 13.5t11 6.5q2 3 2 7
q0 10 -11.5 13t-24.5 3q-19 0 -32 -12.5t-21.5 -33t-12 -45t-3.5 -48.5zM4 481q0 40 8.5 77.5t26.5 65.5t45 45t65 17q16 0 32 -2.5t28.5 -7t20 -11.5t7.5 -15q0 -6 -2.5 -12.5t-5.5 -11.5q9 -3 20 -10.5t21 -24t16.5 -43t6.5 -67.5q0 -30 -4.5 -60.5t-16 -56t-32 -41.5
t-52.5 -16q-10 0 -19.5 3t-19.5 3q-11 0 -20.5 -3t-20.5 -3q-34 0 -54.5 14.5t-31.5 39t-14.5 56t-3.5 64.5zM74 507q0 -20 2 -39.5t9 -36t20.5 -26.5t37.5 -10t39.5 9t24.5 23t12.5 31.5t3.5 34.5v31t-2 30t-7 24t-14 13q-5 -3 -9.5 -5.5t-12.5 -2.5t-12.5 6t-4.5 14
q0 9 5 13.5t11 6.5q2 3 2 7q0 10 -11.5 13t-24.5 3q-19 0 -32 -12.5t-21.5 -33t-12 -45t-3.5 -48.5zM513 678q4 6 11 13t18 7t18.5 -7t7.5 -15q0 -13 -11 -32l-389 -643q-5 -8 -12 -13.5t-18 -5.5q-8 0 -15 4t-10 15q-1 10 2 18t8 17z" />
    <glyph glyph-name="guilsinglleft" unicode="&#x2039;" 
d="M217 95q5 -13 6 -18t1 -8q0 -7 -4 -12.5t-15 -5.5q-17 0 -26 11.5t-17 24.5l-103 169q-2 3 -3.5 7t-1.5 9t1.5 9t3.5 7l103 169q8 13 17 24.5t26 11.5q11 0 15 -5.5t4 -12.5q0 -3 -1 -8.5t-6 -17.5l-62 -155q-5 -15 -5 -22t5 -22z" />
    <glyph glyph-name="guilsinglright" unicode="&#x203a;" 
d="M123 250q5 15 5 22t-5 22l-62 155q-5 12 -6 17.5t-1 8.5q0 7 4 12.5t15 5.5q17 0 26 -11.5t17 -24.5l103 -169q2 -3 3.5 -7t1.5 -9t-1.5 -9t-3.5 -7l-103 -169q-8 -13 -17 -24.5t-26 -11.5q-11 0 -15 5.5t-4 12.5q0 3 1 8t6 18z" />
    <glyph glyph-name="Euro" unicode="&#x20ac;" horiz-adv-x="592" 
d="M65 452q6 66 22 111t43 72.5t66 39t90 11.5q114 0 173 -23t59 -72q0 -18 -9.5 -30.5t-23 -20.5t-28.5 -11.5t-27 -3.5q-25 0 -43.5 4.5t-29.5 4.5q-8 0 -12.5 -4.5l-9.5 -9.5l-2 -2q-5 7 -6.5 13.5t-1.5 12.5q0 15 10 22t22.5 11.5t22.5 8.5t10 13q0 17 -29.5 29
t-86.5 12q-44 0 -77 -43.5t-44 -144.5h235q15 0 21 -9.5t6 -17.5q0 -11 -6.5 -21t-20.5 -10h-239v-53h194q15 0 21 -9.5t6 -17.5q0 -11 -6.5 -21t-20.5 -10h-189q13 -76 47.5 -111.5t82.5 -35.5q14 0 33.5 3t34.5 3q16 0 32.5 -2t35.5 -2q23 0 35.5 14t12.5 30q0 14 -5.5 22
t-15.5 19h6q50 0 82.5 -24t32.5 -75q0 -27 -11 -51t-28.5 -41.5t-39.5 -27.5t-44 -10q-21 0 -47.5 3t-56.5 3q-23 0 -37 -3t-25 -3q-55 0 -93.5 24t-64 63.5t-39.5 92t-19 109.5h-18q-7 0 -14 5t-12.5 12t-9 14t-3.5 11q0 10 5.5 13t17.5 3h32v53h-16q-7 0 -14 5t-12.5 12
t-9 14t-3.5 11q0 10 5.5 13t17.5 3h36v0z" />
    <glyph glyph-name="trademark" unicode="&#x2122;" horiz-adv-x="1000" 
d="M10 628v88h380v-88h-28q-4 25 -18 42.5t-43 17.5h-46v-298q0 -23 11 -36.5t42 -13.5v-28h-216v28q31 0 42 13.5t11 36.5v298h-46q-29 0 -43 -17.5t-18 -42.5h-28zM584 716l131 -270l141 270h134v-28q-30 0 -42 -10.5t-12 -29.5v-258q0 -23 10.5 -36.5t42.5 -13.5v-28
h-216v28q32 0 42.5 13.5t10.5 36.5v198h-2l-144 -275h-16l-131 275h-2v-198q0 -23 10.5 -36.5t41.5 -13.5v-28h-135v28q27 2 38 14.5t11 35.5v247q0 8 -6.5 17t-17 16.5t-23 12.5t-23.5 5v28h157z" />
    <glyph glyph-name="uniE300" unicode="&#xe300;" 
d="M14 882q0 6 4.5 10.5t12.5 4.5t15 -1t15 -1q7 0 13.5 1t14.5 1q9 0 15.5 -4t14.5 -15q8 -12 17.5 -26.5t21.5 -30.5q14 -17 26 -27.5t12 -19.5q0 -11 -18 -11q-24 0 -52.5 13t-53 32t-41.5 39.5t-17 34.5z" />
    <glyph glyph-name="uniE301" unicode="&#xe301;" 
d="M264 882q0 -14 -17 -34.5t-41.5 -39.5t-53 -32t-52.5 -13q-18 0 -18 11q0 9 12 19.5t26 27.5q12 16 21.5 30.5t17.5 26.5q8 11 14.5 15t15.5 4q8 0 14.5 -1t13.5 -1q8 0 15 1t15 1t12.5 -4.5t4.5 -10.5z" />
    <glyph glyph-name="uniE302" unicode="&#xe302;" 
d="M139 824q-13 -10 -25.5 -19t-30.5 -20q-21 -11 -40 -18t-27 -7q-12 0 -12 9q0 6 11.5 17.5l28.5 28.5t34 37.5t32 36.5q11 11 29 11t29 -11q15 -16 32 -36.5t34 -37.5l28.5 -28.5t11.5 -17.5q0 -9 -12 -9q-8 0 -27 7t-40 18q-18 11 -30.5 20t-25.5 19z" />
    <glyph glyph-name="uniE304" unicode="&#xe304;" 
d="M78 880q16 0 34 -5.5t36 -12.5t35 -13t31 -6q33 0 44 21q6 12 10.5 20t11.5 8q8 0 10 -8t2 -25q0 -15 -7.5 -29t-19.5 -25.5t-28 -18.5t-33 -7q-20 0 -38.5 4.5t-36.5 11.5q-18 8 -35 13.5t-34 5.5q-12 0 -21 -6.5t-17 -16.5q-7 -11 -11.5 -19t-10.5 -8q-8 0 -11 10
t-3 25q0 16 7.5 30.5t20 25.5t29 18t35.5 7z" />
    <glyph glyph-name="uniE305" unicode="&#xe305;" 
d="M113 828q0 -24 -18.5 -36t-50.5 -12q-30 0 -47.5 12t-17.5 36q0 23 17.5 34.5t47.5 11.5q32 0 50.5 -11.5t18.5 -34.5zM165 828q0 23 18 34.5t50 11.5q30 0 48 -11.5t18 -34.5q0 -24 -18 -36t-48 -12q-32 0 -50 12t-18 36z" />
    <glyph glyph-name="uniE308" unicode="&#xe308;" 
d="M254 837q0 -21 -10 -36.5t-26.5 -26t-37 -15.5t-41.5 -5t-41.5 5.5t-37 16t-26.5 26t-10 35.5t10 35.5t26.5 26t37 16t41.5 5.5t41.5 -5t37 -15.5t26.5 -26t10 -36.5zM139 788q26 0 46.5 13t20.5 36t-20.5 36t-46.5 13t-46.5 -13t-20.5 -36t20.5 -36t46.5 -13z" />
    </font>
</defs>
</svg>
